<?xml version="1.0" standalone="no"?>
<!DOCTYPE svg PUBLIC "-//W3C//DTD SVG 20010904//EN"
 "http://www.w3.org/TR/2001/REC-SVG-20010904/DTD/svg10.dtd">
<svg version="1.0" xmlns="http://www.w3.org/2000/svg"
 width="778.000000pt" height="1280.000000pt" viewBox="0 0 778.000000 1280.000000"
 preserveAspectRatio="xMidYMid meet">
<metadata>
Created by potrace 1.15, written by Peter Selinger 2001-2017
</metadata>
<g transform="translate(0.000000,1280.000000) scale(0.100000,-0.100000)"
fill="#000000" stroke="none">
<path d="M7684 12605 c-103 -22 -167 -60 -458 -275 -92 -69 -193 -142 -224
-163 -30 -21 -100 -71 -154 -112 -99 -75 -128 -93 -181 -114 -15 -6 -26 -15
-23 -20 3 -5 -44 -47 -106 -92 -145 -109 -136 -104 -161 -81 -12 10 -28 22
-35 26 -16 10 -82 -31 -82 -51 0 -9 -10 -3 -26 16 -30 36 -51 39 -88 10 -31
-25 -32 -32 -5 -71 12 -16 20 -30 18 -32 -32 -22 -346 -239 -514 -354 -273
-187 -272 -186 -485 -337 -297 -210 -421 -295 -430 -295 -4 0 -8 36 -8 79 -2
149 -44 281 -127 396 -60 85 -126 141 -212 181 -100 47 -190 64 -341 64 -106
0 -134 -4 -171 -21 -80 -36 -205 -127 -246 -179 -22 -28 -52 -65 -67 -83 -37
-42 -84 -156 -99 -240 l-12 -67 -36 0 c-52 0 -241 -36 -273 -52 -34 -16 -44
-39 -25 -53 8 -6 73 -23 143 -39 71 -16 133 -32 137 -36 5 -4 1 -22 -7 -39
-14 -26 -15 -38 -5 -70 8 -28 8 -44 0 -59 -16 -30 -14 -39 4 -16 13 18 14 17
15 -18 0 -32 6 -42 47 -73 l48 -37 -3 -56 c-2 -36 3 -74 13 -102 9 -25 26 -78
38 -119 14 -48 29 -78 42 -85 50 -28 46 -48 -17 -87 -51 -31 -119 -59 -243
-100 -47 -16 -69 -30 -103 -69 -24 -28 -48 -50 -54 -50 -14 0 -129 -83 -150
-108 -9 -11 -15 -27 -15 -35 2 -14 -26 -38 -140 -120 -86 -62 -205 -137 -216
-137 -18 0 -37 -21 -37 -39 0 -9 -38 -42 -83 -73 -45 -31 -125 -87 -177 -124
-52 -37 -167 -117 -255 -177 -277 -190 -315 -219 -315 -239 0 -12 -11 -23 -30
-29 -36 -13 -46 -41 -25 -72 8 -13 13 -32 9 -41 -8 -21 2 -61 22 -80 14 -14 7
-28 -74 -143 -110 -157 -177 -262 -186 -290 -6 -18 -18 -23 -64 -29 -72 -8
-99 -23 -171 -87 -32 -29 -78 -70 -103 -92 -60 -53 -279 -254 -298 -274 -8 -9
-81 -76 -162 -148 -130 -119 -150 -133 -182 -133 -20 0 -36 4 -36 9 0 5 -18
11 -40 13 -22 2 -40 0 -40 -4 0 -5 12 -8 28 -9 34 -1 -71 -26 -148 -35 -52 -6
-59 -11 -132 -83 -43 -42 -78 -84 -78 -93 0 -9 12 -26 28 -38 21 -18 36 -21
74 -17 44 4 46 3 36 -16 -5 -11 -8 -49 -6 -85 4 -57 8 -68 35 -92 16 -15 33
-39 37 -53 12 -48 52 -73 109 -69 9 1 17 -5 17 -14 0 -31 47 -64 92 -64 38 0
45 -4 58 -32 8 -18 27 -40 42 -51 24 -18 28 -18 57 -4 30 15 31 15 78 -27 110
-97 181 -146 209 -146 40 1 55 15 98 93 21 37 44 67 52 67 21 0 207 83 234
105 8 7 28 16 45 19 35 9 114 46 167 78 85 53 222 135 271 163 225 128 268
147 359 160 38 5 55 14 85 46 21 23 55 50 76 60 44 23 288 238 341 302 l36 42
-14 -41 c-8 -22 -26 -84 -40 -136 -14 -53 -37 -120 -51 -150 l-25 -54 -102
-31 c-191 -59 -248 -96 -304 -200 -12 -21 -31 -56 -43 -77 -28 -49 -121 -281
-121 -302 0 -8 -11 -50 -25 -93 -32 -97 -53 -224 -61 -362 l-7 -106 -46 -17
c-106 -38 -169 -122 -210 -281 -37 -141 -61 -193 -102 -226 -36 -28 -39 -35
-39 -79 0 -27 4 -51 10 -55 5 -3 -3 -40 -21 -88 -26 -69 -30 -93 -27 -152 3
-64 8 -78 57 -157 83 -138 169 -191 328 -205 94 -8 179 10 268 56 111 57 175
132 216 253 18 55 21 77 15 165 -3 57 -3 103 -1 103 23 0 85 -44 89 -63 2 -12
10 -56 17 -97 17 -106 59 -160 209 -267 5 -5 17 -109 29 -258 7 -93 16 -140
39 -200 16 -44 39 -111 52 -150 12 -38 40 -110 62 -158 46 -101 46 -107 3
-309 l-23 -111 45 -86 45 -86 -6 -85 c-4 -47 -9 -124 -13 -172 l-6 -88 46 -92
c24 -51 48 -103 52 -116 3 -12 25 -37 48 -55 41 -31 42 -34 45 -96 3 -64 7
-86 35 -186 8 -27 17 -78 20 -112 8 -89 65 -373 94 -473 14 -47 33 -114 43
-150 11 -36 28 -96 39 -135 43 -149 61 -250 61 -346 0 -94 -1 -98 -30 -129
-17 -18 -42 -57 -56 -85 -20 -43 -37 -61 -88 -94 -35 -23 -103 -80 -152 -126
-49 -47 -100 -88 -113 -92 -14 -3 -38 0 -55 7 -57 23 -79 22 -129 -5 -34 -18
-79 -29 -151 -39 -91 -12 -107 -17 -153 -50 -76 -54 -133 -167 -99 -195 7 -6
59 -26 116 -45 56 -19 105 -37 108 -40 3 -3 -14 -6 -38 -6 -87 0 -168 -42
-141 -74 16 -19 111 -36 222 -40 95 -3 337 15 439 32 30 6 56 9 58 7 4 -3
-122 -41 -163 -49 -16 -3 -64 -8 -105 -11 -41 -4 -77 -9 -80 -12 -3 -2 47 -2
110 2 82 5 135 15 185 32 94 33 339 125 344 129 1 1 0 7 -3 13 -4 6 -21 5 -48
-5 -71 -25 -52 -9 58 47 100 51 109 54 187 56 96 2 186 15 242 36 139 52 232
92 243 105 13 17 15 106 3 191 -6 43 -14 59 -38 80 -17 14 -38 40 -46 57 -9
17 -23 36 -31 43 -12 10 -16 32 -16 84 0 60 -4 75 -26 104 -22 28 -25 41 -20
73 3 20 13 50 21 66 19 36 19 59 1 77 -10 9 -19 58 -27 138 -16 158 -16 173
-1 424 21 342 22 472 6 550 -20 100 -60 250 -85 320 -14 38 -21 82 -20 120 1
51 5 63 31 90 35 36 76 126 88 192 7 39 4 63 -16 128 -24 78 -24 82 -9 155 9
41 19 99 22 128 4 28 10 50 14 47 4 -2 13 -28 20 -57 6 -29 31 -102 55 -162
l44 -110 -29 -57 c-17 -31 -33 -73 -36 -93 -9 -58 25 -159 75 -219 23 -29 56
-80 72 -114 27 -56 29 -66 20 -105 -6 -24 -13 -117 -16 -208 -6 -153 -4 -174
20 -290 31 -146 44 -216 51 -285 3 -27 10 -70 15 -95 5 -25 11 -72 13 -105 5
-68 20 -175 43 -316 15 -89 15 -97 -1 -129 -14 -27 -16 -48 -10 -130 8 -107 0
-133 -49 -179 -14 -14 -26 -29 -26 -34 0 -6 -7 -18 -16 -28 -21 -23 -33 -251
-15 -273 6 -7 17 -33 24 -57 12 -42 15 -45 72 -62 277 -84 375 -121 533 -200
67 -34 122 -65 122 -68 0 -4 14 -12 30 -19 17 -7 30 -16 30 -20 0 -14 208
-112 280 -131 48 -13 125 -22 213 -26 119 -5 143 -3 177 12 47 21 48 28 16 59
-27 24 -105 46 -166 46 -21 0 -41 4 -44 9 -4 5 31 9 83 8 99 -2 112 4 116 52
1 17 10 46 20 65 24 45 14 117 -22 150 -26 25 -32 28 -118 67 -27 12 -74 44
-104 71 -78 71 -164 109 -273 123 -51 6 -59 11 -129 82 -40 41 -93 88 -116
104 -40 28 -42 30 -25 47 9 9 24 36 31 59 14 42 13 44 -18 95 -35 55 -56 135
-30 111 9 -9 47 -13 114 -13 100 0 103 1 195 45 97 48 151 85 209 145 43 45
103 125 125 169 10 18 43 61 75 95 31 33 101 115 155 181 55 66 132 156 171
200 150 167 422 497 547 664 73 96 134 218 147 295 13 73 14 273 2 347 -5 30
-14 101 -21 159 -15 136 -17 152 -40 295 -11 66 -26 174 -35 240 -9 66 -18
131 -20 145 -3 14 -12 75 -20 135 -25 181 -35 247 -40 255 -2 4 -9 45 -14 91
-6 46 -13 95 -17 109 -3 14 -10 50 -14 80 -4 30 -19 120 -33 200 -14 80 -28
172 -32 205 -6 59 -86 542 -105 640 -6 28 -12 64 -14 80 -2 17 -9 53 -16 80
-6 28 -11 62 -11 76 1 14 -6 45 -14 69 -8 23 -12 47 -9 52 4 5 -4 73 -17 151
-16 97 -25 133 -29 112 -4 -20 -14 24 -33 135 -15 91 -27 168 -27 171 0 4 12
9 28 12 41 7 159 37 231 58 81 24 88 24 95 -6 5 -18 13 -25 30 -25 31 0 48 22
41 52 -6 23 1 27 117 76 68 28 172 70 232 92 61 23 115 48 121 57 13 17 35 10
35 -10 0 -30 22 -86 35 -91 21 -8 58 31 50 52 -3 9 -27 98 -51 197 -25 99 -50
194 -55 210 -11 34 -48 191 -115 484 -31 137 -44 210 -37 220 4 9 7 26 5 39
-3 17 -8 21 -25 17 -20 -5 -22 -2 -22 27 0 28 -4 33 -27 36 -34 4 -54 -27 -38
-59 7 -11 10 -22 8 -24 -5 -5 -208 -53 -255 -60 -36 -6 -43 -4 -43 10 0 62
-87 144 -163 154 -39 6 -42 8 -57 57 -12 43 -26 61 -81 108 -58 49 -70 55 -97
50 -23 -5 -44 1 -84 23 -173 97 -238 135 -238 141 0 4 14 34 30 67 17 33 30
65 30 72 0 7 15 19 33 26 17 8 40 23 50 34 17 19 16 21 -23 62 -22 22 -36 41
-31 41 5 0 14 -7 22 -16 16 -19 58 -41 95 -50 76 -16 85 -16 104 1 18 17 19
20 5 41 -20 30 -19 31 10 38 35 9 62 66 49 102 -21 59 -160 89 -203 43 -41
-45 -35 -103 15 -129 33 -17 45 -30 38 -42 -13 -21 -100 39 -147 102 -20 27
-37 53 -37 57 0 9 -70 125 -80 133 -4 3 -9 13 -13 22 -3 9 -31 34 -62 54 -42
28 -53 40 -44 50 15 19 -5 50 -36 56 -33 7 -60 -13 -53 -39 5 -17 0 -22 -25
-27 -25 -5 -36 0 -73 34 -24 22 -48 40 -53 40 -5 0 -38 -20 -73 -45 -35 -24
-86 -58 -114 -74 -28 -17 -59 -40 -69 -51 -10 -11 -22 -20 -27 -20 -5 0 -45
-25 -91 -55 -45 -30 -86 -55 -92 -55 -5 0 -17 13 -26 29 -11 18 -31 33 -55 41
-22 7 -48 21 -60 31 -19 18 -23 18 -50 4 -54 -28 -56 -26 -141 115 -19 30 -36
54 -39 52 -33 -23 -34 85 -1 168 14 36 31 95 37 133 10 53 16 67 30 67 22 0
36 17 46 55 4 17 18 53 30 82 13 28 26 76 30 105 7 50 12 57 89 133 45 44 91
93 102 110 21 29 21 29 107 26 135 -4 164 17 80 57 -25 12 -43 26 -40 31 3 5
77 60 163 122 87 63 165 119 173 126 8 7 62 46 120 87 58 42 168 121 244 176
l140 101 18 -35 c20 -40 53 -63 63 -45 4 6 41 35 82 66 46 34 80 67 87 84 6
16 14 29 19 29 5 0 35 25 67 57 32 31 76 68 98 82 80 52 161 111 167 121 10
16 22 12 28 -10 4 -16 14 -20 50 -20 28 0 52 6 61 16 20 20 21 72 1 94 -18 20
-25 13 125 127 259 196 366 277 414 316 29 23 63 49 76 57 12 8 28 20 34 25
11 10 160 121 256 192 131 97 237 206 273 281 16 35 28 64 26 66 -2 2 -31 -2
-65 -9z m-2033 -3333 c20 -31 43 -71 52 -87 8 -17 24 -39 36 -49 12 -11 21
-24 21 -29 0 -6 -34 27 -76 71 -64 68 -77 88 -78 117 -1 19 1 35 4 35 3 0 21
-26 41 -58z m-3192 -833 c-6 -40 -15 -82 -19 -93 -7 -20 -7 -20 -14 2 -4 12
-11 22 -16 22 -5 0 -7 24 -4 53 5 38 13 58 31 75 14 13 27 21 29 19 3 -2 -1
-37 -7 -78z m-115 -118 c25 -27 25 -89 1 -107 -30 -22 -90 -17 -121 9 l-26 23
21 41 c11 23 26 43 33 46 30 12 76 6 92 -12z m-141 -215 c36 -8 25 -25 -35
-55 -116 -57 -197 -166 -201 -270 l-2 -61 -50 -16 c-27 -9 -74 -36 -104 -60
-29 -24 -57 -44 -61 -44 -9 0 104 185 260 427 l92 143 36 -29 c20 -16 50 -32
65 -35z m758 -477 c12 -41 23 -106 26 -146 l5 -72 -42 -43 c-42 -43 -42 -43
-37 -105 4 -48 0 -70 -14 -97 -10 -19 -21 -58 -25 -88 -7 -57 -32 -122 -63
-166 -19 -27 -19 -28 0 -52 28 -36 49 -88 49 -121 0 -25 -4 -29 -29 -29 -26 0
-29 4 -35 44 -6 40 -55 133 -78 147 -11 7 29 172 124 514 50 183 88 299 94
292 2 -2 14 -37 25 -78z"/>
<path d="M440 7200 c-24 -8 -23 -8 8 -9 17 -1 32 4 32 9 0 11 -5 11 -40 0z"/>
<path d="M513 7193 c-22 -8 -14 -23 13 -23 15 0 24 5 22 12 -5 14 -18 18 -35
11z"/>
<path d="M365 7173 c-34 -8 -38 -20 -5 -15 16 2 30 8 30 13 0 5 -1 8 -2 8 -2
-1 -12 -3 -23 -6z"/>
<path d="M6101 6654 c0 -11 3 -14 6 -6 3 7 2 16 -1 19 -3 4 -6 -2 -5 -13z"/>
<path d="M3945 548 c-49 -22 -128 -56 -175 -74 -47 -18 -78 -33 -70 -34 8 0
40 9 70 21 30 11 68 25 84 29 16 5 40 17 53 26 24 15 46 19 121 23 17 0 32 6
32 11 0 6 -17 8 -42 4 l-43 -5 40 20 c74 36 21 21 -70 -21z"/>
<path d="M3555 450 c28 -12 57 -12 50 0 -3 6 -21 10 -38 9 -27 0 -29 -2 -12
-9z"/>
<path d="M3467 444 c-6 -10 9 -42 16 -34 3 3 1 14 -3 24 -3 11 -9 15 -13 10z"/>
</g>
</svg>
