<svg id="Layer_1" data-name="Layer 1" xmlns="http://www.w3.org/2000/svg" viewBox="0 0 800 600"><defs><style>.cls-1{fill:#cfeaf3;}.cls-2{fill:#f9f9f9;}.cls-3{fill:#e9efb6;stroke:#bdd142;stroke-linecap:round;stroke-linejoin:round;stroke-width:0.25px;}.cls-4,.cls-6{fill:none;stroke-miterlimit:10;stroke-width:2px;}.cls-4{stroke:#c70025;}.cls-5{fill:#c70025;}.cls-6{stroke:#012169;}.cls-7{fill:#012169;}.cls-10,.cls-11,.cls-12,.cls-13,.cls-14,.cls-15,.cls-16,.cls-8,.cls-9{isolation:isolate;font-family:ArialMT, Arial;}.cls-8,.cls-9{font-size:12px;}.cls-9{letter-spacing:-0.06em;}.cls-10,.cls-11,.cls-12,.cls-13,.cls-14,.cls-15{font-size:9.97px;}.cls-11{letter-spacing:-0.04em;}.cls-12{letter-spacing:-0.02em;}.cls-13{letter-spacing:-0.04em;}.cls-14{letter-spacing:-0.02em;}.cls-15{letter-spacing:-0.06em;}.cls-16{font-size:19.83px;fill:#333;}</style></defs><title>Artboard 1</title><g id="sea"><rect class="cls-1" x="-313.8" y="-235.3" width="1427.6" height="1070.7"/></g><g id="land"><path class="cls-2" d="M435.2,726.8l-1.4,1.5-1,4.1-1.9,2.1-1.5.5-1,2.1h-2.8l-2.9,2.1H420l-2.4-2.6,1.9-2.1,2.9-1-1-2-2.4-1.6h-2.8l-1.9,3.1-2.5,1.5-1.9,1v3.1l3.9,3.1-1.4,1.5h-1.9l-1,.9-3.8,2.2-1-1-1.9,1-6.7-1-1.9,2-6.7,2.1-2.9,2h-1.9l-3.3,2.6.5,1.5h1.9l1-1h4.8l.9-1h1.9l1-1,2.9,2.1h2.9l3.8-3.1h2.9l1.9,3.1h3.9l.5,2.6,2.4,2.5,3.8-2.1h2l2.8-4.1H427l1-1h2.8l1.4-1.6-1.9-5.1,7.6-5.2.1-5.1,1.9-1.1,2.3-.4.5-1.7-4.3-5.6Zm65,8.2-2.9,1-1.9,2.1h-5.7l-.5-1.5,2.4-2.6.9.1,1-1.1,4.8-2.1,3.3-5.6v-3.1l-1-2.1-4.3-3.6h-1.9l-2.9,2h-4.8l-3.9-2.1-5.7-1-4.8,2.1-1-1h-3.9l-1-1.1h-3.8l-1,1H454l-.5,4.7-.9,1,.9,1-1,1v2.1l-1.9,2.1v2.1l-3.9,4.1-1.9,1v4.2l.9,1.1v2l2.4,2.6,1.9,1h6.6l1-1h3.9l4.8-5.1h4.9l.9,1,7.6.1,1,1h1.9l2.4-1.5.5-1.6,1.9,1,3.8,3.1h1.9l3.9-3,4.3-.5-.1-3.1Zm-97.5,30.9-8.6,5.2-7.6,3.1-2.4,4.7,2.4,3.6,1.9-1,3.8-5.2,1.9-1h4.8l1-1h2.8l6.2-4.6v-1.1l-2.4-2.7ZM582.8,500.5v-2.1l-.5-.5h-1l-.5.5v1.1l1.4,1.5Zm26.3,150-2.9.1-1.9,2.1-3.8-.1-.9,1.1h-2.9l-1,1.1-3.3.5v5.2l1,2,2.3.5,1.4,1.6-1.4,1.5h-2l-.9,1-4.8-2-1.4,1.5-.5,1.6h-2.8l-1,.9-3.8.1-1,1h-5.8l-.9-1.1-1,1.1h-6.6l-2.7,3.1-2.9.1-.9,1h-2.9l-2.4,1.5V679l1.4.5v1.1l-5.8,1-1-1.1h-1.9l-1.9-1-7.6,4.1-5.8,1-1,1h-5.7l-1.9,1-6.6,6.2-1.9,1.1H505l-.5,1.5,1,2.1-2.4.5-2.4,2.6-1.9,4.2v2.1l1.4,1.5h5.7l2.9,2h3.7l1.9-5.2,3.9-1,2.8-3.2h9.6l3.9-3,3.8-2.1,2.9-.1.9,1.1h7.6l6.7-6.2,8.6.1.5-2.7,2.8-2,.5-1.6h3.8l.9,1.1H585l2.5-1.5V683l2.4-2.6h1l1-.9,7.6-1.1-.5-2.6-1.9-1,2.8-3.1v-2.1l1.4-1.5,2.9-.1,1.4-2.6,1-1v-2.1l2.3-2.6h1l4.3-3.6V651l-4.3-1.6ZM579.4,497.9l-1.9,1-1,2.1-3.4,1.5v4.1l1,1.1v2.1l1.4,1.5,2.8.1,2.4-1.6-.1-8.2ZM382.7,378.1l-.4.6-.1,3.1.5.5,2.4-2.6v-1.1l-.5-.5ZM226.8,315.2l-3.3,2.6-.9,5.2,2.4.5,2.4-2.6ZM403.7,453.5l-2.4,2.5v1.1l.5.5h2.8l.5-.5V454l-.5-.5Zm61.1-11.3H461l-.9-1.1h-1.9l-1.4,1.5,3.3,4.6H463l3.3-2.6ZM461,463.9h-.9l-.5.5v4.1l1.4,1.6h.9l1-1.1h1.9l.5-2.6-1.4-1.5H462Zm6.2-6.7.5.5h1l1.4-1.5-1.4-1.5-1.4,1.5-.1,1Zm-57.8-26.4-1,1.1-1.4.5v1.1l.5.5h2.9l1.5-1.5v-1.1l-.5-.5ZM569,405.1l-1-.1-.6.5v1.1l.5.5h.9l.5-.5v-1ZM434.3,451.5h.9l.5-3.6-1-1v-1l-.5-.5h-2.8l-.5,1.5,1.9,2.1v1.1Zm-2.9-21.7h-2.8l-1,1h-2.8l-3.9-2.1H419l-4.3,3.6,1.4,1.5h.9l1.4,1.5,1.5,2.6,1.9,1h2.8l.5,2.5,1.5,1.6,1.9,1h4.8l.5-3.6-1-1.1v-8.2ZM255.2,464.3l2.4-1.5h2.9l.5-2.5,3.3-3.6,4.8-1,1.4-2.6V451l1.9-2.1-1.5-2.5-1,1h-2.8l-1.9-2-2.9-.1-1.8-3-1.9-.1-2,2h-2l-1.8-3.1h-2.9l-.9,1.1-4.9-4.1-2.9,1.1-1.4-2.6,4.8-3.1v-1.1l4.4-4.8,1-1.1h4.8l1.9-2h1.9l1.9-2.1,2.4-.5-.1-2-4.8-5.2-.9-3.1-2.4-2.6h-2l-.9-1.1-1.9.1-1,2.1-2-3-3.9.1-.9,1-1.5-.5.5-1.5,2.4-1.5.9-3.1,1.5-1.5h1.9l1.1-1.4,4.7-.8,3.8,3.1h1.9l1.5,1.5v1l2.4,1.6,10.4-.1,1.4-2.6.1-4-2.9-1.1,2-2.1v-4.1l1.9-1v-2l-1-1.1v-6.2l-3.9-1.1v-2.1l1-1.1v-4.1l-.9-1,1.4-1.6.9,2,2.9-2.1h1.9l.5-4.7-1.5-2.5h-1.9l-3.8,4.1-6.2-1.5.5-2.6h4.8l1.4-1.6-1.4-2.5-5.3-1.6,2-3.1v-2.1l1.5-1.5h9.5l4.8-3.1,2.8,4.1h3.8l1.5-1.5v-3.1l-1-1v-6.2l-2.9-5.2.5-3.6h3.8l1.9-1,2.4,4.6-1,1,2.9,5.2,2.4.5.9,1.1,1.9-2,5.7-1,1-2.1,1.9,1,1.5-.5-.1-2.1-1.9-2,1-1.1-.1-3.1,1.9-2.1-.5-2.5-1.5-.5.1-3.1,2.8-3-1.9-3.2-.9-4.1-2.4-2.6h-1l-2-3.2-3.8-1-1-1.1h-2.8l-1.5,7.8-2.3.5-1.5,1.6-1.5,2.5-5.8,2.1-2.9,5.2-2.9-.1-2.3,2.6-.4,2.6-3,1-.9,2.1-1.5-.5,2.9-6.2-1.5-2.6-3.8-1-4.8,5.1h-1.9l-3.3,2.6V330l-2.3,2.6h-2.9l-2.8,3.1h-2.9L249,338l-1.1,2.2-1-1.1-2.4.6v5.1l-1.4,2.6h-1l-1.4,1.5V352l-1.4,1.5h-4.7l-1,1.1-3.8.1-7.2,6.7v7.2l-1.4,1.6-.4-1.6-2.4-1.5h-4.8l-.9,1h-8.6l-.9,1.1-5.7-.1-3.8,4.1-5.7,3.1-2.8,1.1-3.9,3.1h-8.5L172,383l-1.9,1-.9,2.1v3.1l-.5.5-1.9-1-2,1-1.4-1.6V386l-2.8-3.1-.9-4.1-1.4-1.6-1,.1-2.9-2.1H143.9l-1.9,1-3.8-2h-1.9l-2.9,3.2-1-1h-1.9l-1.9-3.1-1.4,2.6-2,3.1v3l-2,5.2-2.4,2.6h-.9l-4.1,5.5v3.1l1.9,3.1-.5,1.5-2.9.1-.4-2.6-2.4-1.5-1.9,2.1-4.8,2-6.7,1L92.7,413l-1.4,1.5H89.4l-.9-1H83.7l-2.9,2.1H78.9l-2.4,3.6v2.1l1.4,1.6,8.6-1,1.4,1.5-.9,2v3.1L83.8,432l-2.9-.1-4.3,3.7v6.2l1,1V448l-1.4,1.5H74l-4.8-4.1-2.8.1L65,448v2.1l-2.9,4.1,1,2.1-.9,8.3,4.8,5.1-1,3.1-.9,1v4.1L66,480l2.4,2.5h1.9l2.3,1.5-1.9,5.2-1.9,2.1.5,3.6,3.8-2.1,4.7,1,2.4-1.5-1.8-3.1,5.2-3.6h1.9l2.9-2,1.9,3,2.9.1,2.4-2.6V483l2.9-2.1v-1l4.3-3.6,5.2-.5-1-4.1,1.5-.5,3.3-3.6v-1.1l3.3-3.6H117l1,1h3.8l.9-3.1,1.1,1.1,5.2.5-1,2.1,1,5.1,1.4,1.6h1.9l1.9,3.1,2.8,1,5.7,5.2h2.9l4-5.2,2.8,2,3.8,3.1,3.8-2.1,2.9.1,4.3-3.6v-5.2l-2.4-3.6-10.5,1-1.5-1.6,2.4-1.5,3.4-3.5.5-1.6,7.6.1,3.8-2.1,3.9-2.1h1.9l8.6-5.2h1.9l1.9-2.1h5.7l1.9,2h2.8l.9-1,6.7-4.1h1.9l5.7-4.2,10.1.5v4.1l-2.9,3.2V451l-1,1,1.4,2.6h.9l2.4,2.5v1.1l1.9,1v2l-2.9,3.1-.9,3.1,1.4,1.6h2.9l.4,1.5,2.4,2.5h1.9l1.9-3.1H239l1.9-3.2h3.8l.5,2.6,2.4,1.5,1.1-2.2,1-1.1h3.8l1.4-1.5Zm340.5,42.9-.5.5v2.1l.5.5h1l1.4-1.5v-1.1l-.5-.4h-1.9Zm-8.6-172.3,1.9,1h1.9l.9-1,1,1.1,1.4-.5,1-6.2-2.4-.5-6.7-6.2-2.4.5v7.2l3,3Zm0-61-.5.5v1.1l.5.5h.9l.5-.5v-1.1l-.5-.5Zm-3.3,17,2.8,1-1,4.2,4.3.5.5-1.6-.9-1v-3.1l-1-1v-5.2l1.9-2.1-1-1v-2l-3.8-3.1v-4.2l2.4-.4.5-1.6-3.4-2.6h-.9l-1.8,3.1-1.5.5-1,4.1-2.9,2v2.1l4.8,5.2ZM494.9,712.8v2.1l.5.5,3.8-.1.5-.5-1.4-1.6h-1l-1-1.1ZM241.2,672.3l-3.9-1.1-.9,1.1-2.9-1.1-.4,5.7,4.8,1V681l-1.9,2.1.1,4.1,3.3,2.5,2.4-2.5V682l3.8-5.2.1-2.1-3.4-3.6Zm336.4-386,.5-.5-.1-3.1-.4-.5h-1l-.5.5v1l-.9,1.1,1.4,1.5Zm14.3-17.6-.5.5v1.1l1.4,1.5h1.9l.5-.6-2.5-2.5Zm5.7-6.2-.9,1.1-1-1.1h-1.9l-.4,4.7,3.3,3.6,3.3-3.7-.9-1V264Zm-22.5-10.9v-1l-.5-.6h-.9l-.5.5-.1,1.1-.9,1,.5.6h.9ZM596.2,294l-.1,5.1,1.9,4.2,3.4,3.6,4.8,2.1,1.8-3.1h1l1.9,3.1h2.9l.9,1h4.8l1.4-2.6-1.9-3.1,2.9-1v-2.1l1.8-2.1-.9-2,.9-2.1-.4-4.7-3.9-1-2.8-2.1-3.3-.5,1.9-2v-6.2l-3.8-6.2,1-1v-4.1l-2.3-2.6-2.4,2.6.1,2-2.4,2.6-1.5-.6,2.9-3.1,1-5.1-3.8-.1-1,3.1-1.9,1-.9,3.1-1.5.5-.5,1.6-3.8,4.1v3.1l2.4.5.9-1.1.5.5v4.2l2,3.1-3,1,1,1v3.1ZM580,269.2l.5.6h.9l.5-.5v-1l-.5-.6h-.9l-.5.5Zm21,235.4-.5-4.7-2.4.5v5.3l1.5.5Zm-21.5-241-1-1.1h-.9l-.5.5-.1,1,1.4,1.5h1l1.4-1.5-.5-.5Zm-9.6-2.1-1-1.1-.4.6v3.1l.5.5h.9l.9,1.1h1l1.4-1.6-2.3-2.6Zm6.7,10.3.5-.5v-2.1l-.4-.5h-1.9l-.5.5v2.1l.5.6Zm16.2,1.1-.5.5v2.1l.5.5,1.5-1.5v-1.1l-.5-.5Zm-318,404.5-6.7-.1-1.4,1.6V682l-2.8,2.1,3.3,3.6h2l4.8-5.1,2.4-.5-.1-3.1Zm18.1-202.2h-5.8l-3.3-3.6-1-2,.5-1.6,7.2-2.5-1.4-2.6-1.4-.5,2-2.2-.1-3.1-2.3-.6-1,1.1h-5.8l-2.3,4.6,1,1v2.1l-3.8,4.1v2.1l2.4.5,1.9-1,1.4,1.5,1,3.1-1,1v2.1l-1.5,1.6-1.9-1-2.9,1-1.9,4.2-1-1.1H270l-.5,5.7,2.4.6,1,2h1.9l.9-1h1.9l2.9-3.1h1l1-2.1,2.8-2h2.9l1.9,3.1h.9l.5-2.5,3.8-3.1-.1-2.1,1-1ZM262.3,685.6l-1.5.5-.9,4.1-1.9,3-2.9,2.1-.9,4.1,4.3.5.9-1.1,2.9.1,2.9-2.1,2.4-.4v-4.1l-3.3-5.7Zm40.6-304.8-1.5-2.6h-3.8l-1,1-1.4-.5,2.4-2.6,3.4-1.5-.1-2.1-1.4-1.5h-3.8l-1.9,2H291l-2.4,1.6,2,3.1,1,6.2,1.4,2.5h1.9l1,1,3.8-.1,3.3-2.5-.1-4Zm-44,287.8v1l.5.6h.9l.9,1.1,1-1.1.9.1.5-.5v-3.1l-.5-.5h-1.9Zm58.9-294.5h-2.9l-1.5,1.5.1,2.1.4.5,2.9-.1,1.4-2.6v-1Zm-9.2,236.8-.1-3.1-2.4-2.5-.9-.1-1.9,2.1-.6-.5-.9-6.2-3.4-3.6-5.7,1-1.9-1-3.3,3.6v1l-4.4,3.6h-1.9l-1-1h-3.8l-.5,3.6,2.9,2.1-1,4.1,4.3,4.7h1l1.9,2.1h5.8l1.9,2.1h1l.5-2.5,1.4-.6,3.9,3.1h2.9l1,1,3.8-.1,1,1,1.5-.5.9-3.1-2.8-8.2Zm-5.2-203.8-1.4,2.6.1,3.1,3.3,3.7h1.9l1.9-3.1,3.4-.5,1-2v-3.1l-2.4-2.6Zm-93.3-77.9.9-3-1.4-1.6-2.9-1-1.4,1.5v4.1l1.5,1.5h1ZM301,415.9l-3.4-2.7-6.6.1-1-1h-3.8l-.9,1h-4.8l-2.4,2.6v2l2.4,1.6h3.8l4.3,3.6.5,2.6H291l1-1,.5.5,1.9,7.2,3.3,3.6,2.9-.1,1.5-1.5.9-7.3-2.9-3.1.9-3.1ZM112.3,263.7h-5.7l-1.5,3.6,3.4.5,2.3,2.6-.9,8.3,3.3.5,1.4-2.5-.9-4.1,1.9-4.2-1-3.1Zm30,103.8-.4-5.7H139l-.5,2.6,1.9,2,.5,1.5Zm176.4-57.4-.5.5-.1,2.1,1.5,1.5h1.9l.5-.5v-2.1l-1.5-1.6ZM181.4,344.8v-2.1l2.8-2.1.1-4.1-1.5-.6-7.6,9.3-1.5-1.6v-2.1l-2.4-1.5-6.7,6.2-3.3,1.6V355l1,1v2l1,2.1,1.9,2v1.1l1.9,2v4.1l1.9,2.1-.9,2.1.3,3.7h2.9l3.4-2.6-1.9-4.1,1.9-2.1v-4.2l1.5-2.5,1.4-.5V353l.9-1v-5.1l1.5-.5Zm52-57.4,1.5-1.5-1.4-1.5h-1l-.5.5V287l.5.5ZM121.8,313.2V307h-3.9l-.4,1.5,1.9,2.1v2.1ZM504,476.2l-1.5,1.6,1.5,1.5h1.9l.4-.5v-2.1l-.5-.5ZM117,297.8l-2.4,2.6v1l1.4,1.5h1.9l1.4-2.6v-2l-.5-.5ZM529.8,514.5l2.4-1.6.5-2.6,3.9,2.1h2.8l4.3-3.7v-8.2l-1.5-1.6L529.8,500l-2.4,1.5v2.1l.9,1.1v6.2Zm19.1,0-2.9-.1-5.2,3.7-4.8,8.2v4.2l1.4,1.5,1-1.1.5.6.5,3.6,4.3,1.5v1.1l-1.9,2.1.5,3.6,2.9-1,4.2-3.6v-3l3.4-3.7,1.4.5.5,1.6h8.6l.5-3.5-1-1.1-.9-4.1-1-1,1.9-4.2-2-3.1.1-2.1-1.5-1.5-1.9-.1-3.8-4.1-3.3,2.6ZM236.4,501.1l3.4-.5.9-6.2-3.9-1v-4.1l-2.4-3.6h-4.7l-4.4,6.7v5.1l2.4,1.5h1.9l2.9,3.1h2.8ZM562.2,385.5l-7.6-1.1-3.3,5.7v4.1l1.4,1.6h1l1.9-3.2,1.9,1,1.9-3,2.9-.1,1.4-1.5v-2Zm1.9,22.6,1,1h.9l.5-.5v-2.1l-.5-.5h-1.9l-1.5,1.5.5.5ZM520.2,515.4l-.5.5.1,2.1.4.5,1,.1.5-.6v-2.1l-.4-.5Zm14.4,21.7h2.8l.5-.5v-2.1l-.5-.5h-.9l-1,1h-.9l-.6.5v1Zm13.3-54.7.6-.5v-2.1l-.5-.5h-2l-.5.5v1l1.5,1.5.9.1Zm0-34-5.3.5,2.4,2.6h1.9l1.4-1.5ZM375.5,379.7l.1,3.1,1.4,1.5h1.9l2.5-1.5v-2.1l-1.5-1.5-3.8.1Zm-2.4-90.3.5-.6-.1-3.1-2.4-2.5h-1.9l-.5.6v3.1l2.4,2.6Zm-.5,35.6v-9.3l1.9-4.1,1.9-3.1-1-2.1,1-2.1.1-4.1-3.4-4.6-3.3.5,1-2.1v-3.1l-3.8-3.1v-2l-1.4-1.6H359l-1,1H346.5l-2.8,2.1h-2.8l-2.4,2.5v1.1l1.4,1.5,1.4.5-1,1,.1,3.1,1.4,1.5h2.9l1.4,1.5.5,6.8,3.9-.1,2.4,1.6-1.9,3.1v2l.5.6h1.9l1-1,.5.5-2,4.2v2.1l-1.9,3.1V326l1,2.1,5.3,1.5,1-1h3.8l1-1h7.6Zm-38.7,54.2-.5,3.6,1.4,1.5h4.8l.5-5.7-4.3-.5Zm51.6,84.6,1.4,1.5v6.2l.9,1-1.9,4.2,2.9,4.1-1,1v7.3l-1,1v6.3l-3.3,3.6-2.9,1-1.4,1.6.9,6.1,4.3,3.6h4.8l1-1,2.8,2.1h2.8l1.9-3.1h1l1.9-2,4.8,6.2h1.9l-.5-6.7-2.9-5.2.1-4.1h1.9l2.4,3.6,3.9,2.1,1.8,3.1,3.9,1.1,1,2h1.9l.5-2.6-2.9-3.1v-2.1l-3.9-5.2-.9-5.1-1.4-1.6-2.4-.5.5-1.6h1.9l2.9-2,1,1,2.4-.5.9-4.1,2.9-2,.5-1.6h.9l2.9,3.1h2.9l2.9-4.2,1.4-.5-.5-3.7-1.9-1h-4.8l-.9,1-1.4-1.5-.5-2.6h-1.9l-1.9,2.1h-2l-2.8,3.1h-3.8l-1.9-1-1,1h-3.8l-1,1.1h-1.9l-2.4,2.5-1.4,3.6-3.3-4.6.5-2.6h.9l2.4-2.6.5-1.5h1.9l5.3-2.6,1-2.1-1-1v-4.2l-2.4-2.6-3.9,2.1-1.9,3-2.9-2-1.5-2.6V454l-1.4-1.5h-2l-.5-1.5-2.9-2.1,1-1.1v-2.1l1.9-2v-5.2l-1.4-1.5h-1.9l-1-2h-1.9l-2.8,4.1-4.8,1-2.9,2.1h-1.9l-1.5,1.5v2.1l3.3,2.5,2.4.5-2,2v2.1l2.9,2.1-4.4.5-3.3,2.6-.9,2-.1,4.2.5.5,1-1.1h5.7l1-1,5.7-1Zm-62-171.3-7.7,1-1.9-1-1.4,1.5.9,4.2-3.8,3.1v1l3.9,1.1v2l-1,1.1,2.5,2.6,1.9,1,1-1h2l2.4-1.5-.1-4.1-1.8-3.1-.1-2.1,1.9-1.1Zm219.6,161-.5,1.6.5.5h3.8l.5-1.5-.5-.5h-3.8ZM395,381.3h-3.8l-6.7,3-2.4,3.6v6.3l1.4,1.5h.9l6.2,5.7,1.9,4.2v2l2.4,2.6h1.9l1-2.1,1.4,2.6,1,2-.9,7.3,1,2,3.8,3.1.5,1.5,3.9-2.1,2.8,2.1h1.9l.9,1.1h12.4l1,1.1h4.8l1.9,2.1,2.8-.1.5.6-1,1.1v2l1.9,1-.1,1.1-2.4,1.5-.5,1.6,4.8,3.1-1,1v2l1.4,1.5h1l3.8,3.1h1.9l1.4-2.5,1-8.3,1-2.1,1.9-1,2.4-4.6h7.7l.5,1.5-1,1v4.1l2.4,2.6h1l2,2.1,2.8-2h2.9l1.4,1.5,1,2v3.1l-1.9,2v2.1l1,1-1.5,2.6-2.5.5.5,2.5,7.2,2.6,1,3.1-2.4.5-3.3,3.6v2l.9,1.1.4,3.6,3.9-1,3.8-3.1h2.8l.5-3.6,3.3-2.6h1.9l1.4,1.5,1,2v3.1l-1.9,1-1,2.1v7.3l-1,1v3.1l1,1v4.3l1.5,2.5h6.6l1-1h3.8l1.5-1.6v-4l-.9-1.1-1-4.1-2-2v-2.1l-1.9-2,5.7-5.2-.9-1-1.5-2.6-3.8-2.1-3.4-3.6v-3.1l4.8-5.1.5-1.6h1.9l2.9-4.2,2.9,3.1h2.8l1.4-1.5-1-2.1v-4.1l-2.4-3.6-3.3-1.6-1-7.2.5-.5,1.4,1.5v2.1l1.4,2.5,4-1,3.8,3.1,1-1,.5.5-1,4.1,2,4.2v2.1l.9,1V456l-1,1.1,1,1.1v2l1.9,1v2.1l3.4.5,1.4,1.5.9,5.2-1.9,3.1,1.5,3.6h1.9l1,1h6.7l1-1,.9,1.1h3.9l.9-1,1,1,2.8-.1,1-1,1.4-.5-.4-1.5h-1l-2.8-3.1-3.4-.6,1-1-.9-1.1v-8.2l-3.9-6.2v-3.1h5.7l-3.4-4.7-2.4-.5,1.9-2v-4.2l-2.9-3.1v-2.1l-1.9-2v-1.1l-1.9-1v-1.1l2.4-.5,1.5-1.6.5-2.6,1,1.1h1.9l1.4-1.5,1-6.2,1-1-1-2.1v-4.1l1-1v-2.1l-2.4-3.6h-3.8l-1.9,2.1h-1l-2.8-7.3h-1L526,404h-1.9l-.5-1.5,1.9-1.1v-8.3l-2.3-.5-2.6-2.6,1.5-.5,1.4-2.6-5.2-6.7h-1.9l-.9,2.1h-2.9l-1.9,5.1-2.8-1-4.3-4.6v-2.1l-1.4-2.5H491.6l-1.4-4.7-1.5-1.5-1.9-1H484l-1-1-.9,1h-5.7l-1,1.1-3.8-.1-4.8,6.2h-1l.5,1.5-3.3,2.6h-2.9l-1.8-1-2.9,3.1-1-1-1,1h-1.9l-.9,1h-7.7l-1,1H438l-2.9-3.1-5.7-2.1-4.8-4.1h-2.9l-.9-1.1H409.3l-1,1-8.6,1.1-2.8,3Zm193.6,34.5-.5-2.5-4.9,1-1.9,2.1h-1l-1.9,3.1-.9-1h-3.9l-3.3,3.6v5.1l-1,1.1v2.1l4.3,3.6h1.9l2.4,1.6-1,1v3.1l3.3.5,1.5-1.6.5-3.6,1.9-1,2.9,2.1,1.5-.6.9-2v-3.1l-1-1.1,2.9-2,.1-4.2-1.9-1,1-5.1Zm-789.7,14-.5.5v1.1l1.5,1.5,1.4-1.5-1.5-1.5Zm14.4-159-2.5-1.5-.4-1.6-1.9,1-2-1-2.4,1.5v3.1l-3.4,3.6-2.8,1-1,1h-2.8l-.9,1-10.5-1-1-1-5.7-1-1-1.1h-3.8l-1,1-2.8-2h-1.9l-10.5-8.2-3.3-.6-.1-5.1-1.5-1.6-2.3,1.5-.1,2.1-2.4,2.5h-4.8l-1-1-3.8-1.1-5.7-5.1h-1l-12.9-12.9v-1.1l-1.9-2.1-1-4.1,1-1,.9-11.4,1-1.1.9-9.3,1.9-4.1V208l1-1,1-6.2,5.8-9.3.9-4.2,3.8-5.1,2.9-6.2,1.9-5.1,1.9-1v-1.1l3.3-3.6,1.5-.6v-5.2l-1-1v-3.1l-1-1v-5.2l2.9-4.2v-2l6.7-8.3v-1l2.8-2v-1.1l2.9-3.1.9-4.2,1-1v-4.3l1-1v-6.2l-.9-1V98.8l-4.6-10.3-1-1.1V76l2-4.1,1-6.2-1-1V59.5l1.9-4.1,1.9-4.2-.9-1V47.1l-6.7-8.2V37.8l-2.4-1.5-1-2.1-2.9-1-5.7-6.2-3.8-2.1-6.8-1-.9-1h-2.9l-.9,1.1H-286l-1-1h-17.2l-.9,1h-8.6V529l12.4-4.7,1.1-1.6,2.9-6.9,1.1-4.3,1.6-7.1,1.5-4.3,3.8-6.3.9-3,.2-2.6-2.2-6.1-6.7-12-1.7-2.5v-.1l-4.9-11.3-1.9-6.2-3.9-5.2v-1.1l2.4-1.5,7.2,7.7V451l2.8,2.1.1,2,2.8,3.2v2l1.9,2.1v2.1l3.1,6.5-1.5,1.4,3.8,10.5,2.5-5.1,7.4-2,.6,1.9-5.5,1.3.5,2.1-.1,5.4-2.7,7.8-6.1,8.3-1,2.1-.4,1.9.1,1.4,1.2,2.5,1,1,.8.3.4.1,3.5-.8,3.9-2.8,4.5-1.3,2.2-1.7,12.9-3.8,1,2.2,1.3-.9.1-2.7-2.8-14.6,7-4.4-.5-4.1v-4.6l-.2-.9-1-1.2-2.8-1-6.5-1.8-.5-2-3.3.4,3.9-.5.7-.7,6.7-13.7,2-3.4,2.1-1.9,1.5-.2,1,.1,1.1.3,1.6-.7,1.4-1,4.4-3.2h2.9l5.7-6.2,1.9-1,1.9,1h2.9l.5-3.6,1.9-3v-2.1l-.9-1V421l-2.9-6.2,1.9-4.2-.5-2.5-8.7,2.1-3.3-2.6-1-2.1.1-3.1-1-1.1v-3.1l-1-.9v-2.1l1-1V388l-4.8-5.1-1-2.1v-3.1l-.9-1v-5.2l1.9-4.1v-2.1l1.9-2.1,2.4-3.6h1l1.4-1.6v-2l1.9-4.1,3.4-3.6,5.7-3.1,1.9-2.1h1.9l.9-1.1h1l3.8,4.1h5.7l1-1,1.9-.1,1.9-2,2.4-.5v-1l-2.4-2.6h-1.9l-.9,1-1.5-1.5-1-2.1v-3.1l-1-1v-3.1l-5.7-6.2-.1-1-1.4-.5-3.4-4.7v-7.3l2-4.1,2.9-7.2,4.3-5.7h2.8l1.9,3.1h2.9l.9,1,1-1h4.7l1.9-2.1h1l1.3-1.5v-4.2l2.9-3.1v-1l3.4-3.6,4.3-2.6.9-3.1,2.9-2.1-1.5-2.6Zm-90.1,200.1-.2.1.4-.2Zm79-32.3v1.1l.5.5h2l.4-.5v-1.1l-1.5-1.5Zm6.2-3.6-.4,1.6,1.5,1.5h1.8l1.5-1.5-1.5-1.6Zm-2.8-17.5h-1.9l-.4.6v2l.5.5h1.9l.5-.5V418Zm-9,16,.9,1,.1,2-.9,2.1,1.4,1.6,2.4-1.6v-3.1l-2.4-2.6ZM-231.9,567l-.8-4,.8-.8,2.3-2.6.2-1.4-3.9,2.1-1.2.7,1.1-5.1.1-.4.6-.7,2.4-.8,1.6.3-.7-2.5-.3-1.1-.8-1.4-5.2-3.4,2.5-8.9-.5-1.4-33.4-5.1-8.8,2.1-2.2,1.7,1.7,7,1.2,1.7,3.6,2.9,1.9,3.5,1,9.1,1.7,22,.3.3-.1.2.2,2.8-1.1,1.7-1.6,1-.4,2.2,1.1.8.1,2.6-1,2.2.2,2.2,2,1.4,1.2.9,1.5.3,3-3.2,2.8.1,1,1h1.9l1-1.1,6.7.1,1.9-1,1.4-2.6-2.3-.5-1.4-1.5,1-1v-2.1l4.3-7.7,2.8,2,3.9-2.1,2.8.1,2.9-2.1,5.3-.5v-.6l5.9-1.2-2.1-6.8Zm14.6-143.3-1.4,1.5,1.5,1.6h1.9l.4-.5.1-2.1-.5-.5ZM-171.5,698h2l.4-1.6-2.4-.4-1-1.1h-2.8l-.5,2.6,1.5,1.5h1.9Zm74.1,100.3,1-1v-7.2l1-1.1-1-2.1-2.5-2.5-2.8,1-1.9-3.1h-3.8l-1-2.1h-2.9l-.9-1.1-1.9,1-3,4-4.7,6.3-1.4.5-1,2v7.2l-2.9,3.1v3.1l2.4,2.6h2.9l1-1h5.8l1.4-1.5.5-3.6,2.9,2,2.8.1,1-1.1h3.8l.9-1.1,2.9,5.2,1.9-.1,3.3-3.5v-3.1l-2.4-.5ZM-102.2,612l2.3,3.6,2,1h4.8l.9,3.1,2.3-1.5,1-4.2-3.3-2.5H-94l-.5-3.6-1.4-1.6h-3.9l-2.4,3.7Zm-32.5,75.2.9-1.1v-9.3l-1.4-2.6-2.4,1.6v2.1l-5.8,6.2v2.1l2.4,2.6,3.4,1.6v5.1l-1.9,3.1v3.1l1.4,1.5h2l3.3-6.7,1.9-1-.9-6.2ZM-98.9,596l1.4-1.6,1-4.2-2.4-2.6h-.9l-1.5,1.6v2l1,1-.1,2.1Zm-170,28.9,2.4-.5.8-.5.3-.8-.2-1.2-.7-1.1-1.9-1.5-3.4-4.3-1.9-4.5-.1-3.3.3-4.3,1.1-5.6,1.1-4.2-1.1-7.5-.9-32-11.8-16.3-4.8-9.8-2.1-1-21.8,10.2V564l1.9-2.1h1l.9-2h2l.9-1,1.9,1h7.7l2.8-3.2,7.7.1,1-1.3,3.1,21.1h-5.7l-1.2.8-.9,1-5.7,1.1-2.9-3.1-6.7-.1-1,1.1-5.7,1-1,1.1h0v58.3l3.8-3.6h2.8l1.9-2.1,3.8,1.1,2.9-2.1h3.7l2.9,2.1h1.9l3.9-2.1h4.8l.9,2.1,2.5.5-.1,3.1,1.5,1.6,2.8-1,2.9,2.1,2.9-3.2,1.4-.5v-3.1l1-2.1-3.4-.6-1.4-1.5v-2.1Zm87.5,202.3v3.1l1.4,1.6,2.9-.1.9-1h3.9l.9-1.1h1.9l1.4-1.5V824l-9.1-.5Zm-51.3-438.5-2.9-.1-.5,2.6,1.5,1.5h2.9l1.9-1,3.4-5.6V384l-3.3-.5Zm83.2,300-.5.6v1.1l.5.5h1.9l.4-.5v-1.1l-.5-.5Zm4.8-476.7-2.4-1.6v-4.1l3.8-3.1V197l-1.4-1.5-2.9,4.1h-1.9l-.9-1h-1.9l-2.5-2.6v-4.1l.9-1-.5-1.6-3.8,2-2,3.2-.9-1.1-3.8.1-3.9-2.1h-1l-1.9,2.1-1.9-1-1.4,1.6v7.2l-1.9,2-.1,2.1-2.4,2.6-2.8-1-1,1H-187l-1.4,1.6-1,2.1v5.1l-1.9,3.1V222l-1.9,5.1v4.1l-3.4,3.6-2.8,1-.5,2.6,1.9,3.1,1.4,5.7h1l3.1,4.2h4.7l2,2.1h2.9l2.4-2.6.9-3.1,3.4-2.6h1.9l1.9-2.1h1.9l1-1.1h1.9l1.9,3.1.9-.1,3.4-3.6,1.9-4.2v-2.1l-2.9-2V232l3.3-6.8h5.7l5.8-3.1,2.4-2.6-.9-3.1,1.9-2.1Zm-50.2-4.6,1.5.5.9,2.1,2.4-.5v-3.1l-.9-1,.9-1.1v-2.1l-1.4-1.6-2.5,1.6Zm36.3-329,.9-2.1-2.9-3-.4-1.6h-2.9l-1.9-1-1.5,1.6-.9,2v6.3l2.4,2.5ZM-308.1-230.9h3.8l1.9,2.1,12.4,7.2,1.9,2.1,5.7,3.1,7.2,8.8v1l5.3,5.8.9-.1,1,2.1h1l5.7,6.2,9.5,6.2h2.9l1,1h6.7l1,1.1,4.7-.1,1-1h19.1l1-1h9.6l4.3-3.6-.1-5.2-.9-2.1,4.3-4.6h1.9l.9-1.1,2.5-.5v-3.1l-4.3-5.7-3.4-1.6-2.3-4.6-3.9-2.1-9.6-5.2-5.3-5.6-1.8-4h-91.3v3.4h4.8Zm83.1,90.1.5-2.6-1.9-3.1-.9-4.1-3.4-.5-1.4,2.6,2.9,4.1v2.1Zm-58.3-61.1-1.4.5,2.4,3.7,2.9,2.1,2.4-.6-1.4-3.5h-1.9ZM-156.1-119h.9l.4-.5v-2l-.5-.5h-1.9l-.4.5v1Zm-153,135.5,3.8.1,1-1h10.5l.9-1.1,21,.1,1-1h8.6l1-1h5.7l3.8-2.1,5.7-1.1,3.4-4.6-1.9-3.1L-246-.9-249.8-2l-3.8-4.1-1.5-.5v-1l-4.3-4.7h-.9l-3.3-3.6,2.3-.5.5-1.5-4.8-5.2-1-3.1-1.9-2.2-2.9-6.2-3.8-5.2-1-2.1.5-1.5h1.9l1.9,2.1,4.8,2,5.7,5.2.9-.1,2.9,3.1,4.8,3.1,4.8,5.1h.9l10.6,11.5,8.1-1.6v-2l-3.9-4.2v-1l-2.9-7.2v-4.1l-2.9-5.2-20-21.8-.1-1-9.5-10.4V-71l-7.2-7.7h-.9l-1.8-2.1-1.9.1-1-1h-5.7l-4.8-4.1h-.9l-12.9-15v-1.1l-8.1-8.7h-1V17.6h3.8ZM1080.5-172.4l1.4,1.6h1.9l1.4-1.5-1.4-1.5-1.9-.1Zm15.7-57.6,1-1h1.9l.9,1h2.9l1.4-3.7,2.4-1.5.4-.2h-20.7l5,5.4ZM-310.9-216.4h1.9l1,1h3.8l1,1h5.7l.1-3.1-4.8-2.1-11.5-7.7v2.6l1.9.9,5.3,4.7-1.4.5-.9-1h-1.9l-2.9-2.1v6.3h1.9ZM-251.7-8.3l7.6,4.1h5.7l1.5-1.6v-2l-3.3-3.7h-1l-7.2-7.8v-1l-5.3-5.7-1.4-.5-.5-1.5L-267-36.3l-1.9-1-1.5,1.5,6.8,11.4v1.1L-256-14v1.1Zm23.4,44,1-1.1V27.4l-1.4-1.6h-2.9l-.9-1.1h-2.9l-1-1-2.4-.6-1.9-5.1-1.5-1.6h-1.9l-2.9-2.1h-4.8l-2.9,2h-2.9l-1.9,2.1h-1.9l-1.5,2.7,1.5,2.6,1-.1,1.9,2.1h1l1.9,2,4.8,2.2,4.3,4.6,3.9,6.2v1.1l3.3,3.6h2.8l1.9-2.1h1.9l4.3-2.5.1-5.1ZM-287.1-91l-3.8-3.1-1.9-1-1.5,1.6v2.1l1.9,3.1,7.2,5.7h2.9l1.4-1.5-2-4.2-2.4-2.6Zm54.5,43.4-1-1.1h-2.9l-.5,1.6,3.4,4.7,8.6,1,3.3-1.5V-45l-2.5-.5-.9-1.1Zm-79.3-142.9.9-1.1,8.6-1,1-1h2.8l1-1h15.3l.5-1.6-1.5-.4-5.7-8.3-9.5-4.1h-15.3v18.6h0Zm7.7,80.8,7.6,4.1,5.7,5.1,3.8,2.1,1.4,2.6,8.1,7.8.9-.1,10.5,10.4,5.8,3.1,8.6,8.3h1l2.9,3.1,4.8,3.1,6.7,9.3h2.8l1,1.1h7.7l3.9,2.1h3.8l3.8-3,3.8-.1,3.4-5.6v-2.1l1.9-2.1v-3.1l.9-1v-7.2l-1-1-.9-16.6-2.9-6.2v-6.3l-2.9-6.2-9-7.8H-222l-.9-1.1-3.9-1-.4-1.6-1.5-.5-5.2-5.7v-2.1l-8.6-10.4v-1l-8.6-9.3-1-2.1v-3l1.5-.6,1.4,4.7,1.5,1.5,1.4-1.6v-4.1l-1-1,.1-4.1-1.5-.5-.9,1.1-1.4-.6,1.9-4.1-5.3-4.7h-.9l-14-15.2v-1l-1.5-.5-3.8-4.1-1.9-1h-4.8l-.9-1-16.3-.1-.9,1.1h-2.9l-.9,1.1-4.8,1-1,1.1-4.8.7v68.3l6.7,4.5Zm65.9,224.5-.5,5.7-2,4.1.1,5.2,3.4,2.6,2.9-3.1,4.3-2.6.9-4.2-3.3-.5-1.5-1.6v-2l-1.9-2.1v-1.1ZM12.4,516v-2l-.5-.6H10l-.5.6v2.1l.5.5h1.9ZM53,52.8l-.5,2.5,1,2.1-.9,1.1.9,2.1,1.5.5L56.9,58l3.3-1.6V54.3Zm73.1,531.3v-2l-1.5-1.6h-1.9l-1.9-3.1-1,1-2.8-.1-1,2.1h-2l-1.4,1.6v5.1l-2.8,4.1v3.1l1.4,1.5h2.9l1,1.1,3.8-.1,3.8-3.1,2.4-1.5v-2.1l1.5-1.5,2.4-.5V586ZM59.4,740.7l-.1-1-1.4-1.6-9.6,1-1.4-1.5-.1-3.1-1-3,1-3.1-1.4-1.6H41.6l-2.4,1.5v4.2l1,1.9-.9,12.4.9,2.1,12,.4,1.9-1,1.4-1.5v-2.1l2.4-3.5Zm43.2-147.8-.4-2.7-3.3-2.5-2.4,2.6-.4,2.6-1-1.1-1.9,1-1-1-1.4.6v3.1l2.4,3.5H95l1-1h1.9l1,1h4.8l2.4-3.6-1.5-2.5ZM-92.7,564.6l5.3-.6.9,1.1,6.8-6.3h1.9l.4-2.5-2.4-1.6-2.9,2.1-1.9-1h-7.7l-.4,2.6,1,.9-1,1.1ZM58.8,113.9l1.4-.6-.1-2.1-2.3-2.6-1.5,1.6v2.1l1.5.5ZM54.9,587.8l2.4-1.6.1-7.2L56,577.4l-1.5.6v6.2l-1,2Zm3.8-116.6h1.9l1.5-1.5v-2.1l-1.4-1.5-2.9-.1-.5,2.6,1,1Zm.7,273.6v2.1l.5.5h4.8l.5-2.5-4.3-1.7Zm106.8-62.7.1-4.1-5.3-.5-1-1.1h-4.8l-1-2-3.4.5.1,4.2-1.9,2.1v6.2l-1,2,3.3,3.6h1l1.4-1.5.5-1.6,1.9,1.1,1.9-1,.9-2.1,5.8,1,1,1h1.9l1.4-1.5v-3.1ZM156.1,543.4l-.4.5v2l.6.5h2.8l.5-.5v-3.1l-.5-.5h-1l-.9,1.1Zm-23.9-17.5,3.3-2.7-1.4-2.6-3.8,1.1-1.4,1.5,2.4,2.6Zm30.1-9.9v-2l-1.5-.5-.9-1.1h-2l-.4.5V515l2.4,2.6ZM148,685.2v-2.1l-1.4-1.6-7.7,2.1-3.4,4.6v5.2l3.4.5,7.2-5.7-.1-1.1Zm-12.3-165v1l1.4,1.6H139l.4-.6v-1l-1.4-1.5h-1.9Zm3.2,20.1h3.8l1,1,1.9-2.1,2,1,2.4-2.6v-2.1l-2.8-3.1,1.4-1.6h2.9l.5-2.5-3.3-2.6h-4.8l-1.4,1.5,1,4.1-2.5.7-1.9,2-1-1h-2.9l-3.8,2-.5,4.6,2.4,2.6h1.9l1,1Zm11.5-22.7,1-3,3.3-.6.1-3-2.5-.5-.9-2h-4.9l-1.9-1.1-2.8-4.1h-2.9l-1.4,2.6.1,3,.9,1.1-1,4.1,1.5,1.6h1.9l1.4-1.5.5-2.6h1.9l1.4,1.5-.1,3.1ZM64.5,114.8l-.5.6v3l.5.5h.9l1.5-1.6v-2.1l-.5-.5ZM-49.1,801.9H-52l-1.9,1,.5-2.7-2.4-2.5-1.9-1h-2.9l-1-1-4.8-1-5.7-4.2h-2l-.9-1.1-11.5,6.2-3.4,3.6v2.1l1.4,1.5.9-1,3.3.6-.5,1.1-3.3,8.1v3.1l1.4,2.6,1.9-1,.9,1,6.3.5-1.5,2.5-3.3,2.5-.1,3.1-1.9,4.2.5,1.6,3.9,1,.9-1h4.8l2.9-4.1,2.8.1,1,1,4.8-.1,5.7-5,1-.1,1.7-1.9,1.6-1.7,1.9-6.1,3.8-4.2-.1-5.1ZM-67.3,534.2l.9-2.1h1.9l1.4-2.6-1.3-1.5-5.8-1-2.4,2.6v2.1l3.4,2.6h1.9ZM-83.6,724.8l2.8-2.1,3.8-1.1,3.8-4,1-.1,3.3-3.6v-2l-1-1.1-2.3-3.6-1.9-1h-3.8l-2.9,2.1h-2l-.9,1-1.4-.5,2.4-3.6,2.8-1,2.4-2.6.1-3.1-1.4-2.6h-9.6l-1,1h-2.9l-1.9,2.1H-100l-1-2.1h-1.9l-1.4,1.6v2l-3.9,4.2v3.1l1.4,2.6,3.8,2,2.9.1,1.4,1.5.5,10.8,1.9-1,4.8-.1,1-1,2.8,2.1h4.1Zm69.3,14.9-3.3-.6-1.9-2-1.9,1h-2.9l-1-1.1-3.2,1.6-.1,3.1,1,1-.5,1.5h-4.8l-4.8-3.2-2.8.1-.5,3.6-2.4.4-2.4-3.6-.4-2.6-3.8.1-.5,2.5,1.9,3.1-3.3.5-1.9-1-1.4,1.6v2l1,1.1v3.1l2.3,2.5H-49l3.3,3.7.1,2.1,1,1v4.1l1.4,2.6h3.8l1-1,1.4,1.5v2.1l1.9,2-1,6.2,1.5,1.5h2.9l1.9,2,3.8-1.1.4-3.6,1-1v-5.2l-1-1,.5-.6,1.9,2.1h2.8l.5-2.5,1.4-2.6,2.8-1,1.5-1.6V757l-2.9-3.1.5-.5,3.8-.1.5-3.5.9-1v-2.1l-2.8-2.1ZM-30.1,592.9l.5-1.6,2.9-3.1v-4.1l-1.5-.5-1.9,2.1h-1l-.9,2.1-1.4.4v2.1l1.4,2.6ZM72.1,106.6l1.4-1.5.1-2.1-3.3-4.7h-1l-2.9-3h-1l-3.8-4.1H58.7l-.5,1.5,1,1.1v3.1l5.7,4.1,3.3,5.7,3.9-.1ZM-93.6,574.8v1.1l.5.5.9-.1.5-.5-1.5-1.5Zm-13.8,103.7-3.8,1-.5,2.7,1.5,4.6h2.8l1.9-1,1.4-1.5.9-4.2,1.9-2-.9-2.1-3.4-.5Zm-3.4,11.8v3.1l1.5,1.6h.9l1.4-1.5.1-4.2-1.5-1.5ZM25.3,537.2h2.8l1.5-1.6L28.2,533l-2.3-.5-.1-3.1-2.4-6.7h-1l-1.9,2.1-1.5-.5.1-3.1.9-1-.5-4.7-7.2,3.6v3.1l1,1-1.5,2.6-1.4.5v1.1l.5.5h1.9l1,1h1.9l2-1ZM29.1,730l-.9,1H26.3l-3.9-6.2H19.5l-2.4,2.5v3.1l1.4,1.6h3.9l.5,2.4,1.5,1.6h2.9l1.4-1.5,2.3-.3,2.4-2.6-.5-1.5-3.8-.1ZM40.6,585.7h2.9l2.4-1.6V581l4.7-8.3,1.4-.5,3.4-3.6v-1.1l-1.4-.4-1.4-1.6v-5.2l-3.8-3.1v-2.1l-1.4-1.5-5.7,1-2.5,2.6v2.1l-1.9,2.1v6.2l-2.4,1.5-1-1H32l-1.5,1.6-.1,2.1,3.8,3.1,1.5,8.8,3.8,1Zm2.3-44.9-1.3-1.6-1.9,2.1-1.9-1H34.9l-1.4,1.6v2l3.8,4.2v4.1l2.4.5,2.4-2.6L42,548l-1-1,1.9-3.1ZM218.7,661.4l-.5-4.6h-5.7l-.5,2.6.9,1v4.2l2.4.4,1.9,3.1h1.9l.9-1,1,1,3.4-.5-1-4.1ZM3.4,223.4l1,1.1,2.8-.1,5.3,4.7.9,3.1,1.5,1.5,2.8,1,1.9,2.1,5.8,1,.9,1H30l1,1,6.7.1.4-4.6-2.3-5.6-2.9-1.1L30.6,226l-1-2.1v-5.1l-4.3-5.7H23.4l-.9,1H14.8l-1.4-1.6v-3.1l-3.3-.5-1.5,1.6v5.2l-1.4,1.5-3.9-1.1L1.4,213l-4.8,3.1-1.4,1.5.1,1.1,1,1v1l.5.6h.9l3.9,2.1ZM7.7,756.2l-2.4-2.6-1.9.1-4.3,3.5v2.1l1,1v4.1l2.4.5,1.4-1.5v-2l3.9-3.1Zm396-417.3,2.8-1,4.8,6.2h1.9l2.4-3.6v-2.1l2.9-2.1-.1-2.1-1.4-1.5-2.8,2.1-2.9-.1-2-1-1.9-3-2.9-.1-1.9,3.2-4.8,1-.5,2.5,1.4,2.6h3.8ZM855-98.9l-.4-2.5-4.8-.1-.5,1.6,1.5,1.6h3.8ZM707.9,196.9V198l.4.5h1.9l.6-.5v-1l-.5-.5h-1.9Zm2.9-2.1v-2l-.5-.6h-1l-.4.5v2.1l.5.6h1Zm-10-18-1.5,1.5,1.4,1.6h.9l1.5-1.5v-1.1l-.4-.5Zm-28.7-43.5-.5,1.6,2.3,2.5h1.9l.5-.5v-2.1l-2.4-1.5ZM848.8-97.4l-.5.5,2.4,2.6.5-.5v-2.1l-.5-.5ZM846-95.3h1l.5-.5V-100l-2.4-.4-1,1-.9-.1-.5,2.7,2.4,2.6Zm7.6-14.5h-1.9l-.5,2.6-3.9,3,.1,2.1.4.5,1-1.1,5.8-1,1.4-3.6Zm-9.5,6.2,1.5-1.6v-1l-1.4-1.6h-1.9l-.4.5v2.1l1.4,1.5h.8ZM584.2,71.3l1,1.1h1.9l3.8-3.1,1,.1,1.4,1.5L590.5,73l.4,1.5h4.8l1.9,1,1.5-2.6V69.8l-1.4-1.6h-2.9L592,65.1h-1l-1.4-1.5V60.5l-2.4-.5-1.5-1.6V56.3l1.4-1.5h4.8l3.8,4.1h1.9l4.8-4.1,4.7,1,1-2.1H610l1.4-1.6L610,50.6l-1.9,1.1-1-1.1h-7.6l-1-1-1,1h-6.7l-1-1-.9,1-1-1-2.8.1-.9-4.2h-4.8l-.4,5.7,1.4.5,1.5,2.6h-4.8v3.1l2.4,2.5,3.8,2.1,1.4,3.6-1.4.5-1-2-3.8,1-1.4,1.5v2.1l-1.9,2.1,1.4,1.5h6.7Zm11.5,40.4-.5.5v1l.5.5h1.9l.5-.5v-1.1l-.4-.5Zm-14.4-11.5-.5.5v1l.5.6h1l.5-.5v-1l-.5-.6Zm19.1,3.1,1,2.1h1.9l2.8-4.1H608l3.9-2.1.5-1.5,3.8-4.1V91.5l-4.3-.5-.5-4.8-7.2-4.7h-1.9l-1.4,2.7,1.9,1v6.2l-1.9,2v1.1l-4.7,4.1-.5,1.5-1.9-2h-5.7l-1-1-1.4,1.5v2.1l2.9,2.1-1,3.1,2.4,2.7,2-1.1h3.8l2.8-4.1Zm57.4,16.6.9-1.1h2.8l.5-4.7,3.8-4.1v-1l-2.3-.5-1-1.1-4.8,1-1.5,1.6v2l-1.9,1v2.1l1.9,1-.1,2.1Zm-39.6-46-.1-3.1-1.8-1-.5-2.6H614l-1.5,1.5v4.1l.9,1.1-2.3,3.6h-1L607.8,75l-1.4-3.8-3.8-1L601,77l2.3,2.6,8.7,4.1,1.8,2.1h2.8l.5-4.7-.9-1V75.9Zm40.1,81.6.9,2.1,3.3.4,3.3-3.5v-4.2l2.9-2v-2.1l.9-1.1-.9-3-1.5-.6-2.3-1.5v-2.1l1.9-2.1v-2l-1.4-1.5h-1.9l-1.9-2.2-3.8,1-2.9,4.2-2.4,1.5,1.5,2.6h.9l1.4,1.5V144l1,1v4.2h2.8l-1.9,3.1v3.2ZM625.3,61l-.5,1.5,1.5,2.6h2.8l.5-.5V63.5l-1.4-2.6Zm258-193.6-1.5,1.6v1l.4.5h2.9l.5-.5v-1.1l-.4-.5h-1Zm-24.9,26-.5.5v2.1l1.4,1.6h.9l.5-.5V-105l-1.4-1.6Zm90.3,1.4v-2.1l-.4-.5h-1l-2.4,2.6,1.4,1.5h1Zm-6.2,1.7-.5,3.6-2.4,1.5-3.3,4.6-.1,5.2,5.3.5,1-2h1.9l1.4-1.5.9-4.2,2.4-.5,2.4-2.6V-100l-3.3-.4-3.8-3.1ZM914.8-145h.9l1-1h1.9l3.8,2.1,2.9-2h1.9l.5-2.6,2.8-2.3v-3.1l-4.3-.5-1,1h-2.8l-1,1-3.8.1-1.9,1-2.5,2.6v1l1,1.1v1Zm13.8,5.7.4.5h2l1.4-1.6-.4-.5h-2.9l-.5.6v1Zm-1063.3-96v5l-5.8,11.4-2.9,3.1-.9,3.1,1.9,3.1-2.9,2.1v3l1.9,2.1.1,1.1,3.8,4.1,1,5.1,1.4,1.6h4.8l1.9,2.1,3.9-.1,5.7-3.1h3.9l.9-1,7.7-2,1.9-2.1h1.9l.9-1,13.4-1,7.1-6.7v-6.2l1.5-.6,3.3-3.6-.1-1.1,3.4-2.6,8.6,5.1,5.7,1,3.8,3.1,3.8,1.1,3.8,4.1h4.8l1.9-1,3.8,4.1,4.8-.1.9,1.1h3.8l1.9.9,3.3,4.7,2.4,3.7h1.9l2.9-3.1,3.8-.1,3.8-2.1,3.9-2.1,2.8.1.5.5-2.4,2.6-12.4,5.2-1,1.1-3.8,1L-25-184v14.5l1,1v3.1l1.4,1.5h1.9l1-1,2.4,1.6-1.9,4.1v4.1l-1,1v17.6l4.7,10.4v2.1l2.8,4.2,3.9,9.2,4.8,6.3v1l3.8,5.1L4.7-87.8l8.6,11.3v1.1l3.9,4.1,1.4,3.7,2.8,1L22.9-65l4.9,10.3v1l3.8,4.1.9,3.1,2.9,3.1.9,3.1,1.9,2.1,1.9,6.1,6.6,8.3v2.1l1,1v4.1l4.8,6.3v4.1l1,1v2.1l2.8,2L62,10.4l2,2.1.9,4.1,1.4.5L72,24.4l2.9,1,.4,1.6,2.4,1.5.5,1.6,1.5.5,1.4,2.6v7.2L84.4,43h1.9l1.9,2.1,2.4-1.5V40.4L92,36.8,97.8,43h2.8l1-1.1,1.9,1.1,1,2.1h1.9l.9-1.1,1.9,2.1h3.9l1.9,2h1.9l6.2,4.6,2.9,5.2,5.8,6.2v3.1l3.8,1.1v3.1l2.8,3.2-1,1.1.9,3.1-.9,1,.1,8.3-3,5.1-5.1,5.6h-1.9l-2.4,2.6-.9,4.1-3.8,4.2.1,1-8.2,7.9h-9.6l-2-1-2.4,2.6-.9,3.1-1,1v2.1l3.8,5.2v3.1l-1,2.1,1.9,3v3.1l1.4,1.6,2.5-1.6.5-1.6h2.9l7.1,3.6.9,3.2-2.8,4.1v3l1.4.6,1,1.1,3.8-4.2h4.8l.9-1h2.9l1.8-3.1,3.8.1,5.8-5.2h.9l2.4-2.6-.9-4.1,6.2-5.7,8.6,1,2,1.1,1.9-2.1.4,2.6,4.3,2.6h1.9l1.9-3h2l1.4-2.6-1.4-1.5-5.2-.6-.1-5.2-2.8-6.2V96.6l.9-1V82.2l7.2-7.8,7.6,2.1,1.9,2.1h1.9l3.3,3.6.5,1.6h5.7l.4-1.6,4.3-4.7,2.8.1,3.8-3.1h9.6l4.9,3.1,6.6.1,1.9,3.1h6.7l1-1H240l3.8,4.1h2.9l.9,1,1.1-1,.9-2.2h1.9l.9,1h1.9l6.7,3.1h2l1,1.1h4.7l1,1h6.7l4.3,3.6,2,4.2,2.9,3.1.4,1.6h1l.9-1h2.9l2.8-3.1h3.8v2.1h-2.9l-1.4,1.5.9,1,.1,3.1,1.4,1.5,2.9,1,.9,1h1.9l1,1.1,2.8-.1,1,1,1-1h2.8l1.4-1.5,1.9-5.2,1-3.1,5.3-5.7,3.9-2.1,4.7-1,1-1h1.9l5.7,4.1h1.9l3.8-3.1.4.5V92h0v.5l-2.4,3L335.8,97l-4.2-3.3-4.6.2-3.8,1.2-2.8,3.1h-1l-2.4,3.6-1,5.2-3.3,3.6-2.4,1.6-3.4.9-4.6-1.5-1-1-7.6-.1-5.7,5.2-2.9,1-4.4,4.7-.9,4.1,1,1.1,1,6.2,2,2v3.1l-1,1V143l1,1.1-1,1-.5,5.7-1.5-7.8-2.6-2.5h-1.9l-3.8,3.1-6.7,3.1-1.9,2.1h-4.8l-.5-5.7.9-1v-5.2l4.8-6.2-1.4-2.6H260l-1,1h-5.7l-.9-1h-2.9l-.9,2.1h-3l-3.4,2.6-2.8,7.2-3.3,5.7h-1l-3.8,4.1h-1l-5.2,5.7v1l-4.7,7.2-1,4.1-4.3,4.7-15.2,7.2H196l-2.4,2.6.1,1-8.7,9.3-1.9,9.2-4.3,3.6h-.9l-2.4,2.6-.5,4.6-5.7,3.1h-4.8l-1,1.1-5.7-.1-.9,1.1-1.9-1h-3.8l-1,1h-1.9l-3.4,3.6v2l-2.3,3.6-1.9,1h-3.8l-2.4,2.6-.1,3.1,3.3,2.6h4.8l5.3,4.6.9,2.1-1,1,.1,4.1,2.3,3.6h1l2.4,2.6v2.1l1,1.1v7.2l-1.9,2.1-.1,3.1,4.8,5.2.5,1.6,3.8,2.1h8.6l1,1.1,4.8,1,3.8,3,1.9.1,1.9,1,1.9-1,1.9-3.1,6.7-3.1,1.9-2,5.3-.5v-2.1l4.8-5.2v-5l1.9-2v-1l3.3-3.6,1.4-.6v-3l-.9-1,.4-3.6,1,1,7.1.5v2.1l2.8,3.1V259l-.9,1.1-.9,2-.2,4.2,1,.9v2.1l2.3,2.5,1.9.1,4.8,4.1h4.8l2.3,2.5-1.3,2.7h-1l-1.4,1.5,1.4,2.6,4.7,1.1,1-1,1.9,2,2.9.1,1,1,1.1-1.2,1-2.1h2.8l3.8-3H258l1.4,1.6.5,2.5,3.8-2.1,4.3,1.5v3.1l2.4,4.6,5.7-.1.9,1.1h5.7l1-1.1h3.8l2.9-2h1.9l6.7-4.2h5.7l1-1,1.9-.1,7.6-6.2h1.9l5.7,3.1,1,1.1,5.8-1,1.9-3.2,1.9-1h5.8l.9-2.1,5.7,3.2,2.8-.1,1-1h5.7l1-1.1,6.7-1,3.8-4.1,6.7,1,4.3,5.7v3.1l-2.8,3,4.8,6.2v3.1l1,2-1,2,1,2.1,1.4,1.5h1.9l1.9-3.2,2.4-1.5.5-2.6h1.9l.5,2.5-1,1v4.2h-.9l-1.5-2.7-1.6,2.8,2.4,4.6,4.8,1.1,6.7,8.2h2.9l2.8-5.2.5,2.6-2,4.1,2.4,1.5,1.9-.1,1,1.1h8.5l2-1.1,1.9,2.1h1l9,8.8-1,1.1v6.2l1.4,2.6,1-1,3.8-.1,1.5,2.6v5.2l.9,2-2.8,2.1v2l.9,1.1,3.3,16h8.6l2.9-4.2.9.1,1-2.1h1.9l2.4-1.5.1-4.1,1.4-2.6,7.6,4.2,1.5-1.6V356l1-1v-4.1l-1.4-1.6-2.4-.5v-3.1l1.5-.5,3.3-3.6v-2.1l2.4-1.5,6.7,7.3h1l13.4,13.4,2.4-3.6-4.3-5.7h-2.8l-2-3.1h-.9L474,332.2l1.4-.5,3.8,4.1,1.4-2.6-.1-3.1-1-1,.5-1.6h7.7l3.4,2.6-.5,6.7-2.4-1.5v-3.1l-1.4-.5-.5,2.5-2.9,3.1v2.1l3.4,3.6h.9l2.8,3.1,3.9-2.1,1,2.1h1l6.2,6.7.5,1.5,1,.1,3.3,3.5,4.3,7.8,1.9-1.1,4.3.5v1l-2.9,2.1,1,2v1.1l1.9,1,.5,1.5,2.3.5.5,4.7,1.9,1h2.8l1,1,2.4-1.6v-1L540.8,365l.9-2.1V360l-1.9-4.1-2-1,1.5-.5,2.4-2.6.9-3.1,1.9-2-1-11.4-3.3-3.6h-1l-1.9,2.1-.5-2.6,1.5-1.6H544l1.9,1,.5,2.5,2,3.2v2l2.3,2.7,2.8-.1.5-2.5,1.5-1.5.4,1.6,1.9,1-1.9,2-.4,2.6h-1.9l-1.5,1.6v6.2l1.9,1-.1,1,1.9,1,1,2.1v3.1l1,2.1,2.4,2.5,2.4.5v2.1l1,1v3.1l1,1.1-.9,7.2,1.4,2.6H568l.5,2.6,1,1-4.8,4.1,1,11.4,1.4,2.6,2.9-.1.9-2.1,1.5-.5.5-3.6.9,1.1,6.7,1,.5,2.5,1.4,1.5h2.9l1.9,1,2.9,7.2H592l1.4-1.6v-5.1l1.4-.5,2.9,2.1,2.4-1.5.9-3.1-1.5-3.6-3.8,2-1.4-.5V394l-.9-1-.1-3.1,2-2.1-1.5-2.5h-1.9l-2.5,2.7-.9,3.1-3.3,3.6-1.5-.5,2.4-3.6,1.4-.5V388l-6.2-.5-.9-1L579,386l-.1-3.1,2-1v-2.1l-2-3.1,3.3-2.5h1.9l.5,1.5,3.3,2.6h6.7l3.8-4.1,4.8-2.1,1.4-1.6.1-5.1,1.9-1-2.9-4.1V358l-5.8-6.2v-2.1l-1.4-1.5h-1.9l-1,1.1H590l-3.4,3.6.1,2.1-1.5.5-1.4-2.6-1.9-1,1.9-1v-3.2l-.9-1v-2.1l-1.9-1-.5-8.7h-1.9l-1,1.1-5.7-1.1L569,337h-2l-1-2.1-3.8-1-1.5-1.6.1-7.2-2.9-5.2.1-2.1-2.2-1.5-1.5-2.6v-6.2l1-1v-3.2l1.9-3.1-1.5-1.6h-2l-.9,1-1.4-1.5V296l-4.2-3.6h-1l-1.9,3.1h-5.7l-.5-1.5,4.8-3.1,1-3.1,3.8-4.1v-4l1.5-.5.9,1.1,1.5-1.6.5-3.5,4.2,3.5.1,2.1.9,1-1,1v3.1l-3.8,3.1.5,3.6,1.9-1.1,3.8,1.1,1.3,4.7,3.4,3.6,2.3-1.5V296l2-1-1-2,1-1.1v-4.1l-4.8-2v-2.1l-2.9-6.2,1.9-4.2-.1-6.2-3.4-2.7-2.4-.5,1.5-1.6h1.9l.4-1.6,3.8-4.1v-2.1l1.9-2,1-4.2,1.4-1.5,1,1h1.9l.5-1.5,2.4-1.6h2.9l2.4,3.6,3.3,4.7h3.8l1.8-3.1.5,2.6,1.9,2,.5,3.7h1.9l1.5-1.5v-2.1l.5-.6,2.9,4.1h1.9l.9-1.1,2.9.1.5-2.6-.9-1v-2.1l2.4-3.6h1.9l.9-1H611l3.8-2.1,1.4.5-.5,1.6-3.3,1.6v3.1l1.9,1-1,8.3,1.5.5,2.8-2,.5,1.6,2.4,2.6,7.6,4.1,3.8-2.1.5,1.6,3.4,2.6h2.8l1-2.1,1.9,1L643,267l-2.9-6.1-1.9-1,.5-3.7,2.9,2.1h1.9l.9,3.1,3.4.5V265l4.3,3.6H654l.9,1h4.8l1-3.1,1.4,2.5-1,1.1v3l3.4,3.6,5.8,1,1.9,2h1.9l1.9,3.1h2.9l.9,1h4.8l1.4-1.5v-2.1l-2.4-2.6-4.2-2.5-.1-3.1-1-1,2.4-2.6,1.9,2.1h1.9l1.9-2,1.5,1.5-.1,3.1,2.9,6.2,1.5,1.5H695l2.4-2.6v-3.1l-1.4-2.5-1.5-.5-1.9-4.2,4.8-1-1-11.4-.9-1v-3.1l-1.4-.6-1.9-2.1h-1.9l-1,2.1-.9-2.1-2.4-1.5-1-3.1-4.3-4.6h-2.8l-2.9,5.2-1.4-.6,1-1V240l-2.9-2.1,3.3-.6,3.3-2.5v-8.3l2.4-1.5,1,2.1h.9l1.5-1.6-1.9-3.1.9-4.2,1.5-1.6,3.8.1,2.9-4.2h1.9l.9,1.1h4.8l2.3,5.6,1.5,1.6h1l2.8,3.1,1-1.1h1.9l1.9,1,2.3-2.6-1-2V216l-1.9-1-.5-2.6-4.8-2.1-1.4-1.6.1-5.2-1-1V201l2.9-2.1,1.9-5.1-1.4-1.6-2.9.1-.9,1-2.9-4.1-.9,1-.5-.5-.5-3.6h-1l-2.8,3.1-5.8,1.1-1.9,2h-3.8l-3.8-3.1-3.8,1.1-.9,2-2.4-.4v-4.2l-1-1v-2l-1.9-4.2,1.5-1.6,2.4-.5v-8.3l-2.3-1.5-2.9-4.1-1.9-1-4.3.5v6.2l1,1-.1,2.1-4.2.5-2.9,2-1-1-2.4.5v3.1l1,2.1,1.5,2.6,1.4.6v3.1l-.9,1,.9,1-.9,1V196l-1,1-.1,2.1,1,1-1,1.1-.1,2.1,2,3.1v1l-2,1.2,1,1-.5,1.6h-1.9l-.9-1.1-1.9,1-2.4-1.5,1.4-2.6,2.4-.5v-2l-1.9-2.1v-4.1l-1.9-3.1v-4.1l-1.5-1.6h-1.9l-3.3,3.6v5.2l-1.4,1.5-1-1-2.3.6,1.9,3.1-5.3,1.6-.5-1.6,2.9-2.1v-5.1l-1-2.1-2.9-3.1,1.4-1.6h5.7l2.3-2.6.1-5.1-1.4-1.6-2.4-.4,1-1.1-1.9-7.2,1.9-3.1v-5.2l1.5-.5,2.8,2.1h2.9l2.3-1.5v-4.1l-3.8-6.3v-5.1l-1-1.1-1-4.1-1.4-1.6-1.4.5v1l-2.9,3.3v4.1l.9,1.1-.9,1v4.1l-1.9,2.1,1,1-1.5,1.5-1.9,1-3.8-1.1-3.9,3.1-.5-.5,1.9-4.2.9-5.1,2.4-.6.5-1.6-2.4-3.6h-1.9l-1,2.1h-2.8l-.5-1.6-.9-1,.9-2.2-1.8-5.1-2.5-.6-.4,2.6-1.4,1.6-3.8-.1-4.8,6.2h-1.9l-6.3,5.6-1,5.2-1.9,1,1,1.1v6.2l-2.4,2.6-2-3.2-1,1.1h-3.8l-1-2-2.8-.1-.5,8.8-.5.5-1.4-1.5v-1l-2.3-1.6h-1.9l-7,6.7-.4,2.6-1-.1-1.5,1.6.5,3.6h1l1.9-2,1,1h1.9l.5,1.6-1.9,2v2.1l2.9,5.2v4.1l2.4,2.6,3.3.5v1l-6.2,5.7-2.9,1-6.3,4.6-.5,8.8-1.4-3.6-5.7-6.2v-1l2.9-2.1V201l-1-1v-2.1l-2.3-2.6H550l-2.9,2.1h-3.8l-1,1-1.9-3.1h-2.9l-1.9,2.1h-3.8l-1.9,2-.5-2.6,2.4-.6,1.5-1.5-.5-1.6H529l-3.8-2.1-2,1h-2.9l-.5,2.6,1.9,3.1-3.4,3.7-2.4.4-1.9,9.3-3.4,1.6-.5,2.6-2.8,2.2,1.9,3.1-3.9,3.1-1,4.2-1.9,1,.1,3-1.5,1.5-2.9.1-1.9,2.1-2.9,1-.9,2.1-1.5.6-3.8,9.3.9,1,1.9,4.2L487,259l-.5,2.6-5.7-1-1.4-1.6-.5-2.6H477l-1,1.1h-1.9l-1.4,2.6-4.3,3.6-1.4-.5,3.8-4.1,1-6.2,2.9-5.2,5.7-6.2,1-3.1,6.2-6.7h.9l3.3-2.6-1-2,.1-5.2,1.9-1,1-2.1v-7.3l-3.8-4.1-.5-1.6-1.9-1h-5.7l-1-1.1-2.4-.5V195l-2.4-2.7-1.9.1-2.9-3.1h-4.7l-1,1.1-1.9-1-3.8-3.1-3.9-1-2.4-2.6,1-1-1.3-1.6h-6.7l-4.7-4.1H440l-.5-1.6,1.5-3.6,1.9,1,1-2.1,4.8,1,1-1.1h1.9l1,1.1h1.9l.5-4.7,3.3-.5,4.8-4.1,6.7,2.1,1,1h1.9l1.9,3.1h2.9l1.9-2.1h3.8l1.9,2.1,1.9,1,1.9-1,.9,1h1.9l1.5,1.6-2.1,5.3-1.9,2,1.5,1.6h1.9l1-1,1.9,3.1h1l1.9-3.1,1.9,1,2-1,.5-1.6-1.5-1.5-3.8-1.1-2.4-5.6-1.5-1.6h-1.9l-3.3-2.6,1.9-11.4,2.9-2.1.5-1.6h.9l2.4,2.6,1.5,3.6,1.9-1h3.8l2.8-3.1,6.7-2.1.5,1.5-1,2.1,2.4,2.6,3.4-2.6.9-4.1,2.9-3.1.9-3.1,3.8-4.2v-2l1-1.1-.1-6.2-1.9-3.2v-3.1l-1-1,.5-2.6,2.4,3.6.5,2.6,4.8,2.1,1.9,2h2.9l.9,1h1.9l3.8,2.1h2.8l.9,4.1h1.9l2.4-2.6v-3.1l2.4-2.6h1.8l1-1,1,1,2.9-.1,5.7-3.1,5.3.5-1.4,2.6-1.5.5,1.5,5.7h1.9l2.9-5.2,2.4,1.5-1,3.1-1.9,2.1v2.1l-4.7,3.1-.5,2.6h-5.7l-1.9,3.2-1-1.1h-3.8l-1.8-1-2,3.1-4.7-.1-1.9,3.2-1.4.5v2.1l-2,3.1,1.4,1.6H548l1-1.1,1.4.6-7.1,8.8-2.4-.6,1-1-1.5-1.6h-2.8l-6.1,6.7V173l-1,1,.5,2.6h1.9l.5-2.6,2.3-1.6h6.7l2.8-2.1,1,.1,2.4-2.6,1-3.1,5.3-5.6,4.7-3.1,3.8-1,.1-2.1-3.9,2.1h-3.8v-2.1l2.8,1,3.8-3.1h6.7l.9-1h1.9l2.9-2h1.9l2-2.1,1.9,1,1.9-2,2.9-1,1.9-3.1.9,1,1-1,5.7-1,5.7-4.2,1.4-1.5v-2.1l-1.9-1,1.5-1.6h1.9l1.8-2.1,1,3.1L612,125h.9l8.6-11.4h1.9l2.8-3.1h1.9l5.1-3.6.1-5.2-2.4-2.6-5.7,3.1-3.8,4.2h-2.8l-1,1H615l-1,1.1-3.8-.1-1,1.1h-3.8l-1.9,1-.9,1h-1.9l-2,3.1-1.9,1-5.7-5.2-2,1-.5-.5-.4-3.6h-2.9l-.9-4.2-4.3.5v1.1l1.9,2.1-1.4.5-3.3-1.6,1-1-.6-1.7H573v-1l3.4-.6L573,99l-1,1h-4.8l-.4,1.6-2.5.4-1.8,2.1-2.4-.5,2.9-2V98.4l-1.9-1V94.3l2.4-.5,2.9,4.2h1.9l.5-3.6L570,92l1.4-.4V89.5l5.8-5.1-1.5-2.6h-1.9L568.1,87l-.4-2.7,2.8-4.1-.5-2.6-2,1h-2.8l-2.9-2-.5,4.7-4.3.5-1-1-3.8.1-1,.9-3.2-.5,1.9-3.2v-2l5.8-4.2-1.5-2.6-4.4-1.6V65.6L548.9,63l-1,1.1H546l-1.9,2.1-1.4-.5,1.9-3.1-1-6.2,2.4-.5,1.6-1.6-.5-1.5h-3.8l-.9-1h-1.9l-1,3.1h-1.9l-1-1.1-1,1-1.5.5-.4,1.6h-1l-.4-2.6-1.5-1.5-4.8,1-2.4,2.5v2.1l-2.9,5.2v2.1l-.9,1v3.1l-2.4,2.6-3.8,1-2.9-2L509.3,74v2l-3.4,1.6L504,75.5h-2l-2.3,3.7v2.1l-1.5,1.5-1.4-.4-.5-2.7-2.9,2.1h-3.8l-1,1.1-.4-.5,1-2V77l-1-1.1V68.7l.5-.5,1.4,1.6v1.1l3.3.5,2.4-2.6,1-5.1L502,58l1.4.5-1.9,2.1.5,1.5h3.8l2.1-1.8-.4-.8.2.4.2.4,2.2-1.8V54.3l3.8-8.2-.1-2.1,1.5-1.5h2.8l3.9-5.1h3.8l1.4-3.7,3.8-3.1,1-3.2,4.4-4.6,7.6-4.1,5.7-7.2,2-1h6.6l3.4-2.6,1.4-2.6h4.8l.9,1h1.9l2.9-2,2.8,2h1.9l3.8,3.1,3.8-1.1,2,2.1,7.1-.6v-2l-2-3.2V1.4l3.4-5.7,3.8-2,5.8-4.2L608.4-9l.5,2.5,3.8.1,1-1.1h1.9l.4-4.7,3.3-3.5H625l3.9,2.1.5,1.5,2,2,1.4,6.7h1.9l4.8-4.1,3.8-1.1,4.8-4.1,7.6-1.1,1.5-2.6v-2l2.5-2.5h10.4L672-23l2-1h2.9l1-1.1h2.9l1-1.1,2.8.1,1-1.1h2.8l1-1.1h12.4l3,2.1,1.8,1h5.7l2-1,1.8,1,1.5,2.5,4.3,5.7h2.7l1,1.1h6.7l3.3,2.7,2,6.2L742.4.2l3.9,7.3.9,4.2-1,1v6.2L750,22l-1,2.1.5,2.6h17.2l.9,1,3.8.1,2.4,1.5,2.9,6.2v6.2l6.7,6.2V50l2.4,2.6.9-1.1,3.8.1,1,1h1.9l3.3,3.6v3.1l1,1-1,1v2.1l1.4,1.6,2.9,1,1,2.1h.9l1.4,1.5-1.7,3.1V76l1.9,4.1v3.1l-2.4,1.6h-1.9l-1.5,1.6v6.2l-2.4,2.6-3.8,1-.5.5,1,1.1V104l1.5,2.6,2.4,1.5v2.1l1,1v5.2l-2.9,3.1v2.1l1.5,1.6h2.8l3.3,3.6v2.1l-2,2V133l2,3.1-1.9,4.2-.1,3.1-.9,1.1.5,8.8H803l1,1.1h7.6l1,1h1.9l2.4,2.6-1,2.1v6.2l-1,1,.9,3.1,3.4,4.6.5.2,3.4,1.8,1.9-1h7.6l3.8-2.1,3.8,1,8.1-9.8V164l2.5-2.6h1.9l2.4-2.6-.9-4.1-1-1.1,1-1v-3.1l5.2-3.7,2.5-2.6v-1.1l10-6.7h2.8l1.9,1,5.7,5.2h1.9l2.9,2.1H889l2.9-4.2,2.4-1.6.5-2.6h2.9l1.8,1.1,2.9-3.1,3.8-1,1-1.1,6.7,1,.5-2.6-1.4-1.5h-4.8l-2.4-2.6.5-1.6,2.9,3.2,2.8-.1,2.8-3.1h7.7l.9,1h2l2.4-1.6v-3.1l2.4-1.5.9,1,3.8.1,5.7-3.2,1.8,1h2.9l1.4-2.6-1.9-2,1.4-1.5h1.9l3.9-2.1,3.3-3.6v-1.1l2.4-1.6,3.3-3.6V98.4L954.3,87l.1-1-6.3-6.7-3.8-1-1.9-2.1h-1L939,73.5l1-2V69.4l1-1.1V60l-1.5-1.5h-3.8l-2.9,3.1-1.9-1h-6.7l-1-1h-2.8l-2.9-2-5.7-.1-.9-1H909l-1.9-2.1h-3.8l-1-1-3.8-2.1h-3.8L884.2,39.8h-5.7l-2.3-1.5,1-1V31.1l.9-1-3.4-3.7-4.7.1-1,1h-1.9l-.9-1h-4.8L860,28.1v2.1l1.9,2.1-.5.5-4.8-2.1-1.9-2h-3.8l-1.5,1.5v5.2l.9,1.1-1,1v2.1L847,42.2h-1.9l-1,1.1-2.4.4V51l1,1v2.1l-1.4,1.6h-1l-2.9-3.1-1.4.5-.1,2-1.2,1.4-3.8.1L829,54.5h-.9L820,46.7v-3L815.6,39h-.9l-2.4-2.6V34.3l3.4-2.6,5.8-1,1.4-1.5V25.1l-1-1.1V14.7l1-1.1V9.7l1-2.1L828.2,2l6.7-5.2.9,1h1.9L840.5.9h2.9l1,1L853-.2l2.9,2.1h1.9l3.8-3,2-1h2.8l1-1.1,3.8-1,10-9.8v-1.1l4.1-4.7,4.8-2,1.9-2.1,3.8-1,6.8-4.1,1-2.1h4.8l4.3-5.7v-2.1l-1-1v-7.3l-.9-1,3.8-8.3,2.4-2.6,3.8-2h1.9l1.5-2.6.9-1V-69l3.8-6.3v-3.1l-1-2.1L925.5-82l-2,1h-2.8l-.5-2.6L917.8-85H915l-2.4,1.5v1.1l-1.4.5L908.3-86h-1.9l-1.9,3.2-1.4.4-.9,4.1-3.4.6-1,1-11.4-1-3.8,2-1.9,1h-9.5l-.9-1.1h-2.9l-.9,1h-7.6l-3.8-4.1H846l-1,1h-2.9l-1.9,2.1-.9-.1-1,1-6.6,2.1-.5,3.6-2.4.6-1,2-2.9-2.1H822l-1.9,2.1h-2.8L814-69.2l-1-2.1,2.9-2,1.9-5.2L830.2-91l2-4.1,1.9-5.2,1.9-2v-4.2l-4.7-1v-5.2l1.4-1.5,1.9,1h3.8l1-1.1h1.9l4.8,4.1h3.8l3.8-4.2,3.8-1,.9-1,1.9,1h1.9l2.9-2,1.4-1.6v-3.1l2.8-3.1-1.4-1.6-3.9-1-2.8-4.1-1-.1-.9-1-1,.9h-6.7l-2.3-2.6-1-4.1-1.5-1.6-1,1H844l-2.4-1.6,2.9-2-.9-2,.4-1.6,5.7-1,1-1.1.9,2.1h1.9l3.8-4.1.9,1.1,4.8-6.3h1.9l2.4,2.6-1.8,1.1v2.1l6.2,7.7,7.7,2.1,1.9,2.1H887l3.8,3.1,4.8.1.9-1.1h3.8l1-1h1.9l1.5-1.6-4.3-7.8h-2.8l-.5,1.6-1.4.5-1.9-3.1-5.3-.5,1.5-1.6,7.2-.6v-1l2.8-2.1.1-4.1.9-2.1-3.2-.5-1-1-1.9.9-.9-1h-5l-.9-1h-1.9l-3.8-2.1-.5-1.6-2.9-2.1.1-1.1-2.4-2.4H868l-4.3-2.7,3.3-.6.9,1.1h11.5l3.9,2.1,1.9,1H887l1-1h1.8l1,1.1h2.9l.5-2.6,7.6-8.2v-2.1l1.4-1.5H907l1-1.1h5.7l.9-1.1h1.9l2.8-3.1,3.9-2.1,4.8-2,1-2.1,1.9,1h2.8l.9-1.1h4.8l1.9-1,3.8-5.2,1,.1,2.8-3.2,1,.1,1.9-2.1,3.8-1,2.9-2h1.9l1-1.1h1.9l1.9,2.1h2.9l.9-1,1.4,1.6v2l1.4.5,1.9-2,2.9-1.1.5-1.6,8.1-9.8,6.6-2.1,1,1.1h8.6l3.8-5.2h2.9l1-1.1,4.8.1.9,3h1.9l1.4-1.5v-3l1.5-1.6,6.7.1,1,1h1.9l3.8-2,2.5-2.6v-.8l-1170.2.4Zm473.2,315v0Zm.2.6h0l.5.6Zm1.5,1.5-.5-.5.5.5Zm1.7,1-.7-.4-.5-.3,1.2.7.2.1.5.3Zm.2-6.7.5-.1.6-.1Zm1.3,15.4h0l.1-.1Zm.8-7.4.4.2.1.1.1.1Zm3.7-11.2-.4.5Zm4.4-4h0l-.5.1.5-.1.5-.1Zm6.3,3.6Zm3.7.2-1.1.3.5-.1.6-.2.5-.1.6-.1Zm3.4-1h0l.3-.1.8-.2Zm2.8,1.5v0Zm6.5.3v.7l-.1.8.1-.9Zm3.6,4.7.7-.4.8-.4.3-.1Zm2.7-2.9Zm0-1.7-.1-.4.1-.6Zm2-2.1-.8.2h-.1l.5-.1.4-.1Zm0,0,.5.2.4.2Zm6.7-5,.6-.2.4-.1Zm5.2-.5-.5.3-.2-.1-.2-.1-.9-.6.5.3.4.3.5.2.7-.4Zm.5-.5.2-.2.1-.1Zm8-2.6-.3.2-.1.2-.4.5-.3.1-.3-.3.6.2.5-.7.5-.3Zm2.1-1.8-1,.8-.4.6.4-.6.5-.4.5-.4.6-.2Zm1.1-.1h0Zm6.6,2.1.6-.2h.4Zm3.7.5.5-.1h.5Zm1.8-3.1h0l.3-.4.4-.5Zm1.4-4.7v0Zm2.1-4.2-.3.3.3-.3Zm5.6-4.4.1-.5.1-.4Zm1.3-3.1-.1.4.2-.5.1-.4.1-.4Zm2.7-4.6.3-.3.4-.4Zm3-.2.3.7.2.5Zm.9,2.2-.2-.5.2.5.5.4Zm3,.2-.4.1.4-.1Zm6.9-.6h.4l.4.1Zm6.4,2.1v0Zm1.3,3.2.5.2.6.3.8.5Zm3.2.6-.1.3.3-.8Zm10.1-.9-1-.1.9.1Zm6.8-1.4-.1.6.1-.8Zm1-.5h0Zm1.5-.1h-.1l.6-.1Zm8.4.7-.9.1-1.5.2.3-.1h1.2l1.2-.1h.6Zm2.5-.1-.5.3.5-.3.4-.2Zm5,1.3-.7-.4.2.1.5.3.5.3h0Zm7.1.1.2.1.4.3Zm1.6,2-.2-.4.2.5Zm5.4,4-.1-.1.2.4Zm1.1,1.3.1.1.3.4Zm1.1,4,.1-.1.2-.4ZM999.3-214.9l-2,1v2.1l1.4,1.5,1.9.1,1-2.2,2.9-1,.4-1.6-5.2-2.5Zm11.9,440.2h-1.9l-4.2,5.7,6.2,2.6,3.3-3.6v-1.1ZM952.5-130l-1.4-1.5h-2.8l-2.4,1.5v3.1l2.4.5,3.8-2Zm-92.7-10.4-1.9,3.2,4.3,2.6,2.4-2.6v-3l-1-2.1-3.3-1.6ZM579.5,73.3h-1.9l-.5.5,1.5,1.6,1.4-1.6ZM849.8-142.9l-.5,2.6,1.9,3.1.5,3.6,2.9-1.1,2.3-2.5v-3.1l-1.9-1-1.4-2.6Zm46.8,12.4-1.9-3.1h-2.8l-2.5,1.5v1.1l1.4,1.6h2.8l4.8,4.1h2.8l4.3-3.6-1.4-1.6Zm14.8-14L909-147l-4.8-.1-.5,4.7,6.2.5Zm21.5,40.9,1.4-.4v-3.1l-2.4-1.5-.5.5.1,3.1Zm-8.6-25.9,1.9-2,3.8-.1,1-1,1.9,1,.5-3.7-3.3-.5-3.9,2.1h-2.9l-1.8-1-2,2h-1.9l-.4,1.5,1.4,1.6,5.7.1Zm-17.2-3.1h-.9l-.5.6v1l1.4,1.6h1l1.4-1.5-.5-.6h-1ZM591.9,95.1l-.5.5v1.1l.4.5h1.9l.6-.6v-1l-.5-.6ZM561.8,198.9l-.1-2.1-.4-.5h-1l-1.5,1.6v1l.5.5h1.9ZM503,164.4l1.5-1.6-.1-3.1-.4-.5h-1l-2.4,1.6v3l.5.6Zm126.1-17.7.5-.5v-1l-.5-.6h-.9l-.5.5v1.1l.4.5Zm-67.8,62,1.4-1.5v-1.1l-.5-.5h-1l-1.3,1.6-.1,1.1.5.5Zm68.3-65.6v-2l-.9-1.1-.5-2.6-1.5.5V142l1.4,1.6Zm-128,49.6.5.6,2.4-2.6-.5-3.6-2.4,3.6Zm75-26.3h1.9l1.5-1.6v-1l-.4-.6h-1.9l-.5.5v1.1l-1,1Zm3.8-5.2h1.9l.5-.5-.1-2.1-.4-.5-.9-.1-.6.5v1.1l-.9,1Zm-82.1,6.2-1-1-1.4.5V168l1.4,1.5h2.9l.5-.5-.5-1.6ZM1079.6-43.1V-41l.5.5h1.9l.4-.5v-2l-1.4-1.5ZM508.8,176.8h2.8l1.9-3.2,2.3-1.5v-2l1.9-2.1v-1.1l-2.3-1.5h-3.8l-.5,1.6-2.9,2v3.1l-3.8,3.1v2l3.4.5Zm576-223.4-1.4,1.5-.1,5.2,2.4.5,1.4-1.6.1-4.1-1.4-1.6Zm28.7-158.5L1100.6-189l-1,2v7.3l-4.8,5.2v3.1l1,1.1v3.1l-1,1,1.9,3.1v2.1l-1,1,.1,3.1-2.9,3.1v9.3l8.6,10.4v1l5.7,6.2v6.2l-1.9,4.2-1,3.1-6.2,6.8-1-.1-1.9,2.1h-2.8l-1.5,1.6v2.1l1,1.1v4.1l-1,2.1-3.8,3v4.1l-2.4,2.6h-.9l-1.5,1.5.9,5.3,2.5,2.5,4.8,1.1,1.8,2,2.9,1.1,5.7,7.2h1l1.4,2.7v4.1l-1,2.1-2.8,3v10.4l2,3.1-.1,1,1.9,2.1v6.2l-1.4,2.6-3.8,1-1.5,1.6-.1,2.1-.9,1.1v3l7.1,7.8,2.4,1.5v3l2,3.2-1,2.1-2.4,2.6-3.8,1-.5,2.6,5.2.6,1-1.1h3.8l.9-1h1.9l1.3-1.1V-205.1ZM1079.1,16.5h-1.9l-.5.5v3.1l.5.5h1.9l.5-.5V17Zm-1-191.5h4.8l.4-2.6-1.4-1.6-4.7,1.1-1.4,1.5v2.1l1.4.4ZM574.7,87.8l-.5,1.6,1.4,2.5,1-1h1.9l1.5-1.5-2.4-1.6ZM1073.8,5.6l-1-2L1069.4,0l-1.9,3.1-1.5.4V8.7l-.9,1v2.1l4.4,3.5h2.9l3.3-2.5V10.7l-1.9-2ZM690.3,237.7h1.9l.5-1.5-1-1v-2.1l-.5-.5h-1.9l-.5.5,1,1.1-.1,3.1ZM629.6,138v1l1.4,1.5.5-.5v-2l-.5-.5h-.9ZM569.9,72.3H569l-.5.6v2l.5.5h1.9l.5-.5-1-1,.1-1.1Zm-7.2-1.5v3.1l.5.5h2.9l.5-1.5-2.4-2.6h-1Zm-9-10.9h-1l-1.5,1.5v2l.5.6h.9l1-1.1h1l.4-.5-1-1.1.1-1.1Zm448.5-38.7-.4-4.7h-1l-2.4,3.6v5.2l1.4,1.5,2.4-1.5v-2l1-1.1ZM604.8,61.5v2.1l.5.5,1,.1.4-.6V61.5l-.5-.5h-.9Zm-49.2,6.7.4-.6v-2l-.4-.5h-2l-.4.4v1.1l1.5,1.6Zm41.5-3.6.1,2.1,1.4,1.4h1.9l1.9-1,1.5-4.7-5.3-.5Zm-10.4,31V94.5l-.5-.5-1.4,1.6-.1,1,.5.5ZM506.9,73.4l-.5.5,1.4,1.5.5-.5V73.8l-.5-.5h-.9Zm52.9-21.3v-1l-3.3-3.7h-.9l-1-1.1-.5,2.6,3.4,3.7Zm-69.7,28,.5.5h1l.5-.5-1.4-1.6-.5.5-.1,1.1Zm55-23.2-.5.5,1.4,1.5h1.9l1.4-1.6.1-1-1.4-.5-1,1.1Zm-19.6-5.7v1l.5.5h1l.4-.5V51l-.5-.5H526Zm24.9,0v-2l-.5-.5H547l-.4.5v2.1l.5.6h2.8Zm11.4,18.6v-1l-.5-.6h-1.9l-.5.5-.1,1,1.5,1.6Zm-.5,4.6.5-.5v-1l-.5-.5h-.9l-.5.5V74l.5.5Zm85.6,343.5-1.5-1.6-1.4,1.6v1l1.4,1.6h1.9l.5-.5-1-1Zm25.7-87.7v-1.1l-.5-.5h-2.9l-.4.5-.1,2.1.5.6h1.9Zm-29.6-59v-1l-.4-.5h-1l-1.5,1.6.5.5h1.9Zm30.6,48.7v-1.1l-.5-.5h-1l-.4.6-.1,1,.5.5h1Zm-6.2,13.9-.5.5,1.4,1.5h.9l.5-.5v-1.1l-.5-.5Zm10-20.2v1.1l.5.5h1.9l.4-.5v-1l-1.4-1.5ZM663,308.5l-1.8-2,1-2.1-1-2.1.4-3.6h1.9l1.9,3.1h2.9l2.4-1.6-2.4-3.6-1.5-.5.5-.6h3.8l1.9,2.1h1.9l1-1,2.4-.5V294l.9-1-.9-2.1,1.5-.5.5-1.5-1.5-.5-2.9-4.1-1.9-1h-2.8l-2.9-3.1h-7.7l-1.8-1-1.5-2.6v-3.1l-1.4-1.5H654l-1.9,2-1.9-1h-2.8l-.9,2.1-1.9-2.1h-4.8l-1.9,1.1-1-1H635l-.9,2.1-1-1-.4,2.6,1,1.1-2.4.5L628,281v4.1l1.5,1.5h1l2.8,3.1h1.9l5.2,4.6-3.3.5-.5,3.6,4.3,5.7h2.8l2.9-4.2h1.9l.5-2.6,1.4-1.5h1.9l1.4,3.6,1.9,2-1.4,1.6h-1.9l-.4,1.6,3.8,9.3V318l4.3.5,3.3-6.6Zm-11.4-11.4-.5-.5-1.4,1.5.5.5,1,.1.5-.5Zm-1,13.4.5.5h.9l.5-.6v-1L651,308l-.4.5Zm24.3,35.6H674l-.5.6v2l.4.5h.9l.6-.5v-2.1Zm-19.1-17.5-2.9,4.2-1.8-2h-1.9l-2.4,4.6v2.1l-1.8,2v2.1l1,1v2.1l1.4,1.5h.9l1.5-1.6.5-2.6,1.9,1,3.3-2.5v-3.1l-.9-1,3.8-3.2.9-2-.5-1.5Zm24.8-3.1-4.7-4.1h-2.8l-.5,2.6,3.3,4.7,7.1-.5.1-1.1-1.5-1.5Zm1-37.1-.5.5V290l1.5,1.5h1l.4-.5v-2.1l-.5-.5Zm-8.1,17-.5-.5h-.9l-.5.6v1l-1,1,.5.5h.9l1.5-1.5Zm-1.9,98v2.1l.5.5h1l.4-.5v-1L672,403ZM661.1,325l4.3.5,1.9,2,1.4-.5,1-4.2-1-2,2-3.1v-2l-1.5-2.6h-2.8l-1.9,1-3.4,3.6,1,4.1-1,1.1Zm11.5,24.8v-7.2l-2.3-4.6-3.9-2.1h-2.9l-1.4,1.6v5.1l6.1,11.9,2.5-.5-.1-4.1Zm-3.4,52.1h-.9l-.5.5v1.1l.4.5h1l.5-.5v-1.1Zm-25.7,5.2-.5.5-.1,1,1.5,1.5,1.4-1.5-1.4-1.5Zm10,6.7-1.4-3.6-1.5.5-.4,3.6-1.9-1-1.5,1.5,2.4,5.7,1.9-1,1.9,1,.5-.5-1-4.2ZM618.6,278l-.5.5v1.1l1.4,1.5h1.9l.5-.6v-1.1l-1.4-1.5ZM605.8,393.2l1.4,1.5,2.9,1,1.4-2.6v-2l-1.4-1.5h-1.9l-.9,1.1-1.5.5Zm.4-32.6,1.4-.5V357l-1.5-1.6-1.5.5.1,3.1Zm16.7-79,2.4.5.5-4.7.9-1v-4.1l-6.2-5.6-3.8-.1-1.4,4.7,2.3,3.6h1.9l1.9-2,.5.5Zm-20.5-19.1.5-.6v-1l-.4-.5h-.9l-.6.5V262l.5.6Zm5.7-12.4h-1l-.5.5v2.1l.4.5,1,.1.5-.6v-2.1Zm1,8.3H611l1.5-1.6v-1l.9-1.1-.5-1.5H610l-.5.5-.1,1.1-.9,1v2.1Zm6.2,9.8-1.4-1.5-.5.5v2l.5.6Zm35.8,126.5h-1l-.4.5v2.1l.5.5h1.9l.5-.6-1-1v-1Zm45.8-113.6-.5.5v3.1l.5.5h1.9l.5-.4v-2.1l-1.4-1.5ZM647.8,399.4l-2.9,2,.1,4.1,2.4,2.6,1.4-.5v-2.1l2.8-3.1-1.5-3.6-1.8-1ZM600,264.1v1.1l.5.5h.9l.5-.5v-1l-.5-.6h-.9Zm13.8,95.5-.4.6v2l.5.5h.9l1-1h.9l.5-.5.1-1.1-.5-.5Zm1-14.5h-2l-.5.5.1,3.1.4.5h1l.5-.5v-2.1l1-1.1Zm12.9-25.2-3.8-3.1-.1-2.1-2.3-3.6h-9.6l-2.3,2.6v3.1l2,2.1.9,4.1,1,1.1v2l2.3,4.6,2-1h2.8l2.8,2.1,2.9-3.1h1.9l.5-4.7-1-1.1Zm5.3-3.7-2.9-1-.5.6.1,4.1.5.5H633l.6-.5-.1-3.1ZM978.8,1l-1.9,3.1-2.4.5V8.7l-1,2.1,2.9,3.1V17l1.5,2.5,5.8-1,1-1h1.9l1,1.1,1.5.5-.2,4.1,2.9,2.1v6.2l1.4.4,2,3.1,2.4-.5,1-7.3-2-4.2V19.9l-1-1V16.8l1-1.1-2.3-1.6h-1.9L989.5,12l-2.9.1-4.3-3.7,1-2V3.5L980.9.9Zm-7.7,22.7-.5.5v1l.4.5h1.9l.5-.6L972,23.6Zm3.4-53.3-2.4-.5-1,1.1h-1.8l-.9-1h-2.9l-.5,3.5,3.3,1.6,1-1,3.8-.1,1.5-1.5ZM974,30.9l.4-.5v-1L972,26.8h-.9l-.5.5v2.1l1.5,1.6Zm4.3-7.7v7.3l1.4.5,1.5-1.5V27.4l1-1V24.3l-1.5-1.5Zm-263.2,198-.5.6v2l.5.6,1.4-1.5v-1.1l-.5-.6ZM984.4-113.9l-.5.5.1,3.1,1.4.5.9,1.1h1l.5-.5v-2.1l.9-1.1-2.4-1.6Zm-2.3,62.6,3.4.6,2.3-3.7-1.5-6.7-2.3.4v3.1l-1.9,2Zm8.1,233.2h-2l-1.4,1.6-.9,3.2-1.9,1-1,3.1-1.6,1.7-1.3,1.4-1,5.2,2.4.4,1.9-3.1,4.8,2.1,6.1-6.6-.8-4.3,4.8-4.1,1-4.1-6.2-1.6ZM976.9-84.9h-1l-.5.5v3.1l.4.6h2.9l.5-.5-1-1.1v-1.1Zm-10,33.6-1,1,3.4,2.6,1.4-1.6v-2l-1.4-1.6h-1.9Zm-8.2-39.9-.5,1.5,2.3,2.6h2.8l1,1,1.4-.6v-2l-1.5-2.6Zm27.7,260.7-2.4.5-.9,6.2,1.4.6,1,2.1,1.4-.6v-2l1.9-2.1v-2.1l-1.8-1Zm-5.2,3.7-1.4-2.6h-2.9l-.5.6v2l.4.6h1l1,1.1,1-1.1Zm-4.3-299.5-.5.5v3.1l.4.5h1.9l.5-.5v-3.1l-.5-.5Zm1.9,86.9-.5.5v3.1l.5.5h.9l.5-.5v-1l1-1.1v-1l-.5-.5Zm-7.7-117-.5,1.5,3.3,2.6,2.3-.5v-2.1l-1.5-1.4Zm-2.9-4.2-.4.5v3.1l.5.5h.9l1.4-1.5.1-1.1-1.5-1.6Zm14.9,80.3-.1,1.1,1.6,1.4h.9l.4-.5v-2.1l-.5-.5-1.9-.1ZM944.9,155.6l-2.5-1.6h-.9l-1.5,1.5v2.1l.4.5,3.9.1ZM991.6-100l-1.8-2-.1-3.1-1.4-1.5-1.5.4v7.3l1,1v3.1l1.4,1.6,2.4-.6ZM946.3,177.8l-1,1.1-1.4.4v1.1l.4.5h2.9l.5-1.6,1-1-.5-.5Zm4.8-26.9h-2.9l-.5.5v2.1l.4.5H951l.5-.5v-2.1Zm-212.5,3.7v2l-1,1.1.5.5H740l.5-.6v-2L739,154Zm7.1-96.7h-1.9l-1.4-1.5.5-8.8-4.8,1-1.5,1.6-1,5.1,1,1.1v5.1L738,63h2.9l3.8,3.1h1.9l1,1h4.8l2.4-2.6v-3l-6.2-.6ZM729.4,161.2l-.5.6v1.1l1.4,1.6h.9l.5-.5v-1.1l-1.4-1.6h-.9Zm226.9,27.5-1.9,2.1v1l1.4,1.5h1.1l1.4-1.4v-4.1l-1.5-1.6Zm-93.1-34.6h-1.9l-1.4,1.6v2.1l.5.5h1.9l2.3-3.6-.4-1.6Zm101.2,23.7-1.5,1.6v2.1l-1,1,.5.5h2.8l.5-.5v-4.1l-.4-.6ZM991.6-86.5l-2.3-2.6h-1l-1.4,1.6v4.1l2.4,1.5,2.3-3.6ZM985.4.9h2.9l1.5-1.6v-2l-.5-.6h-2.8L985-1.7V.4Zm3.8-14.4.5-.6v-2l-.5-.6h-.9l-.5.5v2.1l.4.6Zm-6.6,178.9.9,1,3.8.1,1.8,1,1.5-2.6-1.9-3.2.5-.5,1.8,1,1.4-3.6,2.9-2.1v-4.1l-2.4-1.6-4.8,1.1-1.9,2.1h-1.9l-1.4-1.6-.5-1.5-2.5.4-.4,5.7-.5-3.6-4.8-4.1-2.3-4.6h-1l-2.9,4.1-1.9,1-1.9-1h-3.8l-.9,1.1h-1.9l-4.3,3.6v1.1l1.4,1.6h1.9l.4.5-.4.6-2.5,1.6v2l2.3.6,1.4,1.5,1,5.2,1.9,3.1,2.4,2.6H966l.9,1,4.8-6.2,2.9-2h6.7ZM982.1-42v2.1l.5.5h1l1.5-1.5V-42l-.4-.5h-1.9Zm3.4-2.6.4-.5v-1.1l-.4-.5h-1.9l-.5.6v1l.5.5Z"/></g><g id="Hong_Kong" data-name="Hong Kong"><path class="cls-3" d="M375.5,379.7l.1,3.1,1.4,1.5h1.9l2.5-1.5v-2.1l-1.5-1.5-3.8.1Zm-57.7-5.6h-2.9l-1.5,1.5.1,2.1.4.5,2.9-.1,1.4-2.6v-1Zm-14.4,33-1.4,2.6.1,3.1,3.3,3.7h1.9l1.9-3.1,3.4-.5,1-2v-3.1L311,405ZM301,421v-5.2l-3.4-2.6-6.6.1-1-1h-3.8l-.9,1h-4.8l-2.4,2.6v2l2.4,1.6h3.8l4.3,3.6.5,2.6H291l1-1,.5.5,1.9,7.2,3.3,3.6,2.9-.1,1.5-1.5.9-7.3-2.9-3.1Zm17.7-111-.5.5-.1,2.1,1.5,1.5h1.9l.5-.5v-2.1l-1.5-1.5Zm54.4-20.7.5-.6-.1-3.1-2.4-2.5h-1.9l-.5.6v3.1l2.4,2.6Zm-.5,35.6v-9.3l1.9-4.1,1.9-3.1-1-2.1,1-2.1.1-4.1-3.4-4.6-3.3.5,1-2.1v-3l-3.8-3.1v-2l-1.4-1.6H359l-1,1H346.5l-2.8,2.1h-2.8l-2.4,2.5v1.1l1.4,1.5,1.4.5-1,1,.1,3.1,1.4,1.5h2.9l1.4,1.5.5,6.8,3.9-.1,2.4,1.6-1.9,3.1v2l.5.6h1.9l1-1,.5.5-2,4.2v2.1l-1.9,3.1V326l1,2.1,5.3,1.5,1-1h3.8l1-1h7.6Zm-38.7,54.3-.5,3.6,1.4,1.5h4.8l.5-5.7-4.3-.5Zm-10.4-86.7-7.7,1-1.9-1-1.4,1.5.9,4.2-3.8,3.1v1l3.9,1.1v2l-1,1.1,2.5,2.6,1.9,1,1-1h2l2.4-1.5-.1-4.1-1.8-3.1-.1-2.1,1.9-1.1ZM292.9,475.2h-5.8l-3.3-3.6-1-2,.5-1.6,7.2-2.5-1.4-2.6-1.4-.5,2-2.2-.1-3.1-2.3-.6-1,1.1h-5.8l-2.3,4.6,1,1v2.1l-3.8,4.1v2.1l2.4.5,1.9-1,1.4,1.5,1,3.1-1,1v2.1l-1.5,1.6-1.9-1-2.9,1-1.9,4.2-1-1.1H270l-.5,5.7,2.4.6,1,2h1.9l.9-1h1.9l2.9-3.1h1l1-2.1,2.8-2h2.9l1.9,3.1h.9l.5-2.5,3.8-3.1-.1-2.1,1-1ZM270.4,451l1.9-2.1-1.5-2.5-1,1H267l-1.9-2-2.9-.1-1.8-3h-1.9l-2,2h-2l-1.8-3.1h-2.9l-1,1.1-4.9-4.1-2.8,1.1-1.4-2.6,4.8-3.1v-1.1l4.4-4.8.9-1.1h4.8l1.9-2h1.9l1.9-2.1,2.4-.5-.1-2-4.8-5.2-.9-3.1-2.4-2.6h-2l-.9-1.1-1.9.1-.9,2.1-2-3-3.9.1-.9,1-1.5-.5.5-1.5,2.4-1.5,1-3.1,1.5-1.5h1.9l1.1-1.4,4.7-.8,3.8,3.1h1.9l1.5,1.5v1l2.5,1.6,10.4-.1,1.4-2.6.1-4-2.9-1.1,1.9-2.1v-4.1l1.9-1v-2l-1-1.1v-6.2l-3.9-1.1v-2.1l1-1.1v-4.1l-.9-1,1.4-1.6.9,2,2.9-2.1h1.9l.5-4.7-1.5-2.5h-1.9l-3.8,4.1-6.2-1.5.5-2.6h4.8l1.4-1.6-1.4-2.5-5.3-1.6,2-3.1v-2.1l1.5-1.5h9.5l4.8-3.1,2.8,4.1h3.8l1.5-1.5v-3.1l-1-1v-6.2l-2.9-5.2.5-3.6h3.8l1.9-1,2.4,4.6-1,1,2.9,5.2,2.4.5.9,1.1,1.9-2,5.7-1,1-2.1,1.9,1,1.5-.5-.1-2.1-1.9-2,1-1.1-.1-3.1,1.9-2.1-.5-2.5-1.5-.5.1-3.1,2.8-3-1.9-3.2-.9-4.1-2.4-2.6h-1l-2-3.2-3.8-1-1-1.1h-2.8l-1.5,7.8-2.3.5-1.5,1.6-1.5,2.5-5.8,2.1-2.9,5.2-2.9-.1-2.3,2.6-.5,2.6-3,1-.9,2.1-1.5-.5,2.9-6.2-1.5-2.6-3.8-1-4.8,5.1h-1.9l-3.3,2.6v2.1l-2.3,2.6H255l-2.8,3.1h-2.9L249,338l-1.1,2.2-1-1.1-2.4.6v5.1l-1.4,2.6h-1l-1.4,1.5V352l-1.4,1.5h-4.7l-1,1.1-3.8.1-7.2,6.7v7.2l-1.4,1.6-.4-1.6-2.4-1.5h-4.8l-.9,1h-8.6l-.9,1.1-5.7-.1-3.8,4.1-5.7,3.1-2.8,1.1-3.9,3.1h-8.5L172,383l-1.9,1-.9,2.1v3.1l-.5.5-1.9-1-1.9,1-1.4-1.6V386l-2.8-3.1-.9-4.1-1.4-1.6-1,.1-2.9-2.1H144l-1.9,1-3.8-2h-1.9l-2.9,3.2-1-1h-1.9l-1.9-3.1-1.4,2.6-2,3.1v3l-2,5.2-2.4,2.6H120l-4.1,5.5v3.1l1.9,3.1-.5,1.5-2.9.1-.4-2.6-2.4-1.5-1.9,2.1-4.8,2-6.7,1L92.8,413l-1.4,1.5H89.5l-.9-1H83.8l-2.9,2.1H79l-2.4,3.6v2.1l1.4,1.6,8.6-1,1.4,1.5-.9,2v3.1L83.9,432l-2.9-.1-4.3,3.7v6.2l1,1V448l-1.4,1.5H74l-4.8-4.1-2.8.1L65,448v2.1l-2.9,4.1,1,2.1-.9,8.3,4.8,5.1-1,3.1-.9,1v4.1L66,480l2.4,2.5h1.9l2.3,1.5-1.9,5.2-1.9,2.1.5,3.6,3.8-2.1,4.7,1,2.4-1.5-1.8-3.1,5.2-3.6h1.9l2.9-2,1.9,3,2.9.1,2.4-2.6V483l2.9-2.1v-1l4.3-3.6,5.2-.5-1-4.1,1.5-.5,3.3-3.6v-1.1l3.3-3.6H117l1,1h3.8l.9-3.1,1.1,1.1,5.2.5-1,2.1,1,5.1,1.4,1.6h1.9l1.9,3.1,2.8,1,5.7,5.2h2.9l4-5.2,2.8,2,3.8,3.1,3.8-2.1,2.9.1,4.3-3.6v-5.2l-2.4-3.6-10.5,1-1.5-1.6,2.4-1.5,3.4-3.5.5-1.6,7.6.1,3.8-2.1,3.9-2.1h1.9l8.6-5.2h1.9l1.9-2.1h5.7l1.9,2h2.8l.9-1,6.7-4.1h1.9l5.7-4.2,10.1.5v4.1l-2.9,3.2V451l-1,1,1.4,2.6h.9l2.4,2.5v1.1l1.9,1v2l-2.9,3.1-.9,3.1,1.4,1.6h2.9l.4,1.5,2.4,2.5h1.9l1.9-3.1H239l1.9-3.2h3.8l.5,2.6,2.4,1.5,1.1-2.2,1-1.1h3.8l1.4-1.5v-2.1l2.5-1.4h2.9l.5-2.5,3.3-3.6,4.8-1,1.4-2.6ZM160,512.5h-2l-.4.5v2.1l2.4,2.6,2.4-1.6v-2l-1.5-.5Zm21.4-167.7v-2.1l2.8-2.1.1-4.1-1.5-.6-7.6,9.3-1.5-1.6v-2.1l-2.4-1.5-6.7,6.2-3.3,1.6V355l1,1v2l1,2.1,1.9,2v1.1l1.9,2v4.1l1.9,2.1-.9,2.1.3,3.7h2.9l3.4-2.6-1.9-4.1,1.9-2.1v-4.2l1.5-2.5,1.4-.5V353l.9-1v-5.1l1.5-.5Zm55.4,144.4-2.4-3.6h-4.7l-4.4,6.7v5.1l2.4,1.5h1.9l2.9,3.1h2.8l1-1,3.4-.5.9-6.2-3.9-1ZM301,374.5l-.1-2.1-1.4-1.5h-3.8l-1.9,2H291l-2.4,1.6,2,3.1,1,6.2,1.4,2.5h1.9l1,1,3.8-.1,3.3-2.5v-4.1l-1.5-2.6h-3.8l-1,1-1.4-.5,2.4-2.6Zm-90.9-45.3.9-3-1.4-1.6-2.9-1-1.4,1.5v4.1l1.5,1.5h1Zm23.4-41.8,1.5-1.5-1.4-1.5h-1l-.5.5V287l.5.5Zm-6.7,27.8-3.3,2.6-.9,5.2,2.4.5,2.4-2.6Zm-84.5,52.2-.4-5.7H139l-.5,2.6,1.9,2,.5,1.5Zm242.8,12.3v-1.1l-.5-.5h-1.9l-.4.6-.1,3.1.5.5ZM403.7,339l2.8-1,4.8,6.2h1.9l2.4-3.6v-2.1l2.9-2.1-.1-2.1-1.4-1.5-2.8,2.1-2.9-.1-2-1-1.9-3-2.9-.1-1.9,3.2-4.8,1-.5,2.5,1.4,2.6h3.8ZM547.9,448.4l-5.3.5,2.4,2.6h1.9l1.4-1.5Zm13.9,76.9-1-1,1.9-4.2-2-3.1.1-2.1-1.5-1.5-1.9-.1-3.7-4.1-3.3,2.6-1.4,2.6-2.9-.1-5.2,3.7-4.8,8.3v4.2l1.4,1.5,1-1.1.5.6.5,3.6,4.3,1.5v1.1l-1.9,2.1.5,3.6,2.9-1,4.2-3.6v-3l3.4-3.7,1.4.5.5,1.6h8.6l.5-3.5-1-1.1Zm-22.5-13,4.3-3.6v-8.2l-1.5-1.6L529.7,500l-2.4,1.5v2.1l.9,1.1v6.2l1.5,3.7,2.4-1.6.5-2.6,3.9,2.1Zm-18.1,3.1h-1l-.5.5.1,2.1.4.5,1,.1.5-.6v-2.1Zm21.9-61.9-.5,1.6.5.5h3.8l.5-1.5-.5-.5h-3.8Zm-6.6,80.6-1,1h-.9l-.6.5v1l.5.6h2.8l.5-.5v-2.1l-.5-.5Zm-105.1-61h-4.8l-.9,1-1.4-1.5-.5-2.6h-1.9l-1.9,2.1h-2l-2.8,3.2h-3.8l-1.9-1-1,1h-3.8l-1,1.1h-1.9l-2.4,2.5-1.4,3.6-3.3-4.6.5-2.6h.9l2.4-2.6.5-1.5h1.9l5.3-2.6,1-2.1-1-1v-4.2l-2.4-2.6-3.9,2.1-1.9,3-2.9-2-1.5-2.6V454l-1.4-1.5h-2l-.5-1.5-2.9-2.1,1-1.1v-2.1l1.9-2v-5.2l-1.4-1.5h-1.9l-1-2h-1.9l-2.8,4.1-4.8,1-2.9,2.1h-1.9l-1.5,1.5v2.1l3.3,2.5,2.4.5-2,2v2.1l2.9,2.1-4.4.5-3.3,2.6-.9,2-.1,4.2.5.5,1-1.1h5.7l1-1,5.7-1,3.9,2,1.4,1.5v6.2l.9,1-1.9,4.2,2.9,4.1-1,1V489l-1,1v6.3l-3.4,3.6-2.9,1-1.4,1.6.9,6.1,4.3,3.6h4.8l1-1,2.8,2.1h2.8l1.9-3.1h1l1.9-2,4.8,6.2H407l-.5-6.7-2.9-5.2.1-4.1h1.9L408,502l3.9,2.1,1.8,3.1,3.9,1.1,1,2h1.9l.5-2.6-2.9-3.1v-2.1l-3.9-5.2-.9-5.1-1.4-1.6-2.4-.5.5-1.6h1.9l2.9-2,1,1,2.4-.5.9-4.1,2.9-2,.5-1.6h.9l2.9,3.1h2.9l2.9-4.2,1.4-.5L433,474ZM546,479.4l-.5.5v1l1.5,1.5h.9l.6-.5v-2.1l-.5-.5Zm-134.1-47v-1.1l-.5-.5h-1.9l-1,1.1-1.4.5v1.1l.5.5h2.9Zm19.4-2.6h-2.8l-1,1h-2.8l-3.9-2.1H419l-4.3,3.6,1.4,1.5h.9l1.4,1.5,1.5,2.6,1.9,1h2.8l.5,2.5,1.5,1.6,1.9,1h4.8l.5-3.6-1-1.1v-8.2Zm-26.2,27.3V454l-.5-.5h-.9l-2.4,2.5v1.1l.5.5h2.8ZM504,476.2l-1.5,1.6,1.5,1.5h1.9l.4-.5v-2.1l-.5-.5Zm-69.2-30.4-.5-.5h-2.8l-.5,1.5,1.9,2.1V450l1.5,1.5h.9l.5-3.6-1-1v-1.1Zm32.4,10.3v1.1l.5.5h1l1.4-1.5-1.4-1.5ZM461,442.2l-.9-1.1h-1.9l-1.4,1.5,3.3,4.6H463l3.3-2.6-1.5-2.5H461Zm1,22.7-1-1.1h-.9l-.5.5v4.1L461,470h.9l1-1.1h1.9l.5-2.6-1.4-1.5H462Zm67.8,13.4h6.7l1-1,.9,1.1h3.9l.9-1,1,1,2.8-.1,1-1,1.4-.5-.4-1.5h-1l-2.8-3.1-3.4-.6,1-1-.9-1.1v-8.2l-3.9-6.2V452h5.7l-3.4-4.7-2.4-.5,1.9-2v-4.2l-2.9-3.1v-2.1l-1.9-2v-1.1l-1.9-1v-1.1l2.4-.5,1.5-1.6.5-2.6.9,1.1h1.9l1.4-1.5,1-6.2,1-1-1-2.1v-4.1l1-1v-2.1l-2.4-3.6h-3.8l-1.9,2.1h-1l-2.8-7.3h-1l-4.8,4.1h-1.9l-.5-1.5,1.9-1.1V393l-2.3-.5-2.4-2.6,1.5-.5,1.4-2.6-5.5-6.9h-1.9l-1,2.1h-2.9l-1.9,5.2-2.8-1-4.3-4.6v-2.1L502,377H491.5l-1.4-4.7-1.5-1.5-1.9-1H484l-1-1-.9,1h-5.7l-1,1.1-3.8-.1-4.8,6.2h-1l.5,1.5-3.3,2.6h-3l-1.8-1-2.9,3.1-1-1-1,1h-1.9l-.9,1h-7.7l-1,1H438l-2.9-3.1-5.7-2.1-4.8-4.1h-2.9l-.9-1.1H409.3l-1,1-8.6,1.1-2.8,2.9-2,1.1h-3.8l-6.7,3-2.4,3.6v6.3l1.4,1.5h.9l6.2,5.7,1.9,4.2v2l2.4,2.6h1.9l1-2.1,1.4,2.6,1,2-.9,7.3,1,2,3.8,3.1.5,1.5,3.9-2.1,2.8,2.1h1.9l.9,1.1h12.4l1,1.1h4.8l1.9,2.1,2.8-.1.5.6-1,1.1v2l1.9,1-.1,1.1-2.4,1.5-.5,1.6,4.8,3.1-1,1v2l1.4,1.5h1l3.8,3.1h1.9l1.4-2.5,1-8.3,1-2.1,1.9-1,2.4-4.6h7.7l.5,1.5-1,1v4.1l2.4,2.6h1l2,2.1,2.8-2h2.9l1.4,1.5,1,2v3.1l-1.9,2v2.1l1,1-1.5,2.6-2.5.5.5,2.5,7.2,2.6,1,3.1-2.4.5-3.3,3.6v2l.9,1.1.4,3.6,3.9-1,3.8-3.1h2.8l.5-3.6,3.3-2.6h1.9l1.4,1.5,1,2v3.1l-1.9,1-1,2.1v7.3l-1,1v3.1l1,1v4.2l1.5,2.5h6.6l1-1h3.8l1.5-1.6V487l-.9-1.1-1-4.1-2.1-2v-2.1l-1.9-2,5.7-5.2-.9-1-1.5-2.6-3.8-2.1-3.4-3.6v-3.1l4.8-5.1.5-1.6h1.9l2.9-4.2,2.9,3.1h2.8l1.4-1.5-1-2.1v-4.1l-2.4-3.6-3.3-1.6-1-7.2.5-.5,1.4,1.5v2.1l1.4,2.5,4-1,3.8,3.1,1-1,.5.5-1,4.1,2,4.2v2.1l.9,1V456l-1,1.1,1,1.1v2l1.9,1v2.1l3.4.5,1.4,1.5.9,5.2-1.9,3.1,1.5,3.6h1.9Zm64-381.1.6-.6v-1l-.5-.6H592l-.5.5v1.1l.4.5Zm-7.7-3.1-1.4,1.6-.1,1,.5.5,1.4-1.5V94.6Zm9.6,17.6-.5.5v1l.5.5h1.9l.5-.5v-1.1l-.4-.5Zm4.7-8.3,1,2.1h1.9l2.8-4.1H608l3.9-2.1.5-1.5,3.8-4.1V91.6l-4.3-.5-.5-4.8-7.2-4.7h-1.9l-1.4,2.7,1.9,1v6.2l-1.9,2v1.1l-4.7,4.1-.5,1.5-1.9-2h-5.7l-1-1-1.4,1.5v2.1l2.9,2.1-1,3.1,2.4,2.7,2-1.1h3.8l2.8-4.1Zm3.4-40.9-5.2-.6-1.4,2.6.1,2.1,1.4,1.5h1.9l1.9-1Zm-22.5,37.7-.5.5v1l.5.6h1l.5-.5v-1l-.5-.6Zm-1.8-26.9h-1.9l-.5.5,1.5,1.6,1.4-1.6Zm27.2-9.8V61.4l-.5-.5h-.9l-.5.5v2.1l.5.5,1,.1Zm-23.4,8.8.9-1,1,1.1h1.9l3.8-3.2,1,.1,1.4,1.5-2.8,2.1.4,1.5h4.8l1.9,1,1.5-2.6V69.7l-1.4-1.6h-2.9L592,65h-1l-1.4-1.5V60.4l-2.4-.5-1.5-1.6V56.2l1.4-1.5h4.8l3.8,4.1h1.9l4.8-4.1,4.7,1,1-2.1H610l1.4-1.6L610,50.5l-1.9,1.1-1-1.1h-7.6l-1-1-1,1h-6.7l-1-1-.9,1-1-1-2.8.1-.9-4.2h-4.8l-.4,5.7,1.4.5,1.5,2.6h-4.8v3.2l2.4,2.5,3.8,2.1,1.4,3.6-1.4.5-1-2-3.8,1-1.4,1.5v2.1l-1.9,2.1,1.4,1.6Zm92.6,65.1.5-.5v-2.1l-2.4-1.5-1.9-.1-.4,1.6,2.3,2.5Zm25.8,42.4,1.5-1.5v-1.1l-.4-.5h-1.9l-1.5,1.5,1.4,1.6Zm-127-92-.5,1.6,1.4,2.5,1-1h1.9l1.5-1.5-2.4-1.6ZM708,198l.4.5h1.9l.6-.5v-1l-.5-.5h-1.9l-.5.5Zm2.4-2.6.4-.6v-2l-.5-.6h-1l-.4.5v2.1l.5.6ZM611,77.5h-1L607.7,75l-1.4-3.8-3.8-1L601,77l2.3,2.6,8.7,4.1,1.8,2.1h2.8l.5-4.7-.9-1V75.9l1.9-2-.1-3.1-1.8-1-.5-2.6h-1.8l-1.5,1.5v4.1l.9,1.1Zm18.1-12.4.5-.5V63.5l-1.4-2.6h-2.9l-.5,1.5,1.5,2.6Zm27.3,51.1-.1,2.1,1.5,1.6.9-1.1h2.8l.5-4.7,3.8-4.1v-1l-2.3-.5-1-1.1-4.8,1-1.5,1.6v2l-1.9,1v2.1Zm-1.5,23.3,1.4,1.5v3.1l1,1v4.2h2.8l-1.9,3.1v3.1l.9,2.1,3.3.4,3.3-3.5v-4.2l2.9-2v-2.1l.9-1.1-.9-3-1.5-.6-2.3-1.5v-2.1l1.9-2.1v-2l-1.4-1.5h-1.9l-1.9-2.3-3.8,1-2.9,4.2-2.4,1.5,1.5,2.6,1,.2Zm-101.7-74v1.1l1.4,1.6h1l.4-.6v-2l-.4-.5h-2Zm17.7,9.9.5-.5-1-1,.1-1.1-.5-.6h-1l-.5.6v2l.5.6Zm-456.3,226,1.4,1.5h1.9l1.4-2.6v-2l-.5-.5H117l-2.4,2.6v1Zm-54,164.7-2.9-.1-.5,2.6,1,1,.4,1.5h1.9l1.5-1.5v-2.1Zm56.9-157.5,1.9,2.1v2.1l2.5.5v-6.2h-4Zm-6.7-38.2-.9,8.3,3.3.5,1.4-2.6-.9-4.1,1.9-4.2-1-3.1-2.3-1.6h-5.7l-1.5,3.6,3.4.5Zm33,255.5-1.4,1.5,1,4.1-2.4.5-1.9,2-1-1h-2.9l-3.8,2-.5,4.6,2.4,2.6h1.9l1,1,2.9-3.1h3.8l.9,1,1.9-2.1,2,1,2.4-2.6v-2.1l-2.8-3.1,1.4-1.5h2.9l.5-2.6-3.3-2.6Zm-4.3-3.7v-1l-1.4-1.5h-1.9l-.4.6v1l1.4,1.5h1.9Zm12-13.8h-4.9l-1.9-1.1-2.8-4.1H139l-1.4,2.6.1,3,.9,1.1-1,4.1,1.5,1.6H141l1.4-1.5.5-2.6h1.9l1.4,1.5-.2,3,4.3,1.5,1-3,3.3-.6.1-3-2.5-.5Zm-19.2,17.5,3.3-2.7-1.4-2.6-3.8,1.1-1.4,1.5,2.4,2.6ZM526,52.7h1l.4-.5V51.1l-.5-.5H526l-.5.5v1Zm35.3,19.6h-.9l-.5.5v1.1l.5.5h.9l.5-.5v-1Zm-2.4-3.6-.1,1,1.5,1.6,1.4-1.6v-1l-.5-.6h-1.9Zm7.2,5.7.5-1.5-2.4-2.6h-1l-.5.5v3.1l.5.6Zm-6.3-22.3v-1l-3.3-3.7h-.9l-1-1.1-.5,2.6,3.4,3.7ZM158,542.3l-.9,1.1h-1l-.5.5v2l.6.5H159l.5-.5v-3.1l-.5-.5ZM549.9,51.7l.5-.6v-2l-.5-.6H547l-.4.5v2.1l.5.5Zm1.9,12.4h.9l1-1.1h1l.4-.5-1-1.1.1-1.1-.5-.5h-1l-1.5,1.5v2Zm-6.7-7.3-.5.5,1.4,1.5h1.9l1.4-1.6.1-1-1.4-.5-1,1.1Zm68.7,302.8-.4.6v2l.5.5h.9l1-1h.9l.5-.5.1-1.1-.5-.5Zm58.8-9.8v-7.2l-2.3-4.6-3.9-2.1h-2.9l-1.4,1.6v5.1l6.1,11.9,2.5-.5-.1-4.1Zm-3.4,52.1h-.9l-.5.5v1.1l.4.5h1l.5-.5v-1.1Zm4.4-96.5-.5-.5h-.9l-.5.6v1l-1,1,.5.5h.9l1.5-1.5Zm-1.9,98.1v2.1l.5.5h1l.5-.5v-1l-1.5-1.5ZM661.2,325l4.3.5,1.9,2,1.4-.5,1-4.2-1-2,2-3.1v-2l-1.5-2.6h-2.8l-1.9,1-3.4,3.6,1,4.1-1,1.1Zm20.5-36.6-.5.5V290l1.5,1.5h1l.4-.5v-2.1l-.5-.5Zm15.3-7.3-.5.5v3.1l.4.5h1.9l.5-.4v-2.1l-1.4-1.5Zm-22,65h-.9l-.5.6v2l.4.5h.9l.6-.5v-2.1Zm5.7-20.6-4.7-4.1h-2.8l-.5,2.6,3.3,4.7,7.1-.5.1-1.1-1.5-1.5Zm-7.1-5.6v-1.1l-.5-.5h-1l-.4.6-.1,1,.5.5h1ZM663,308.5l-1.8-2,1-2.1-1-2.1.4-3.6h1.9l1.9,3.1h2.9l2.4-1.6-2.4-3.6-1.5-.5.5-.6h3.8l1.9,2.1h1.9l1-1,2.4-.5V294l.9-1-.9-2.1,1.5-.5.5-1.5-1.5-.5-2.9-4.1-1.9-1h-2.8l-2.9-3.1h-7.7l-1.8-1-1.5-2.6v-3.1l-1.4-1.5H654l-1.9,2-1.9-1h-2.8l-.9,2.1-1.9-2.1h-4.8l-1.9,1.1-1-1H635l-.9,2.1-1-1-.4,2.6,1,1.1-2.4.5L628,281v4.1l1.5,1.5h1l2.8,3.1h1.9l5.2,4.6-3.3.5-.5,3.6,4.3,5.7h2.8l2.9-4.2h1.9l.5-2.6,1.4-1.5h1.9l1.4,3.6,1.9,2-1.4,1.6h-1.9l-.4,1.6,3.8,9.3V318l4.3.5,3.3-6.6Zm-20-37.3v-1l-.4-.5h-1l-1.5,1.6.5.5h1.9Zm7.6,39.4.5.5h.9l.5-.6v-1L651,308l-.4.5Zm1-13.5-.5-.5-1.4,1.5.5.5,1,.1.5-.5Zm21,33.1v-1.1l-.5-.5h-2.9l-.4.5-.1,2.1.5.6h1.9Zm4.8-16.6v1.1l.5.5h1.9l.5-.5v-1l-1.4-1.5Zm-10,20.2-.5.5,1.4,1.5h.9l.5-.5v-1.1l-.5-.5Zm45.3-117.3-1.9-1-.5-2.6-4.8-2.1-1.4-1.5.1-5.2-1-1V201l2.9-2.1,1.9-5.1-1.5-1.6-2.9.1-.9,1-2.9-4.1-.9,1-.5-.5-.5-3.6h-1l-2.8,3.1-5.7,1.1-1.9,2h-3.8l-3.8-3.1-3.9,1.1-.9,2-2.4-.4v-4.2l-1-1v-2l-1.9-4.2,1.5-1.6,2.4-.5V170l-2.3-1.5-2.9-4.1-1.9-1-4.3.5v6.2l1,1-.1,2.2-4.2.5-2.9,2-1-1-2.4.5v3.1l1,2.1,1.5,2.6,1.4.6v3.1l-.9,1,.9,1-.9,1V196l-1,1-.1,2.1,1,1-1,1.1-.1,2.1,2,3.1v1l-1.9,1.1,1,1-.5,1.6h-1.9l-.9-1.1-1.9,1-2.4-1.6,1.4-2.6,2.2-.4v-2l-1.9-2.1V198l-1.9-3.1v-4.1l-1.5-1.6h-1.9l-3.3,3.6V198l-1.4,1.5-1-1-2.3.6,1.9,3.1-5.3,1.6-.5-1.6,2.9-2.1V195l-1-2.1-2.9-3.1,1.4-1.6h5.7l2.3-2.6.1-5.1-1.4-1.6-2.4-.4,1-1.1-1.9-7.2,1.9-3.1v-5.2l1.5-.5,2.8,2.1h2.9l2.3-1.5v-4.1l-3.8-6.3v-5.1l-1-1.1-1-4.1-1.4-1.6-1.4.5v1l-2.9,3.2v4.1l.9,1.1-.9,1v4.1l-1.9,2.1,1,1-1.4,1.6-1.9,1-3.8-1-3.8,3.1-.5-.5,1.9-4.2,1-5.1,2.4-.6.5-1.6-2.4-3.6h-1.9l-.9,2.1h-2.8l-.5-1.6-1-1,1-2.2-1.8-5.1-2.5-.6-.4,2.6-1.4,1.6-3.8-.1-4.8,6.2h-1.9l-6.3,5.6-1,5.2-1.9,1,1,1.1v6.2l-2.4,2.6-2-3.2-1,1.1h-3.8l-1-2-2.8-.1-.5,8.8-.4.5-1.4-1.6v-1l-2.3-1.6h-1.9l-7.2,6.7-.4,2.6-1-.1-1.5,1.6.5,3.6h1l1.9-2,1,1h1.9l.5,1.6-1.9,2v2.1l2.9,5.2v4.1l2.4,2.6,3.3.5v1l-6.2,5.7-2.9,1-6.3,4.6-.5,8.8-1.4-3.6-5.7-6.2v-1l2.9-2.1V200.8l-1-1V198l-2.3-2.6h-5.7l-2.9,2.1h-3.8l-1,1-1.9-3.1h-2.9l-1.9,2.1H532l-1.9,2-.5-2.6,2.4-.6,1.5-1.5-.5-1.6h-3.8l-3.7-2.1-2,1h-2.9l-.5,2.6,1.9,3.1-3.4,3.7-2.4.4-1.9,9.3-3.4,1.6-.5,2.6-2.9,2.1,1.9,3.1-3.9,3.1-1,4.2-1.9,1,.1,3-1.5,1.5-2.9.1-1.9,2.1-2.9,1-.9,2.1-1.5.6-3.8,9.3.9,1,1.9,4.2-2.9,5.2-.5,2.6-5.7-1-1.4-1.6-.5-2.6h-1.9l-1,1.1h-1.9l-1.4,2.6-4.3,3.6-1.4-.5,3.8-4.1,1-6.2,2.9-5.2,5.7-6.2,1-3.1,6.2-6.7h.9l3.3-2.6-1-2,.1-5.2,1.9-1,1-2.1v-7.3l-3.8-4.1-.5-1.6-1.9-1h-5.7l-1-1.1-2.4-.5V195l-2.3-2.7-1.9.1-2.9-3.1h-4.7l-1,1.1-1.9-1-3.8-3.1-3.9-1-2.4-2.6,1-1-1.4-1.5h-6.7l-4.7-4.1h-1.9l-.5-1.6,1.5-3.6,1.9,1,1-2.1,4.8,1,1-1.1h1.9l1,1.1h1.9l.5-4.7,3.3-.5,4.8-4.1,6.7,2.1,1,1h1.9l1.9,3.1h2.9l1.9-2.1h3.8l1.9,2.1,1.9,1,1.9-1,.9,1h1.9l1.5,1.6-1.9,5.2-1.9,2,1.5,1.7H493l1-1,1.9,3.1h1l1.9-3.1,1.9,1,2-1,.5-1.7-1.5-1.5-3.8-1.1-2.4-5.6-1.4-1.6h-1.9l-3.3-2.6,1.9-11.4,2.9-2.1.5-1.6h.9l2.4,2.6,1.5,3.6,1.9-1h3.8l2.8-3.1,6.7-2.1.5,1.5-1,2.1,2.4,2.6,3.4-2.6.9-4.1,2.8-3.2,1-3,3.8-4.2v-2l1-1.1-.1-6.2-1.9-3.1v-3.1l-1-1,.5-2.6,2.4,3.6.5,2.6,4.7,2.1,1.9,2h2.9l.9,1h1.9l3.9,2.1h2.8l.9,4.1h1.9l2.4-2.6v-3.1l2.4-2.5h1.8l1-1,1,1,2.9-.1,5.7-3.1,5.3.5-1.5,2.6-1.5.5,1.5,5.7h1.9l2.9-5.2,2.4,1.5-1,3.1-1.9,2.1V138l-4.7,3.1-.5,2.6h-5.7l-1.9,3.2-1-1.1h-3.8l-1.8-1-2,3.1-4.7-.1-1.9,3.2-1.4.5v2.1l-2,3.1,1.4,1.6h1.9l1-1.1,1.4.6-7.1,8.8-2.4-.6,1-1-1.5-1.6h-2.9l-6.1,6.7v3.1l-1,1,.5,2.6h1.9l.5-2.6,2.4-1.6h6.7l2.8-2.1,1,.1L549,168l1-3.1,5.3-5.6,4.7-3.1,3.8-1,.1-2.1-3.9,2.1h-3.8v-2.1l2.8,1,3.8-3.1h6.7l.9-1h1.9l2.9-2h1.9l1.9-2.1,1.9,1,1.9-2,2.9-1,1.9-3.1.9,1,1-1,5.7-1,5.7-4.2,1.4-1.5V132l-1.9-1,1.5-1.6h1.9l1.8-2.1,1,3.1,5.7-5.2h.9l8.6-11.4h1.9l2.8-3.1h1.9l5.2-3.6.1-5.2-2.4-2.8-5.7,3.1-3.8,4.2H619l-1.1,1h-2.8l-1,1.1-3.8-.1-1,1.1h-3.8l-1.9,1-.9,1h-1.9l-2,3.1-1.9,1-5.7-5.2-2,1-.5-.5-.4-3.6h-2.9l-.9-4.2-4.3.5v1.1l1.9,2.1-1.4.5-3.3-1.6,1-1-.5-1.7h-4.7v-1l3.4-.6-3.4-2.5-1,1h-4.8l-.4,1.7-2.5.4-1.8,2.1-2.4-.5,2.9-2V98.4l-1.9-1V94.3l2.4-.5,2.9,4.1h1.9l.4-3.6,1.4-2.7,1.4-.4V89.1l5.8-5.1L576,81.4h-1.9L568,87l-.4-2.7,2.8-4.1-.5-2.6-2,1H565l-2.9-2-.5,4.7-4.3.5-1-1-3.8.1-1,.9-3.3-.5,1.9-3.2v-2l5.8-4.2-1.5-2.6L550,67.8V65.7l-1.4-2.6-1,1.1h-1.9l-1.9,2.1-1.4-.6,1.9-3.1-1-6.2,2.4-.5,1.5-1.6-.5-1.5h-3.8l-.9-1h-1.9l-1,3.1h-1.9l-.9-1.1-1,1-1.3.5-.4,1.6h-1l-.4-2.6-1.5-1.5-4.8,1-2.4,2.5v2.1l-2.9,5.2v2.1l-.9,1v3.1l-2.4,2.6-3.8,1-2.9-2L509.2,74v2l-3.4,1.6-1.9-2.1h-2l-2.3,3.7v2.1l-1.5,1.5-1.4-.4-.5-2.7-2.9,2.1h-3.8l-1,1.1-.4-.5,1-2V77l-1-1.1V68.7l.5-.5,1.4,1.6v1.1l3.3.5,2.4-2.6,1-5.1,5.2-5.7,1.4.5-1.9,2.1.5,1.5h3.8l2.1-1.8-.4-.8-.1-.5v-.5l.3-.2.2-.3.3-.4.1-.1.2-.4.3-.8-.2-.6-.6-.5-.6-1-.6-.7-.6-.4-.1-.4-.1-.2.1-.5h0l-.4-.1h-.5l-.5-.3-.7-.3-.6-.2-.5-.1-.3-.4-.1-.6v-.6l-.2-.4-.3-.4-.6-.1-.4-.4-.1-.1-.2-.4-.2-.5-.2-.4-.4-.4-1-.8h-.4l-.3.1-.3.1-.2.6-.6.1-.6-.1-.5.3h-.7l-1.1.1-.7-.1-1.2-.8-.9-.6-.8.1-.5-.2-.5-.5-.4-.2-.6-.5-.6.1-.3.3-.4.2-.5.3h-.8l-.4-.3-.9.1-.9.1L482,45l-.6.1-1,.1-.4-.4-.2-.5v-.1l-.2-.5-.5-.3-.6.1-.3.3h0l-.3.3h-.6l-.4-.2-.1-.1-.5.1h-.1l-.6.1h-1.3l-.3.4v.1l-.1.6-.2.5-1.2.4-.9.2-.7-.1-.4-.2-.5-.3-.5-.1-.6.3-.8.1H467l-1-.1-1-.1-.7-.1-.6.2-.4.6-.2.4v.1l-.7.1-.5-.1h.1l-.9-.3-1.1-.2-1.5-.1-.5-.2h-.5l-.4.1-.2.5-.1.3-.4.7-.8-.4-2-1.1-.7-.3-.2-.4-.1-1.2-.1-.4-.1-.4-.1-.2h0l-.1-.4v-1l-.3-.5-.6-.6-.4-.4-.4-.3-1,.2-.4.2-.2.1-.8.2h-1.2l-.5-.1h-.8l-.5.2h-.5l-.4-.2-.2-.2-.7-.5-.3-.4-.3-.3-.4-.2-.8-.2H441l-.4.2-.3.2-.4.3-.4.3-.1.5-.2.4-.3.5-.4.1-.6.2-.7.1-.8-.1-.5-.4-.2-.5-.2-.5L435,39l-.4-.5-.6-.4-.5.1-.4.2-.3.1-.7.7-.3.4-.8,1.2-.6,1-.3.6-.3.5-.3.9-.1.4-.2.5-.2.4-.4.4-.2.5-.2.8-.4.4L427,47l-.7.1h-.6l-.3-.1-.4-.1-.5-.1-.7-.2-.5.2-.4.8v1l-.1.4v.5l.2.6-.1.6-.3.8-.3.3h-.5l-.5.1-.4.5-.2.8-.1,1v1.5l.2.6,1,.3.5-.2-.3-.6v-.5l.5-.1.4.1.4.5v.7l-.2.5-.5.3H422l-.5.3-.4.5-.3.5-.5.5-.4.4-.7.9h0l-.1.4v.7l.4.9-.5.5-.5.3-.9.1-.5.4-.5-.2-.6.1-.8.4-.5-.2-.1-.5.1-.6v-.3l-1,.2-.5-.1h-.4l-.5.2h-.5l-.2-.6-.5-.2-.6-.1-.8-.3-.5-.1-.5-.5-.5-.2-1.1-.1-.5-.1-.7.2-1,.8-.4.6-.5.3-.2.1-.3.2-.1.2-.4.5-.3.1-.3-.3-.4-.4h-.5l-.6-.2-.3-.4-.4-.1-.6.5-.5.3-.4-.1-.4-.4-.6-.2-.5.3-.1.5-.2.6-.2.5-1.5,1.4-.5.3-.2-.1-.2-.1-.9-.6h0l.5-.2.1-.5-.5-.3-.9.4-.3.7-.1.7-.7.5-.4.1-1.1.3-.4.2-.4.2-.5.4-.5.5-.3.5v.7l.3.4.6,1,.2.6-.5-.1-.5-.5-.3-.1h-.5l-.5.4.1.6.3.3.2.6h-1l-.6-.2h-.8l-1.5-.6h0l-.8.2h-.1l-.5.2-.6.6v3.9l-.7.5-.4.2-1.7,1.1-.8.2-1.5-.5-.6-.4-.6-.5-.4-.5.1-.7.1-1.6V72.4l-.1-1.5-.3-.5-.6-.4h-.7l-.5.5-.2,1-.2.4-.4.5v.1l-.7.2h-.8l-.5-.2-.4-.2-.7.1-.4.6v1l-.1.7-.2.6-.5.3-.6.1-.1-.5.2-.5v-.4l.1-.5.1-.4v-.1l.3-1-.3-.8-.5-.1-1,.3-1,.3-.5.2h-.1l-.8.1-1.1.3-1.1.3-.5.1-.6.1-.6-.1-.5-.2-.2-.2-.1-.1h0l-.5-.5-.4-.6-.1-.2-.3-.5-.4-.6-.4-.4-.5-.3-.5-.3-.6-.2-.8-.3-.7-.1-.8.2-.5.1h-.1l-.5.1-.6.2-.5.3-.6.5-.4.4-.4.4-.5.6-.3.4-.3.5-.3.5h0l-.4.5-.3.5-.3.6-.3.4-.5.3-.5.2-.8.2h-.5l-1,.2-1.1.2h0l-.6.1-1.4.5-.7.3-.4.4-.4.6-.1.7v1l.1.5.6.7.5.5.7.6.3.2,1.2.7.2.1.4.3.7.3,1,.6.4.2.1.1.1.1.6.4.6.7.2.3.1.6-.1.7-.3,1-.8,1-.8,1.1-1.4,1.5v.6l-2.4,3-4.5,1.5-4.2-3.3-4.6.2-3.8,1.2-2.9,3.1h-1l-2.4,3.6-1,5.2-3.3,3.6-2.3,1.6-3.4.9-4.7-1.4-1-1-7.6-.1-5.7,5.2-2.9,1-4.4,4.7-.9,4.1,1,1.1,1,6.2,2,2v3.1l-1,1v4.1l1,1.1-1,1-.5,5.7-1.5-7.8-2.4-2.5h-1.9l-3.8,3.1-6.7,3.1-1.9,2.1h-4.8l-.5-5.7.9-1V137l4.8-6.2-1.4-2.6h-2.9l-1,1h-5.7l-.9-1h-2.9l-.9,2.1h-3l-3.5,2.6-2.9,7.3-3.3,5.7h-1l-3.9,4.1h-1l-5.2,5.7v1l-4.7,7.2-1,4.1-4.3,4.7-15.2,7.2h-3.9l-2.4,2.6.1,1-8.7,9.3-1.9,9.3-4.3,3.6h-.9l-2.4,2.6-.5,4.6-5.7,3.1h-4.8l-1,1.1-5.7-.1-1,1.1-1.9-1H151l-1,1h-1.8l-3.4,3.6v2l-2.3,3.6-1.9,1h-3.8l-2.4,2.6-.1,3.1,3.3,2.6h4.8l5.3,4.6.9,2.1-1,1,.1,4.1L150,252h1l2.4,2.6v2.1l1,1.1V265l-1.9,2.1-.1,3.1,4.8,5.2.5,1.6,3.8,2.1h8.6l1,1.1,4.8,1,3.8,3,1.9.1,1.9,1,1.9-1,1.9-3.1,6.7-3.1,1.9-2,5.3-.5v-2.1l4.8-5.2V263l1.9-2v-1l3.3-3.6,1.4-.6v-3l-.9-1,.4-3.6.9,1,7.1.5v2.1l2.8,3.1V259l-.9,1.1-.9,2-.1,4.2,1,.9v2.1l2.3,2.5,1.9.1L231,276h4.8l2.3,2.5-1.4,2.7h-1l-1.4,1.5,1.4,2.6,4.7,1.1,1-1,1.9,2,2.9.1.9,1,1.1-1.2.9-2.1h2.8l3.8-3h1.9l1.4,1.6.5,2.5,3.8-2.1,4.3,1.5v3.1l2.4,4.6,5.7-.1.9,1.1h5.7l1-1.1h3.8l2.9-2h1.9l6.7-4.3h5.7l1-1,1.9-.1,7.6-6.2h1.9l5.7,3.1,1,1.1,5.8-1,1.9-3.2,1.9-1h5.8l.9-2.1,5.7,3.2,2.8-.1,1-1h5.7l1-1.1,6.7-1,3.8-4.1,6.7,1,4.3,5.7v3.1l-2.8,3,4.8,6.2v3.1l1,2-1,2,1,2.1,1.4,1.5h1.9l1.8-2.9,2.4-1.5.5-2.6h1.9l.5,2.5-1,1v4.2h-.9l-1.5-2.7-1.5,2.7,2.4,4.6,4.8,1.1,6.7,8.2h2.9l2.8-5.2.5,2.6-2,4.1,2.4,1.5,1.9-.1,1,1.1h8.5l2-1.1,1.9,2.1h1l9,8.8-.9,1.1v6.2l1.4,2.6,1-1,3.8-.1,1.5,2.6v5.2l.9,2-2.8,2.1v2l.9,1.1,3.3,16h8.8l2.9-4.2.9.1,1-2.1h1.9l2.4-1.5.1-4.1,1.4-2.6,7.6,4.2,1.5-1.6V356l1-1v-4.1l-1.5-1.6-2.4-.5v-3.1l1.5-.5,3.3-3.6v-2.1l2.4-1.5,6.7,7.3h1l13.4,13.4,2.4-3.6-4.4-5.8h-2.8l-2-3.1H487l-13-14,1.4-.5,3.8,4.1,1.4-2.6-.1-3.1-1-1,.5-1.6h7.7l3.4,2.6-.5,6.7-2.4-1.5v-3.1l-1.4-.5-.5,2.5-2.9,3.1v2.1l3.4,3.6h.9l2.8,3.1,3.9-2.1,1,2.1h1l6.2,6.7.5,1.5,1,.1,3.3,3.5,4.3,7.8,1.9-1.1,4.3.5v1l-2.9,2.1,1,2v1.1l1.9,1,.5,1.5,2.3.5.5,4.7,1.9,1h2.8l1,1,2.4-1.6v-1l11.5-13.3.9-2.1v-3l-1.9-4.1-2-1,1.5-.5,2.4-2.6.9-3.1,1.9-2-1-11.4-3.3-3.6h-1l-1.9,2.1-.5-2.6,1.5-1.6H544l1.9,1,.5,2.6,2,3.2v2l2.3,2.7,2.8-.1.5-2.5,1.5-1.5.4,1.6,1.9,1-1.9,2-.4,2.6h-1.9l-1.5,1.6V352l2,1-.1,1,1.9,1,1,2.1v3.1l1,2.1,2.4,2.5,2.4.5v2.1l1,1v3.1l1,1.1-.9,7.2,1.4,2.6h2.9l.5,2.6,1,1-4.6,4,1,11.4,1.4,2.6,2.9-.1.9-2.1,1.5-.5.5-3.6.9,1.1,6.7,1,.5,2.5,1.4,1.5h2.9l1.9,1,2.9,7.2h1.9l1.4-1.6v-5.1l1.4-.5,2.9,2.1,2.4-1.5.9-3.1-1.5-3.6-3.8,2-1.4-.5v-6.3l-.9-1-.1-3.1,2-2.1-1.5-2.5h-1.9l-2.4,2.6-.9,3.1-3.3,3.6-1.5-.5,2.4-3.6,1.4-.5v-2.1l-6.2-.5-.9-1-1.4-.5-.1-3.1,2-1v-2.1l-2-3.1,3.3-2.5h1.9l.5,1.5,3.3,2.6H595l3.8-4.1,4.8-2.1,1.4-1.6.1-5.1,1.9-1-2.9-4.1V358l-5.8-6.2v-2.1l-1.6-1.4h-1.9l-1,1.1H590l-3.4,3.6.1,2.1-1.5.5-1.4-2.6-1.9-1,1.9-1v-3.1l-.9-1v-2.1l-1.9-1-.5-8.7h-1.9l-1,1.1-5.7-1.1-2.9,2.1h-2l-1-2.1-3.8-1-1.3-1.7.1-7.2-2.9-5.2.1-2.1-2.4-1.5-1.5-2.6v-6.2l1-1v-3.1l1.9-3.1-1.5-1.6h-2l-.9,1-1.4-1.5V296l-4.2-3.6h-1l-1.9,3.1h-5.7l-.5-1.5,4.8-3.1,1-3.1,3.8-4.1v-4.1l1.5-.5.9,1.1,1.5-1.6.5-3.5,4.2,3.5.1,2.1.9,1-1,1v3.1l-3.8,3.1.5,3.6,1.9-1.1,3.8,1.1,1.3,4.7,3.4,3.6,2.3-1.5V296l2-1-1-2,1-1.1v-4.1l-4.8-2v-2.1l-2.9-6.2,1.9-4.2-.1-6.2-3.2-2.6-2.4-.5,1.5-1.6h1.9l.4-1.6,3.8-4.1v-2.1l1.9-2,1-4.2,1.4-1.5,1,1H571l.5-1.5,2.4-1.6h2.9l2.4,3.6,3.3,4.7h3.8l1.8-3.1.5,2.6,1.9,2,.5,3.7h1.9l1.5-1.5v-2.1l.5-.6,2.9,4.1h1.9l.9-1.1,2.9.1.4-2.6-.9-1v-2.1l2.4-3.6h1.9l.9-1h2.9l3.8-2.1,1.4.5-.5,1.6-3.2,1.6v3.1l1.9,1-1,8.3,1.5.5,2.8-2,.5,1.5,2.4,2.6,7.6,4.1,3.8-2.1.5,1.5,3.4,2.6h2.8l1-2.1,1.9,1,1.5-1.6-2.9-6.1-1.9-1,.5-3.6,2.9,2.1h1.9l.9,3.1,3.4.5V265l4.3,3.6h1.9l.9,1h4.8l1-3.1,1.4,2.5-1,1.1v3l3.3,3.6,5.8,1,1.9,2h1.9l1.9,3.1H679l.9,1h4.8l1.4-1.5v-2.1l-2.4-2.6-4.3-2.5-.1-3.1-1-1,2.4-2.6,1.9,2.1h1.9l1.9-2,1.5,1.5-.1,3.1,2.9,6.2,1.5,1.5H695l2.4-2.6v-3.1l-1.4-2.5-1.5-.6-1.9-4.2,4.8-1-1-11.4-1-1v-3.1l-1.4-.6-1.9-2.1h-1.9l-1.1,2.1-.9-2.1-2.4-1.5-1-3.1-4.3-4.6h-2.8l-2.9,5.2-1.4-.6,1-1v-3.1l-2.7-2.1,3.3-.6,3.3-2.5v-8.3l2.4-1.5,1,2.1h.9l1.5-1.6-1.9-3.1.9-4.2,1.5-1.6,3.8.1,2.9-4.2h1.9l.9,1.1h4.8l2.3,5.6,1.5,1.6h1l2.8,3.1,1-1.1h1.9l1.9,1,2.3-2.6-.9-2v-2.6Zm-56.8,112-2.9,4.2-1.8-2h-1.9l-2.4,4.6v2.1l-1.8,2v2.1l1,1v2.1l1.4,1.5h.9l1.5-1.6.5-2.6,1.9,1,3.3-2.5v-3.1l-.9-1,3.8-3.2,1-2-.5-1.5ZM501.6,192.7l.5.6,2.4-2.6-.5-3.6-2.4,3.6Zm7.2-16h2.8l1.9-3.2,2.3-1.5v-2l1.9-2.1v-1.1l-2.3-1.5h-3.8l-.5,1.6-2.9,2V172l-3.8,3.2v2l3.4.5Zm-10.6-9.3-1-1-1.4.5V168l1.4,1.5h2.9l.5-.5-.5-1.6Zm4.8-3.1,1.5-1.6-.1-3.1-.4-.5h-1l-2.4,1.6v3l.5.6Zm235.6-9.7v2l-1,1.1.5.5H740l.5-.6v-2L739,154ZM561.8,198.9l-.1-2.1-.4-.5h-1l-1.5,1.6v1l.5.5h1.9Zm186.8-138-3-3.1h-1.9l-1.4-1.5.5-8.8-4.8,1-1.4,1.6-1,5.1,1,1.1v5.1L738,63h2.9l3.8,3.1h1.9l1,1h4.8l2.4-2.6v-3ZM729.4,161.2l-.5.6v1.1l1.4,1.6h.9l.5-.5v-1.1l-1.4-1.6h-.9Zm-14.3,60-.5.6v2l.5.6,1.4-1.5v-1.1l-.5-.6ZM506.9,73.4l-.5.5,1.4,1.5.5-.5V73.8l-.5-.5h-.9Zm-16.8,6.7.5.5h1l.5-.5-1.4-1.5-.5.5-.1,1ZM629.6,138v1l1.4,1.5.5-.5v-2l-.5-.5h-.9Zm60.7,99.7h1.9l.5-1.5-1-1v-2.1l-.5-.5h-1.9l-.5.5,1,1.1-.1,3.1Zm-61.1-91,.5-.5v-1l-.5-.6h-.9l-.5.5v1.1l.5.5Zm-52.6,19.7h1.9l1.5-1.6v-1l-.4-.6h-1.9l-.5.5v1.1l-1,1Zm-15.2,42.4,1.4-1.5v-1.1l-.5-.5h-1l-1.4,1.5-.1,1.1.5.5Zm19-47.6h1.9l.5-.5-.1-2.1-.4-.5-.9-.1-.6.5v1.1l-.9,1Zm49.2-18.1v-2l-.9-1.1-.5-2.6-1.5.5V142l1.4,1.6Zm-53,128.7.5-.5v-2.1l-.4-.5h-1.9l-.5.5v2.1l.5.6Zm-21,120.8,1.9,1,1.9-3,2.9-.1,1.4-1.5v-2.1l-1.4-1.5-7.6-1.1-3.3,5.7v4.1l1.4,1.6h1Zm14.3-131.1-1-1.1-.4.6v3.1l.5.5h.9l.9,1.1h1l1.4-1.6-2.3-2.6Zm9.5,2.1-1-1.1h-.9l-.5.5-.1,1,1.4,1.5h1l1.4-1.5-.5-.5Zm-4.3-12v-1l-.5-.6h-.9l-.5.5-.1,1.1-.9,1,.5.6h.9Zm12,22.2-.5.5v1.1l.5.5h.9l.5-.5v-1.1l-.5-.5Zm-3.3,17,2.8,1-1,4.2,4.3.5.5-1.6-.9-1v-3.1l-1-1v-5.2l1.9-2.1-1-1v-2l-3.8-3.1v-4.2l2.4-.4.5-1.6-3.4-2.6h-.9l-1.8,3.1-1.5.5-1,4.1-2.9,2v2.1l4.8,5.2Zm12.4,3.1-.1,5.1,1.9,4.2,3.4,3.6,4.8,2.1,1.8-3.1h1l1.9,3.1h2.9l.9,1h4.8l1.4-2.6-1.9-3.1,2.9-1v-2.1l1.8-2.1-.9-2,.9-2.1-.4-4.7-3.9-1-2.8-2.1-3.3-.5,1.9-2v-6.2l-3.8-6.2,1-1v-4.1l-2.3-2.6-2.4,2.7.1,2-2.4,2.6-1.5-.6,2.9-3.1,1-5.1-3.8-.1-1,3.1-1.9,1-.9,3.1-1.5.5-.5,1.6-3.8,4.1v3.1l2.4.5.9-1.1.5.5v4.2l2,3.1-3,1,1,1v3.1ZM580,269.1l.5.6h.9l.5-.5v-1l-.5-.6h-.9l-.5.5Zm-2.4,17.2.5-.5-.1-3.1-.4-.5h-1l-.5.5v1l-.9,1.1,1.4,1.5Zm3.8,211.6-.4.5v1.1l1.4,1.5.5-.5v-2.1l-.5-.5Zm-1.9,0-1.9,1-1,2.2-3.4,1.5v4.1l1,1.1v2.1l1.4,1.5,2.8.1,2.4-1.6-.1-8.2Zm-10.1-92.4-.4-.5h-1l-.6.5v1.1l.5.5h.9l.5-.5Zm-5.2.6-1.5,1.5.5.5h.9l1,1h.9l.5-.5v-2.1l-.5-.5Zm22.9-71.2,1.9,1h1.9l.9-1,1,1.1,1.4-.5,1-6.2-2.4-.5-6.7-6.2-2.4.5v7.2l3,3Zm3.4,82-1.9-1-.5-2.5-4.9,1-1.9,2.1h-1l-1.9,3.1-.9-1h-3.9l-3.3,3.6v5.1l-.9,1.1v2.1l4.3,3.6h1.9l2.4,1.6-1,1v3.1l3.3.5,1.5-1.6.5-3.6,1.9-1,2.9,2.1,1.5-.6,1-2v-3.1l-1-1.1,2.9-2,.1-4.2-1.9-1Zm7.6,83.5v5.3l1.5.5,1.4-1.5-.4-4.7Zm-2.4,6.8-.5.5v2.1l.5.5h1l1.4-1.5v-1.1l-.5-.4ZM610,389.5h-1.9l-.9,1.1-1.5.5v2.1l1.4,1.5,2.9,1,1.4-2.6v-2Zm-7.6-127,.5-.6v-1l-.4-.5h-.9l-.6.5V262l.5.6Zm12,86.3v-2.1l1-1.1-.4-.5h-2l-.5.5.1,3.1.4.5h1Zm13.3-28.9-3.8-3.1-.1-2.1-2.3-3.6h-9.6l-2.4,2.5v3.1l2,2.1.9,4.1,1,1.1v2l2.3,4.6,2-1h2.8l2.8,2.1,2.9-3.1h1.9l.5-4.7-1-1.1ZM618.6,278l-.5.5v1.1l1.4,1.5h1.9l.5-.6v-1.1l-1.4-1.5ZM633,316.2l-2.9-1-.5.6.1,4.1.4.5h2.8l.6-.5-.1-3.1Zm-26.8,44.5,1.4-.5v-3.1l-1.5-1.6-1.5.5.1,3.1Zm37.3,46.4-.5.5-.1,1,1.5,1.5,1.4-1.5-1.4-1.5Zm7.6-12.4h-1l-.4.5v2.1l.5.5h1.9l.5-.5-1-1v-1ZM597.6,262.5l-.9,1.1-1-1.1h-1.9l-.4,4.6,3.3,3.6L600,267l-.9-1v-2Zm50.2,136.9-2.9,2,.1,4.1,2.4,2.6,1.4-.5v-2.1l2.8-3.1-1.5-3.6-1.8-1Zm-.9,18.5-1.5-1.6-1.4,1.6v1l1.4,1.6h1.9l.5-.5-1-1Zm-54-145.1-.5.5v2.1l.5.5,1.5-1.5v-1.1l-.5-.5Zm60.6,141-1.4-3.6-1.5.5-.4,3.6-1.9-1-1.5,1.5,2.4,5.7,1.9-1,1.9,1,.5-.5-1-4.2ZM622.9,281.6l2.4.5.5-4.7,1-1v-4.1l-6.2-5.6-3.8-.1-1.4,4.7,2.3,3.6h1.9l1.9-2,.5.5Zm-31-12.9-.5.5v1.1l1.4,1.5h1.9l.5-.6-2.5-2.5Zm8.1-4.6v1.1l.5.5h.9l.5-.5v-1l-.5-.6h-.9Zm15.3,4.1-1.4-1.6-.5.5v2l.5.6Zm-7.2-18h-1l-.5.5v2.1l.4.5,1,.1.5-.6v-2.1Zm1,8.2H611l1.5-1.6v-1l.9-1.1-.5-1.5H610l-.5.5-.1,1.1-.9,1v2.1Z"/></g><line class="cls-4" x1="642.5" y1="488.9" x2="677.7" y2="488.5"/><polygon class="cls-5" points="674.7 491 677.2 488.5 674.7 486 676.8 486 679.4 488.5 676.9 491 674.7 491"/><line class="cls-6" x1="642.5" y1="468.6" x2="677.7" y2="468.2"/><polygon class="cls-7" points="674.7 470.8 677.2 468.2 674.7 465.7 676.8 465.7 679.4 468.2 676.9 470.8 674.7 470.8"/><path d="M671.5,494.9l-.9.6.6.9h0l.3.5,1.2-.9-.4-.6-.3.2-.5-.7Zm-1.6,1.2-9,6.5v.1l-.1,1.2a.82.82,0,0,1-.4.6l-2.2,1.6a.83.83,0,0,1-1.2-.2h0l-.3-.4-1.6,1.2a.19.19,0,0,0,0,.3l.1.2a.19.19,0,0,1,0,.3l-2.7,3.2h0l-4.9,3.8a.3.3,0,0,0,0,.4l2.2,2.9c.1.1.1.1.2.1h0c.1,0,.1,0,.2-.1l4.5-6a.31.31,0,0,0,.1-.2,2.77,2.77,0,0,1-.1-.9l1.6-2.1,14.6-11.2-1-1.3Zm-9.9,6.4-2.9,2.1.5.7,2.3-1.6Zm1.1,3.5-2.1,1.6.4.8c.1.1.1.1.2.1h0a.35.35,0,0,0,.2-.1l1.2-1.6v-.2l.1-.6Zm-3.2,2.5-.3.2a.65.65,0,0,1-.2.9.85.85,0,0,1-.7,0l-.1.2-.1.2a1.13,1.13,0,0,0,1.5-.4h0a.9.9,0,0,0-.1-1.1Z"/><text class="cls-8" transform="translate(687.54 474.02)">Axis</text><text class="cls-9" transform="translate(686.08 492.5)">A</text><text class="cls-8" transform="translate(693.39 492.5)">llies</text><text class="cls-8" transform="translate(685.2 512.08)">B</text><text class="cls-8" transform="translate(691.7 512.08)">a</text><text class="cls-8" transform="translate(697.44 512.08)">ttles</text><text class="cls-9" transform="translate(685.2 539.95)">A</text><text class="cls-8" transform="translate(692.51 539.95)">ir </text><text class="cls-8" transform="translate(701.78 539.95)">S</text><text class="cls-8" transform="translate(707.66 539.95)">t</text><text class="cls-8" transform="translate(711.64 539.95)">r</text><text class="cls-8" transform="translate(715.61 539.95)">ike</text><path d="M663.6,527.9c.1.1.1.2-.2.9a1.47,1.47,0,0,1-.2.4l.2.2a.37.37,0,0,1,.1.3,11.38,11.38,0,0,1-1.8,2.5c-.4.4-.6.6-.6.7a6.89,6.89,0,0,0,.3.8c.3.7.4.8,3.6,4.4a32.64,32.64,0,0,1,3.4,4c.1.6-.4,1.1-1.7,1.8l-.7.3-9.7-7-5.8,4.4.1.2c.1.1.7.9,1.3,1.7a6.1,6.1,0,0,1,1.2,1.6c0,.4-1.5,1.6-1.7,1.3a9.51,9.51,0,0,0-2-1.5,9.19,9.19,0,0,1-3.2-3.2,9.51,9.51,0,0,0-1.5-2c-.2-.2,1-1.7,1.3-1.7.6.4,1.1.8,1.6,1.2a10.32,10.32,0,0,0,1.7,1.3l.2.1,4.4-5.8-7-9.7.3-.7c.7-1.3,1.2-1.8,1.8-1.7.2,0,1.1.8,4,3.4,3.6,3.2,3.7,3.3,4.4,3.6a6.89,6.89,0,0,1,.8.3,1.79,1.79,0,0,0,.7-.5,14.37,14.37,0,0,1,2.5-1.8.6.6,0,0,1,.4.1l.2.2a.52.52,0,0,1,.4-.2c.9-.1,1-.1,1.2.1Z"/><path d="M541.5,329.7l-.9.6.6.8h0l.3.5,1.2-.9-.4-.6-.3.3-.5-.7Zm-1.6,1.1-9,6.5v.1l-.1,1.2a.82.82,0,0,1-.4.6l-2.3,1.6a.83.83,0,0,1-1.2-.2l-.3-.4-1.6,1.2a.37.37,0,0,0-.1.3l.1.2a.19.19,0,0,1,0,.3l-2.6,3.2h0l-4.9,3.8a.3.3,0,0,0,0,.4l2.2,2.9c.1.1.1.1.2.1h0c.1,0,.1,0,.1-.1l4.5-6c.1-.1.1-.1.1-.2a2.77,2.77,0,0,1-.1-.9l1.6-2.1,14.6-11.2-.8-1.3Zm-9.9,6.4-2.9,2.1.5.8,2.3-1.6Zm1.1,3.5-2.1,1.6.4.8c0,.1.2.2.3.2h0a.35.35,0,0,0,.2-.1l1.2-1.6a.31.31,0,0,0,.1-.2l-.1-.7Zm-3.2,2.4-.3.2a.78.78,0,0,1-.2,1,.85.85,0,0,1-.7,0l-.1.2-.1.2a1.13,1.13,0,0,0,1.5-.4h0c.1-.1.1-.2.1-.4a1.08,1.08,0,0,0-.2-.8Z"/><g id="Land_Mark" data-name="Land Mark"><text class="cls-10" transform="translate(439.94 469.5)">R</text><text class="cls-10" transform="translate(445.34 469.5)">e</text><text class="cls-10" transform="translate(450.34 469.5)">p</text><text class="cls-10" transform="translate(456.01 469.5)">u</text><text class="cls-10" transform="translate(461.5 469.5)">l</text><text class="cls-10" transform="translate(463.86 469.5)">s</text><text class="cls-10" transform="translate(467.8 469.5)">e</text><text class="cls-10" transform="translate(474.91 469.5)">B</text><text class="cls-10" transform="translate(480.31 469.5)">a</text><text class="cls-10" transform="translate(485.04 469.5)">y</text><text class="cls-10" transform="translate(501.59 359.57)">D</text><text class="cls-10" transform="translate(508.27 359.57)">e</text><text class="cls-10" transform="translate(513.27 359.57)">v</text><text class="cls-10" transform="translate(518.06 359.57)">i</text><text class="cls-10" transform="translate(520.39 359.57)">l</text><text class="cls-11" transform="translate(522.81 359.57)"></text><text class="cls-10" transform="translate(524.15 359.57)">s</text><text class="cls-12" transform="translate(530.21 359.57)">P</text><text class="cls-10" transform="translate(535.27 359.57)">e</text><text class="cls-10" transform="translate(540.26 359.57)">a</text><text class="cls-10" transform="translate(545.06 359.57)">k</text><text class="cls-10" transform="translate(498.28 281.15)">G</text><text class="cls-10" transform="translate(504.72 281.15)">i</text><text class="cls-10" transform="translate(507.05 281.15)">n</text><text class="cls-10" transform="translate(514.7 281.15)">D</text><text class="cls-10" transform="translate(521.34 281.15)">r</text><text class="cls-10" transform="translate(524.63 281.15)">i</text><text class="cls-10" transform="translate(526.97 281.15)">n</text><text class="cls-10" transform="translate(532.5 281.15)">k</text><text class="cls-10" transform="translate(537.18 281.15)">e</text><text class="cls-10" transform="translate(542.17 281.15)">r</text><text class="cls-10" transform="translate(545.43 281.15)">s</text><text class="cls-13" transform="translate(551.49 281.15)">L</text><text class="cls-10" transform="translate(556.19 281.15)">i</text><text class="cls-10" transform="translate(558.53 281.15)">n</text><text class="cls-10" transform="translate(564.06 281.15)">e</text><text class="cls-10" transform="translate(461.36 347.95)">K</text><text class="cls-10" transform="translate(466.92 347.95)">a</text><text class="cls-10" transform="translate(471.72 347.95)">i</text><text class="cls-14" transform="translate(475.76 347.95)">T</text><text class="cls-10" transform="translate(480.08 347.95)">a</text><text class="cls-10" transform="translate(484.88 347.95)">k</text><text class="cls-15" transform="translate(461.36 359.91)">A</text><text class="cls-10" transform="translate(467.43 359.91)">i</text><text class="cls-10" transform="translate(469.76 359.91)">r</text><text class="cls-10" transform="translate(473.06 359.91)">p</text><text class="cls-10" transform="translate(478.73 359.91)">o</text><text class="cls-10" transform="translate(484.2 359.91)">r</text><text class="cls-10" transform="translate(487.7 359.91)">t</text><text class="cls-10" transform="translate(379.43 349.28)">S</text><text class="cls-10" transform="translate(384.31 349.28)">t</text><text class="cls-10" transform="translate(387.55 349.28)">o</text><text class="cls-10" transform="translate(393.02 349.28)">n</text><text class="cls-10" transform="translate(398.56 349.28)">e</text><text class="cls-10" transform="translate(405.66 349.28)">C</text><text class="cls-10" transform="translate(411.33 349.28)">u</text><text class="cls-10" transform="translate(416.82 349.28)">t</text><text class="cls-10" transform="translate(420.12 349.28)">t</text><text class="cls-10" transform="translate(423.36 349.28)">e</text><text class="cls-10" transform="translate(428.35 349.28)">r</text><text class="cls-10" transform="translate(431.61 349.28)">s</text><text class="cls-10" transform="translate(379.43 361.24)">I</text><text class="cls-10" transform="translate(381.81 361.24)">s</text><text class="cls-10" transform="translate(385.76 361.24)">l</text><text class="cls-10" transform="translate(388.11 361.24)">a</text><text class="cls-10" transform="translate(392.92 361.24)">n</text><text class="cls-10" transform="translate(398.45 361.24)">d</text><text class="cls-10" transform="translate(218.28 182.92)">C</text><text class="cls-10" transform="translate(223.99 182.92)">a</text><text class="cls-10" transform="translate(228.79 182.92)">s</text><text class="cls-10" transform="translate(232.74 182.92)">t</text><text class="cls-10" transform="translate(236.04 182.92)">l</text><text class="cls-10" transform="translate(238.39 182.92)">e</text><text class="cls-12" transform="translate(245.5 182.92)">P</text><text class="cls-10" transform="translate(250.55 182.92)">e</text><text class="cls-10" transform="translate(255.55 182.92)">a</text><text class="cls-10" transform="translate(260.35 182.92)">k</text><text class="cls-10" transform="translate(267.14 182.92)">R</text><text class="cls-10" transform="translate(272.54 182.92)">o</text><text class="cls-10" transform="translate(278.02 182.92)">a</text><text class="cls-10" transform="translate(282.82 182.92)">d</text><text class="cls-10" transform="translate(417.3 266.58)">S</text><text class="cls-10" transform="translate(422.21 266.58)">h</text><text class="cls-10" transform="translate(427.75 266.58)">i</text><text class="cls-10" transform="translate(430.08 266.58)">n</text><text class="cls-10" transform="translate(435.61 266.58)">g</text><text class="cls-10" transform="translate(443.3 266.58)">M</text><text class="cls-10" transform="translate(451.34 266.58)">u</text><text class="cls-10" transform="translate(456.83 266.58)">n</text><text class="cls-10" transform="translate(464.48 266.58)">R</text><text class="cls-10" transform="translate(469.88 266.58)">e</text><text class="cls-10" transform="translate(474.88 266.58)">d</text><text class="cls-10" transform="translate(480.5 266.58)">o</text><text class="cls-10" transform="translate(485.97 266.58)">u</text><text class="cls-10" transform="translate(491.46 266.58)">b</text><text class="cls-10" transform="translate(497.14 266.58)">t</text><text class="cls-10" transform="translate(465.26 237.73)">S</text><text class="cls-10" transform="translate(470.18 237.73)">h</text><text class="cls-10" transform="translate(475.71 237.73)">a</text><text class="cls-14" transform="translate(482.22 237.73)">T</text><text class="cls-10" transform="translate(487.05 237.73)">i</text><text class="cls-10" transform="translate(489.39 237.73)">n</text><text class="cls-10" transform="translate(497.03 237.73)">R</text><text class="cls-10" transform="translate(502.49 237.73)">i</text><text class="cls-10" transform="translate(504.83 237.73)">v</text><text class="cls-10" transform="translate(509.52 237.73)">e</text><text class="cls-10" transform="translate(514.52 237.73)">r</text><text class="cls-14" transform="translate(453.64 199.53)">T</text><text class="cls-10" transform="translate(457.95 199.53)">a</text><text class="cls-10" transform="translate(462.76 199.53)">i</text><text class="cls-12" transform="translate(467.2 199.53)">P</text><text class="cls-10" transform="translate(472.26 199.53)">o</text><text class="cls-10" transform="translate(479.84 199.53)">R</text><text class="cls-10" transform="translate(485.24 199.53)">o</text><text class="cls-10" transform="translate(490.72 199.53)">a</text><text class="cls-10" transform="translate(495.52 199.53)">d</text><text class="cls-10" transform="translate(403.95 307.97)">G</text><text class="cls-10" transform="translate(410.44 307.97)">o</text><text class="cls-10" transform="translate(415.92 307.97)">l</text><text class="cls-10" transform="translate(418.27 307.97)">d</text><text class="cls-10" transform="translate(426 307.97)">H</text><text class="cls-10" transform="translate(432.6 307.97)">i</text><text class="cls-10" transform="translate(434.94 307.97)">l</text><text class="cls-10" transform="translate(437.29 307.97)">l</text><text class="cls-14" transform="translate(349.71 312.1)">T</text><text class="cls-10" transform="translate(354.14 312.1)">s</text><text class="cls-10" transform="translate(358.08 312.1)">i</text><text class="cls-10" transform="translate(360.42 312.1)">n</text><text class="cls-10" transform="translate(365.95 312.1)">g</text><text class="cls-12" transform="translate(373.18 312.1)">Y</text><text class="cls-10" transform="translate(378.44 312.1)">i</text><text class="cls-14" transform="translate(525.44 390.06)">T</text><text class="cls-10" transform="translate(529.76 390.06)">a</text><text class="cls-10" transform="translate(534.56 390.06)">i</text><text class="cls-10" transform="translate(536.9 390.06)">k</text><text class="cls-10" transform="translate(541.57 390.06)">o</text><text class="cls-10" transform="translate(547.04 390.06)">o</text><text class="cls-10" transform="translate(554.63 390.06)">D</text><text class="cls-10" transform="translate(561.31 390.06)">o</text><text class="cls-10" transform="translate(566.78 390.06)">c</text><text class="cls-10" transform="translate(571.25 390.06)">k</text><text class="cls-10" transform="translate(576.05 390.06)">y</text><text class="cls-10" transform="translate(580.71 390.06)">a</text><text class="cls-10" transform="translate(585.51 390.06)">r</text><text class="cls-10" transform="translate(588.67 390.06)">d</text><text class="cls-10" transform="translate(649.47 418.78)">C</text><text class="cls-10" transform="translate(655.25 418.78)">h</text><text class="cls-10" transform="translate(660.78 418.78)">o</text><text class="cls-10" transform="translate(666.25 418.78)">i</text><text class="cls-10" transform="translate(670.7 418.78)">S</text><text class="cls-10" transform="translate(675.64 418.78)">a</text><text class="cls-10" transform="translate(680.45 418.78)">i</text><text class="cls-10" transform="translate(684.53 418.78)">W</text><text class="cls-10" transform="translate(692.64 418.78)">o</text><text class="cls-10" transform="translate(698.11 418.78)">o</text><text class="cls-12" transform="translate(649.47 430.74)">P</text><text class="cls-10" transform="translate(654.52 430.74)">o</text><text class="cls-10" transform="translate(659.92 430.74)">w</text><text class="cls-10" transform="translate(667.16 430.74)">e</text><text class="cls-10" transform="translate(672.15 430.74)">r</text><text class="cls-10" transform="translate(677.53 430.74)">S</text><text class="cls-10" transform="translate(682.41 430.74)">t</text><text class="cls-10" transform="translate(685.71 430.74)">a</text><text class="cls-10" transform="translate(690.48 430.74)">t</text><text class="cls-10" transform="translate(693.78 430.74)">i</text><text class="cls-10" transform="translate(696.11 430.74)">o</text><text class="cls-10" transform="translate(701.58 430.74)">n</text><text class="cls-10" transform="translate(649.47 442.71)">N</text><text class="cls-10" transform="translate(656.03 442.71)">o</text><text class="cls-10" transform="translate(661.5 442.71)">r</text><text class="cls-10" transform="translate(665 442.71)">t</text><text class="cls-10" transform="translate(668.3 442.71)">h</text><text class="cls-12" transform="translate(675.94 442.71)">P</text><text class="cls-10" transform="translate(680.99 442.71)">o</text><text class="cls-10" transform="translate(686.47 442.71)">i</text><text class="cls-10" transform="translate(688.8 442.71)">n</text><text class="cls-10" transform="translate(694.29 442.71)">t</text><text class="cls-15" transform="translate(397.5 457.66)">A</text><text class="cls-10" transform="translate(403.57 457.66)">b</text><text class="cls-10" transform="translate(409.24 457.66)">e</text><text class="cls-10" transform="translate(414.24 457.66)">r</text><text class="cls-10" transform="translate(417.4 457.66)">d</text><text class="cls-10" transform="translate(423.02 457.66)">e</text><text class="cls-10" transform="translate(428.01 457.66)">e</text><text class="cls-10" transform="translate(433.01 457.66)">n</text><text class="cls-10" transform="translate(397.5 433.9)">Little Hong Kong</text><text class="cls-10" transform="translate(445.21 417.45)">W</text><text class="cls-10" transform="translate(453.32 417.45)">o</text><text class="cls-10" transform="translate(458.79 417.45)">n</text><text class="cls-10" transform="translate(464.32 417.45)">g</text><text class="cls-10" transform="translate(472.01 417.45)">N</text><text class="cls-10" transform="translate(478.57 417.45)">a</text><text class="cls-10" transform="translate(483.37 417.45)">i</text><text class="cls-10" transform="translate(487.82 417.45)">C</text><text class="cls-10" transform="translate(493.6 417.45)">h</text><text class="cls-10" transform="translate(499.13 417.45)">u</text><text class="cls-10" transform="translate(504.63 417.45)">n</text><text class="cls-10" transform="translate(510.16 417.45)">g</text><text class="cls-10" transform="translate(517.84 417.45)">G</text><text class="cls-10" transform="translate(524.36 417.45)">a</text><text class="cls-10" transform="translate(529.17 417.45)">p</text><text class="cls-10" transform="translate(424.15 394.71)">W</text><text class="cls-10" transform="translate(432.25 394.71)">a</text><text class="cls-10" transform="translate(437.06 394.71)">n</text><text class="cls-10" transform="translate(444.7 394.71)">C</text><text class="cls-10" transform="translate(450.49 394.71)">h</text><text class="cls-10" transform="translate(456.02 394.71)">a</text><text class="cls-10" transform="translate(460.82 394.71)">i</text><text class="cls-10" transform="translate(371.23 407.09)">M</text><text class="cls-10" transform="translate(379.3 407.09)">o</text><text class="cls-10" transform="translate(384.78 407.09)">u</text><text class="cls-10" transform="translate(390.27 407.09)">n</text><text class="cls-10" transform="translate(395.76 407.09)">t</text><text class="cls-10" transform="translate(401.17 407.09)">C</text><text class="cls-10" transform="translate(406.89 407.09)">a</text><text class="cls-10" transform="translate(411.69 407.09)">m</text><text class="cls-10" transform="translate(420 407.09)">e</text><text class="cls-10" transform="translate(425 407.09)">r</text><text class="cls-10" transform="translate(428.16 407.09)">o</text><text class="cls-10" transform="translate(433.63 407.09)">n</text><text class="cls-10" transform="translate(439.03 407.09)">v</text><text class="cls-10" transform="translate(503.02 463.82)">S</text><text class="cls-10" transform="translate(507.91 463.82)">t</text><text class="cls-10" transform="translate(511.21 463.82)">a</text><text class="cls-10" transform="translate(516.01 463.82)">n</text><text class="cls-10" transform="translate(521.54 463.82)">l</text><text class="cls-10" transform="translate(523.9 463.82)">e</text><text class="cls-10" transform="translate(528.89 463.82)">y</text><text class="cls-10" transform="translate(503.02 444.21)">R</text><text class="cls-10" transform="translate(508.43 444.21)">e</text><text class="cls-10" transform="translate(513.42 444.21)">d</text><text class="cls-10" transform="translate(519.04 444.21)">h</text><text class="cls-10" transform="translate(524.58 444.21)">i</text><text class="cls-10" transform="translate(526.91 444.21)">l</text><text class="cls-10" transform="translate(529.26 444.21)">l</text><text class="cls-12" transform="translate(533.73 444.21)">P</text><text class="cls-10" transform="translate(538.78 444.21)">e</text><text class="cls-10" transform="translate(543.77 444.21)">n</text><text class="cls-10" transform="translate(549.31 444.21)">i</text><text class="cls-10" transform="translate(551.64 444.21)">n</text><text class="cls-10" transform="translate(557.17 444.21)">s</text><text class="cls-10" transform="translate(561.12 444.21)">u</text><text class="cls-10" transform="translate(566.61 444.21)">l</text><text class="cls-10" transform="translate(568.96 444.21)">a</text><text class="cls-14" transform="translate(476.33 384.35)">T</text><text class="cls-10" transform="translate(480.65 384.35)">a</text><text class="cls-10" transform="translate(485.45 384.35)">i</text><text class="cls-10" transform="translate(489.9 384.35)">H</text><text class="cls-10" transform="translate(496.4 384.35)">u</text><text class="cls-10" transform="translate(501.89 384.35)">n</text><text class="cls-10" transform="translate(507.42 384.35)">g</text><text class="cls-10" transform="translate(468.63 398.86)">J</text><text class="cls-10" transform="translate(472.32 398.86)">a</text><text class="cls-10" transform="translate(477.13 398.86)">r</text><text class="cls-10" transform="translate(480.29 398.86)">d</text><text class="cls-10" transform="translate(485.91 398.86)">i</text><text class="cls-10" transform="translate(488.24 398.86)">n</text><text class="cls-10" transform="translate(493.77 398.86)">e</text><text class="cls-11" transform="translate(498.52 398.86)"></text><text class="cls-10" transform="translate(499.87 398.86)">s</text><text class="cls-13" transform="translate(505.93 398.86)">L</text><text class="cls-10" transform="translate(510.49 398.86)">o</text><text class="cls-10" transform="translate(515.96 398.86)">o</text><text class="cls-10" transform="translate(521.44 398.86)">k</text><text class="cls-10" transform="translate(526.11 398.86)">o</text><text class="cls-10" transform="translate(531.59 398.86)">u</text><text class="cls-10" transform="translate(537.08 398.86)">t</text></g><g id="text"><text class="cls-16" transform="translate(352.19 210.82)">H</text><text class="cls-16" transform="translate(365.32 210.82)">o</text><text class="cls-16" transform="translate(376.4 210.82)">n</text><text class="cls-16" transform="translate(387.6 210.82)">g</text><text class="cls-16" transform="translate(403.29 210.82)">K</text><text class="cls-16" transform="translate(414.23 210.82)">o</text><text class="cls-16" transform="translate(425.32 210.82)">n</text><text class="cls-16" transform="translate(436.52 210.82)">g</text></g><line class="cls-6" x1="425.3" y1="388" x2="399.6" y2="412"/><path class="cls-5" d="M468,368.8c.1.1.1.2-.2.7-.1.1-.1.2-.2.3l.1.1a.37.37,0,0,1,.1.3,6.69,6.69,0,0,1-1.4,1.9c-.3.3-.4.5-.4.6s.1.4.2.6c.2.5.3.6,2.8,3.3a25.47,25.47,0,0,1,2.6,3c.1.4-.3.9-1.3,1.4l-.5.3-7.3-5.3-4.4,3.4.1.2c.1.1.5.7,1,1.3a9.38,9.38,0,0,1,.9,1.2c0,.3-1.1,1.2-1.3,1a14.31,14.31,0,0,0-1.5-1.1,8.51,8.51,0,0,1-2.5-2.5,14.31,14.31,0,0,0-1.1-1.5c-.2-.2.7-1.3,1-1.3l1.2.9a8.82,8.82,0,0,0,1.3,1l.2.1,3.4-4.4-5.3-7.4.3-.5c.5-1,.9-1.4,1.4-1.3a18.67,18.67,0,0,1,3,2.6c2.7,2.5,2.8,2.5,3.3,2.8a1.42,1.42,0,0,0,.6.2c.1,0,.3-.1.6-.4a13.3,13.3,0,0,1,1.9-1.4h.3l.1.1.3-.2c.6-.1.6-.1.7,0Z"/><path class="cls-5" d="M423.8,368.8c.1.1.1.2-.2.7,0,.1-.2.3-.2.3l.1.1v.3a6.69,6.69,0,0,1-1.4,1.9c-.3.3-.4.5-.4.6s.1.4.2.6c.2.5.3.6,2.8,3.3a25.47,25.47,0,0,1,2.6,3c.1.4-.3.9-1.3,1.4l-.5.3-7.4-5.3-4.4,3.4.1.2a8.82,8.82,0,0,0,1,1.3,9.38,9.38,0,0,1,.9,1.2c0,.3-1.1,1.2-1.3,1a14.31,14.31,0,0,0-1.5-1.1,8.51,8.51,0,0,1-2.5-2.5,14.31,14.31,0,0,0-1.1-1.5c-.2-.2.7-1.3,1-1.3l1.2.9a8.82,8.82,0,0,0,1.3,1l.2.1,3.4-4.4-5.3-7.4.3-.5c.5-1,.9-1.4,1.4-1.3a18.67,18.67,0,0,1,3,2.6c2.7,2.5,2.8,2.5,3.3,2.8a1.42,1.42,0,0,0,.6.2c.1,0,.3-.1.6-.4a13.3,13.3,0,0,1,1.9-1.4h.3l.1.1.3-.2a1.73,1.73,0,0,1,.7-.2Z"/><line class="cls-6" x1="514" y1="386.9" x2="478.8" y2="389"/><line class="cls-6" x1="473.1" y1="389.4" x2="438.1" y2="385.6"/><line class="cls-4" x1="440.4" y1="338.8" x2="449.3" y2="372.8"/><polygon class="cls-5" points="446.1 370.6 449.2 372.4 451 369.3 451.5 371.4 449.7 374.5 446.6 372.7 446.1 370.6"/><line class="cls-4" x1="459.1" y1="315" x2="473.7" y2="347.1"/><polygon class="cls-5" points="470.2 345.4 473.5 346.7 474.8 343.3 475.7 345.2 474.5 348.6 471.1 347.4 470.2 345.4"/><line class="cls-4" x1="498" y1="317.4" x2="498.2" y2="352.7"/><polygon class="cls-5" points="495.6 349.7 498.2 352.2 500.7 349.7 500.7 351.8 498.2 354.4 495.6 351.8 495.6 349.7"/></svg>