<?xml version="1.0" encoding="UTF-8"?>
<svg version="1.0" viewBox="0 0 20 20" xmlns="http://www.w3.org/2000/svg" xmlns:cc="http://creativecommons.org/ns#" xmlns:dc="http://purl.org/dc/elements/1.1/" xmlns:rdf="http://www.w3.org/1999/02/22-rdf-syntax-ns#">
<metadata>
<rdf:RDF>
<cc:Work rdf:about="">
<dc:format>image/svg+xml</dc:format>
<dc:type rdf:resource="http://purl.org/dc/dcmitype/StillImage"/>
<dc:title/>
</cc:Work>
</rdf:RDF>
</metadata>
<path d="m15.388 4.7812c0.06737 0.067371 0.06088 0.15353-0.17175 0.6561-0.02746 0.059318-0.18034 0.27652-0.18034 0.27652-1e-6 -1e-6 0.10269 0.11299 0.13053 0.14084 0.05383 0.053834 0.07864 0.17464 0.05668 0.26965-0.06814 0.29478-0.8899 1.4704-1.35 1.9305-0.28551 0.28551-0.4327 0.48056-0.42251 0.55991 0.0086 0.06697 0.11677 0.35509 0.24046 0.63892 0.21823 0.5008 0.29997 0.59932 2.7618 3.3389 1.9495 2.1695 2.5461 2.8696 2.5814 3.028 0.09814 0.43933-0.28202 0.84747-1.2641 1.3568l-0.50667 0.26278-7.3888-5.29-4.4295 3.3646 0.10133 0.18034c0.055981 0.09885 0.51886 0.67611 1.0288 1.283s0.93292 1.1608 0.93949 1.2315c0.026392 0.28396-1.1106 1.1771-1.2813 1.0065-0.26932-0.26932-1.399-1.1312-1.4943-1.1404-0.068024-0.0066-1.0391-0.74707-1.3689-1.0769-0.32982-0.32982-1.0703-1.3008-1.0769-1.3689-0.00927-0.09528-0.87112-1.2249-1.1404-1.4943-0.17064-0.17064 0.72251-1.3077 1.0065-1.2813 0.070635 0.0066 0.62458 0.42955 1.2315 0.93949 0.60689 0.50994 1.1841 0.97282 1.283 1.0288l0.18034 0.10133 3.3646-4.4295s-5.29-7.3888-5.29-7.3888l0.26278-0.50667c0.50938-0.98209 0.91752-1.3622 1.3568-1.2641 0.15845 0.035395 0.85853 0.63192 3.028 2.5814 2.7396 2.4618 2.8381 2.5436 3.3389 2.7618 0.28383 0.12368 0.57195 0.23185 0.63892 0.24046 0.07936 0.010191 0.2744-0.137 0.55992-0.42251 0.46008-0.46008 1.6357-1.2818 1.9305-1.35 0.09501-0.021963 0.21582 0.00284 0.26965 0.056678 0.02785 0.027846 0.13912 0.12882 0.13912 0.12882s0.2172-0.15288 0.27652-0.18034c0.50256-0.23263 0.59044-0.23741 0.65782-0.17004z"/>
</svg>
