<svg id="Layer_1" data-name="Layer 1" xmlns="http://www.w3.org/2000/svg" viewBox="0 0 800 600"><defs><style>.cls-1{fill:#cfeaf3;}.cls-2{fill:#f9f9f9;}.cls-3{fill:#e9efb6;stroke:#bdd142;stroke-linecap:round;stroke-linejoin:round;stroke-width:0.25px;}.cls-10,.cls-11,.cls-12,.cls-13,.cls-14,.cls-15,.cls-4,.cls-9{isolation:isolate;font-family:ArialMT, Arial;}.cls-4{font-size:19.83px;fill:#333;}.cls-5,.cls-7{fill:none;stroke-miterlimit:10;stroke-width:2px;}.cls-5{stroke:#c70025;}.cls-6{fill:#c70025;}.cls-7{stroke:#012169;}.cls-8{fill:#012169;}.cls-10,.cls-11,.cls-12,.cls-13,.cls-9{font-size:9.97px;}.cls-10{letter-spacing:-0.08em;}.cls-11{letter-spacing:-0.04em;}.cls-12{letter-spacing:-0.08em;}.cls-13{letter-spacing:-0.12em;}.cls-14,.cls-15{font-size:12px;}.cls-15{letter-spacing:-0.11em;}</style></defs><title>Artboard 1</title><g id="sea"><rect class="cls-1" x="-313.75" y="-235.15" width="1427.6" height="1070.7"/></g><g id="land"><path class="cls-2" d="M435.25,727l-1.4,1.5-1,4.1-1.9,2.1-1.5.5-1,2.1h-2.8l-2.9,2.1h-2.7l-2.4-2.6,1.9-2.1,2.9-1-1-2-2.4-1.6h-2.8l-1.9,3.1-2.5,1.5-1.9,1v3.1l3.9,3.1-1.4,1.5h-1.9l-1,.9-3.8,2.2-1-1-1.9,1-6.7-1-1.9,2-6.7,2.1-2.9,2h-1.9l-3.3,2.6.5,1.5h1.9l1-1h4.8l.9-1h1.9l1-1,2.9,2.1h2.9l3.8-3.1H404l1.9,3.1h3.9l.5,2.6,2.4,2.5,3.8-2.1h2l2.8-4.1h5.8l1-1h2.8l1.4-1.6-1.9-5.1,7.6-5.2.1-5.1,1.9-1.1,2.3-.4.5-1.7-4.3-5.6Zm65,8.2-2.9,1-1.9,2.1h-5.7l-.5-1.5,2.4-2.6.9.1,1-1.1,4.8-2.1,3.3-5.6v-3.1l-1-2.1-4.3-3.6h-1.9l-2.9,2h-4.8l-3.9-2.1-5.7-1-4.8,2.1-1-1h-3.9l-1-1.1h-3.8l-1,1h-7.6l-.5,4.7-.9,1,.9,1-1,1v2.1l-1.9,2.1v2.1l-3.9,4.1-1.9,1v4.2l.9,1.1v2l2.4,2.6,1.9,1h6.6l1-1h3.9l4.8-5.1h4.9l.9,1,7.6.1,1,1h1.9l2.4-1.5.5-1.6,1.9,1,3.8,3.1h1.9l3.9-3,4.3-.5-.1-3.1Zm-97.5,30.9-8.6,5.2-7.6,3.1-2.4,4.7,2.4,3.6,1.9-1,3.8-5.2,1.9-1H399l1-1h2.8l6.2-4.6v-1.1l-2.4-2.7Zm180.1-265.4v-2.1l-.5-.5h-1l-.5.5v1.1l1.4,1.5Zm26.3,150-2.9.1-1.9,2.1-3.8-.1-.9,1.1h-2.9l-1,1.1-3.3.5v5.2l1,2,2.3.5,1.4,1.6-1.4,1.5h-2l-.9,1-4.8-2-1.4,1.5-.5,1.6h-2.8l-1,.9-3.8.1-1,1h-5.8l-.9-1.1-1,1.1h-6.6l-2.7,3.1-2.9.1-.9,1h-2.9l-2.4,1.5v3.1l1.4.5v1.1l-5.8,1-1-1.1h-1.9l-1.9-1-7.6,4.1-5.8,1-1,1h-5.7l-1.9,1-6.6,6.2-1.9,1.1h-6.7l-.5,1.5,1,2.1-2.4.5-2.4,2.6-1.9,4.2v2.1l1.4,1.5H506l2.9,2h3.7l1.9-5.2,3.9-1,2.8-3.2h9.6l3.9-3,3.8-2.1,2.9-.1.9,1.1h7.6l6.7-6.2,8.6.1.5-2.7,2.8-2,.5-1.6h3.8l.9,1.1h11.4l2.5-1.5v-1.1l2.4-2.6h1l1-.9,7.6-1.1-.5-2.6-1.9-1,2.8-3.1v-2.1l1.4-1.5,2.9-.1,1.4-2.6,1-1v-2.1l2.3-2.6h1l4.3-3.6v-5.1l-4.3-1.6Zm-29.7-152.6-1.9,1-1,2.1-3.4,1.5v4.1l1,1.1V510l1.4,1.5,2.8.1,2.4-1.6-.1-8.2Zm-196.7-119.8-.4.6-.1,3.1.5.5,2.4-2.6v-1.1l-.5-.5Zm-155.9-62.9-3.3,2.6-.9,5.2,2.4.5,2.4-2.6Zm176.9,138.3-2.4,2.5v1.1l.5.5h2.8l.5-.5v-3.1l-.5-.5Zm61.1-11.3h-3.8l-.9-1.1h-1.9l-1.4,1.5,3.3,4.6h2.9l3.3-2.6Zm-3.8,21.7h-.9l-.5.5v4.1l1.4,1.6h.9l1-1.1h1.9l.5-2.6-1.4-1.5h-1.9Zm6.2-6.7.5.5h1l1.4-1.5-1.4-1.5-1.4,1.5ZM409.45,431l-1,1.1-1.4.5v1.1l.5.5h2.9l1.5-1.5v-1.1l-.5-.5Zm159.6-25.7-1-.1-.6.5v1.1l.5.5h.9l.5-.5v-1Zm-134.7,46.4h.9l.5-3.6-1-1v-1l-.5-.5h-2.8l-.5,1.5,1.9,2.1v1.1Zm-2.9-21.7h-2.8l-1,1h-2.8l-3.9-2.1h-1.9l-4.3,3.6,1.4,1.5h.9l1.4,1.5,1.5,2.6,1.9,1h2.8l.5,2.5,1.5,1.6,1.9,1h4.8l.5-3.6-1-1.1v-8.2Zm-176.2,34.5,2.4-1.5h2.9l.5-2.5,3.3-3.6,4.8-1,1.4-2.6v-2.1l1.9-2.1-1.5-2.5-1,1h-2.8l-1.9-2-2.9-.1-1.8-3-1.9-.1-2,2h-2l-1.8-3.1H250l-.9,1.1-4.9-4.1-2.9,1.1-1.4-2.6,4.8-3.1v-1.1l4.4-4.8,1-1.1h4.8l1.9-2h1.9l1.9-2.1,2.4-.5-.1-2-4.8-5.2-.9-3.1-2.4-2.6h-2l-.9-1.1-1.9.1-1,2.1-2-3-3.9.1-.9,1-1.5-.5.5-1.5,2.4-1.5.9-3.1,1.5-1.5h1.9l1.1-1.4,4.7-.8,3.8,3.1h1.9l1.5,1.5v1l2.4,1.6,10.4-.1,1.4-2.6.1-4-2.9-1.1,2-2.1v-4.1l1.9-1v-2l-1-1.1V381l-3.9-1.1v-2.1l1-1.1v-4.1l-.9-1,1.4-1.6.9,2,2.9-2.1h1.9l.5-4.7-1.5-2.5h-1.9l-3.8,4.1-6.2-1.5.5-2.6h4.8l1.4-1.6-1.4-2.5-5.3-1.6,2-3.1v-2.1l1.5-1.5h9.5l4.8-3.1,2.8,4.1H290l1.5-1.5v-3.1l-1-1v-6.2l-2.9-5.2.5-3.6h3.8l1.9-1,2.4,4.6-1,1,2.9,5.2,2.4.5.9,1.1,1.9-2,5.7-1,1-2.1,1.9,1,1.5-.5-.1-2.1-1.9-2,1-1.1-.1-3.1,1.9-2.1-.5-2.5-1.5-.5.1-3.1,2.8-3-1.9-3.2-.9-4.1-2.4-2.6h-1l-2-3.2-3.8-1-1-1.1h-2.8l-1.5,7.8-2.3.5-1.5,1.6-1.5,2.5-5.8,2.1-2.9,5.2-2.9-.1-2.3,2.6-.4,2.6-3,1-.9,2.1-1.5-.5,2.9-6.2-1.5-2.6-3.8-1-4.8,5.1h-1.9l-3.3,2.6v2.1l-2.3,2.6h-2.9l-2.8,3.1h-2.9l-.4,2.3-1.1,2.2-1-1.1-2.4.6V345l-1.4,2.6h-1l-1.4,1.5v3.1l-1.4,1.5h-4.7l-1,1.1-3.8.1-7.2,6.7v7.2l-1.4,1.6-.4-1.6-2.4-1.5h-4.8l-.9,1h-8.6l-.9,1.1-5.7-.1-3.8,4.1-5.7,3.1-2.8,1.1-3.9,3.1h-8.5l-.8,2.5-1.9,1-.9,2.1v3.1l-.5.5-1.9-1-2,1-1.4-1.6v-2.1l-2.8-3.1-.9-4.1-1.4-1.6-1,.1-2.9-2.1H144l-1.9,1-3.8-2h-1.9l-2.9,3.2-1-1h-1.9l-1.9-3.1-1.4,2.6-2,3.1v3l-2,5.2-2.4,2.6H120l-4.1,5.5v3.1l1.9,3.1-.5,1.5-2.9.1-.4-2.6-2.4-1.5-1.9,2.1-4.8,2-6.7,1-5.4,8.9-1.4,1.5h-1.9l-.9-1h-4.8l-2.9,2.1H79l-2.4,3.6v2.1l1.4,1.6,8.6-1,1.4,1.5-.9,2v3.1l-3.2,3.5-2.9-.1-4.3,3.7V442l1,1v5.2l-1.4,1.5h-2.2l-4.8-4.1-2.8.1-1.4,2.5v2.1l-2.9,4.1,1,2.1-.9,8.3,4.8,5.1-1,3.1-.9,1v4.1l.9,2.1,2.4,2.5h1.9l2.3,1.5-1.9,5.2-1.9,2.1.5,3.6,3.8-2.1,4.7,1,2.4-1.5-1.8-3.1,5.2-3.6h1.9l2.9-2,1.9,3,2.9.1,2.4-2.6v-1.1l2.9-2.1v-1l4.3-3.6,5.2-.5-1-4.1,1.5-.5,3.3-3.6v-1.1l3.3-3.6h1.9l1,1h3.8l.9-3.1,1.1,1.1,5.2.5-1,2.1,1,5.1,1.4,1.6h1.9l1.9,3.1,2.8,1,5.7,5.2h2.9l4-5.2,2.8,2,3.8,3.1,3.8-2.1,2.9.1,4.3-3.6v-5.2l-2.4-3.6-10.5,1-1.5-1.6,2.4-1.5,3.4-3.5.5-1.6,7.6.1,3.8-2.1,3.9-2.1h1.9l8.6-5.2h1.9l1.9-2.1h5.7l1.9,2h2.8l.9-1,6.7-4.1h1.9l5.7-4.2,10.1.5v4.1l-2.9,3.2v3.1l-1,1,1.4,2.6h.9l2.4,2.5v1.1l1.9,1v2l-2.9,3.1-.9,3.1,1.4,1.6h2.9l.4,1.5,2.4,2.5h1.9l1.9-3.1h4.8l1.9-3.2h3.8l.5,2.6,2.4,1.5,1.1-2.2,1-1.1h3.8l1.4-1.5Zm340.5,42.9-.5.5V510l.5.5h1l1.4-1.5v-1.1l-.5-.4h-1.9Zm-8.6-172.3,1.9,1H591l.9-1,1,1.1,1.4-.5,1-6.2-2.4-.5-6.7-6.2-2.4.5v7.2l3,3Zm0-61-.5.5v1.1l.5.5h.9l.5-.5v-1.1l-.5-.5Zm-3.3,17,2.8,1-1,4.2,4.3.5.5-1.6-.9-1v-3.1l-1-1v-5.2l1.9-2.1-1-1v-2l-3.8-3.1v-4.2l2.4-.4.5-1.6-3.4-2.6h-.9l-1.8,3.1-1.5.5-1,4.1-2.9,2v2.1l4.8,5.2ZM495,713v2.1l.5.5,3.8-.1.5-.5-1.4-1.6h-1l-1-1.1Zm-253.7-40.5-3.9-1.1-.9,1.1-2.9-1.1-.4,5.7,4.8,1v3.1l-1.9,2.1.1,4.1,3.3,2.5,2.4-2.5v-5.2l3.8-5.2.1-2.1-3.4-3.6Zm336.4-386,.5-.5-.1-3.1-.4-.5h-1l-.5.5v1l-.9,1.1,1.4,1.5Zm14.3-17.6-.5.5v1.1l1.4,1.5h1.9l.5-.6-2.5-2.5Zm5.7-6.2-.9,1.1-1-1.1h-1.9l-.4,4.7,3.3,3.6,3.3-3.7-.9-1v-2.1Zm-22.5-10.9v-1l-.5-.6h-.9l-.5.5-.1,1.1-.9,1,.5.6h.9Zm21.1,42.4-.1,5.1,1.9,4.2,3.4,3.6,4.8,2.1,1.8-3.1h1l1.9,3.1h2.9l.9,1h4.8l1.4-2.6-1.9-3.1,2.9-1v-2.1l1.8-2.1-.9-2,.9-2.1-.4-4.7-3.9-1-2.8-2.1-3.3-.5,1.9-2v-6.2l-3.8-6.2,1-1v-4.1l-2.3-2.6-2.4,2.6.1,2-2.4,2.6-1.5-.6,2.9-3.1,1-5.1-3.8-.1-1,3.1-1.9,1-.9,3.1-1.5.5-.5,1.6-3.8,4.1v3.1l2.4.5.9-1.1.5.5v4.2l2,3.1-3,1,1,1v3.1Zm-16.2-24.8.5.6h.9l.5-.5v-1l-.5-.6h-.9l-.5.5Zm21,235.4-.5-4.7-2.4.5v5.3l1.5.5Zm-21.5-241-1-1.1h-.9l-.5.5-.1,1,1.4,1.5h1l1.4-1.5-.5-.5Zm-9.6-2.1-1-1.1-.4.6v3.1l.5.5h.9l.9,1.1h1l1.4-1.6-2.3-2.6Zm6.7,10.3.5-.5v-2.1l-.4-.5h-1.9l-.5.5v2.1l.5.6Zm16.2,1.1-.5.5v2.1l.5.5,1.5-1.5v-1.1l-.5-.5Zm-318,404.5-6.7-.1-1.4,1.6v3.1l-2.8,2.1,3.3,3.6h2l4.8-5.1,2.4-.5-.1-3.1ZM293,475.35h-5.8l-3.3-3.6-1-2,.5-1.6,7.2-2.5-1.4-2.6-1.4-.5,2-2.2-.1-3.1-2.3-.6-1,1.1h-5.8l-2.3,4.6,1,1v2.1l-3.8,4.1v2.1l2.4.5,1.9-1,1.4,1.5,1,3.1-1,1v2.1l-1.5,1.6-1.9-1-2.9,1-1.9,4.2-1-1.1h-1.9l-.5,5.7,2.4.6,1,2h1.9l.9-1h1.9l2.9-3.1h1l1-2.1,2.8-2h2.9l1.9,3.1h.9l.5-2.5,3.8-3.1-.1-2.1,1-1Zm-30.6,210.4-1.5.5-.9,4.1-1.9,3-2.9,2.1-.9,4.1,4.3.5.9-1.1,2.9.1,2.9-2.1,2.4-.4v-4.1l-3.3-5.7ZM303,381l-1.5-2.6h-3.8l-1,1-1.4-.5,2.4-2.6,3.4-1.5-.1-2.1-1.4-1.5h-3.8l-1.9,2h-2.8l-2.4,1.6,2,3.1,1,6.2,1.4,2.5H295l1,1,3.8-.1,3.3-2.5-.1-4Zm-44,287.8v1l.5.6h.9l.9,1.1,1-1.1.9.1.5-.5v-3.1l-.5-.5h-1.9Zm58.9-294.5H315l-1.5,1.5.1,2.1.4.5,2.9-.1,1.4-2.6v-1Zm-9.2,236.8-.1-3.1-2.4-2.5-.9-.1-1.9,2.1-.6-.5-.9-6.2-3.4-3.6-5.7,1-1.9-1-3.3,3.6v1l-4.4,3.6h-1.9l-1-1h-3.8L276,608l2.9,2.1-1,4.1,4.3,4.7h1l1.9,2.1h5.8l1.9,2.1h1l.5-2.5,1.4-.6,3.9,3.1h2.9l1,1,3.8-.1,1,1,1.5-.5.9-3.1-2.8-8.2Zm-5.2-203.8-1.4,2.6.1,3.1,3.3,3.7h1.9l1.9-3.1,3.4-.5,1-2V408l-2.4-2.6Zm-93.3-77.9.9-3-1.4-1.6-2.9-1-1.4,1.5v4.1l1.5,1.5h1Zm90.9,86.7-3.4-2.7-6.6.1-1-1h-3.8l-.9,1h-4.8l-2.4,2.6v2l2.4,1.6h3.8l4.3,3.6.5,2.6h1.9l1-1,.5.5,1.9,7.2,3.3,3.6,2.9-.1,1.5-1.5.9-7.3-2.9-3.1.9-3.1Zm-188.7-152.2h-5.7l-1.5,3.6,3.4.5,2.3,2.6-.9,8.3,3.3.5,1.4-2.5-.9-4.1,1.9-4.2-1-3.1Zm30,103.8L142,362h-2.9l-.5,2.6,1.9,2,.5,1.5Zm176.4-57.4-.5.5-.1,2.1,1.5,1.5h1.9l.5-.5v-2.1l-1.5-1.6ZM181.45,345v-2.1l2.8-2.1.1-4.1-1.5-.6-7.6,9.3-1.5-1.6v-2.1l-2.4-1.5-6.7,6.2-3.3,1.6v7.2l1,1v2l1,2.1,1.9,2v1.1l1.9,2v4.1l1.9,2.1-.9,2.1.3,3.7h2.9l3.4-2.6-1.9-4.1,1.9-2.1v-4.2l1.5-2.5,1.4-.5v-8.2l.9-1v-5.1l1.5-.5Zm52-57.4,1.5-1.5-1.4-1.5h-1l-.5.5v2.1l.5.5Zm-111.6,25.8v-6.2H118l-.4,1.5,1.9,2.1v2.1Zm382.2,163-1.5,1.6,1.5,1.5H506l.4-.5v-2.1l-.5-.5ZM117.05,298l-2.4,2.6v1l1.4,1.5H118l1.4-2.6v-2l-.5-.5Zm412.8,216.7,2.4-1.6.5-2.6,3.9,2.1h2.8l4.3-3.7v-8.2l-1.5-1.6-12.4,1.1-2.4,1.5v2.1l.9,1.1v6.2Zm19.1,0-2.9-.1-5.2,3.7-4.8,8.2v4.2l1.4,1.5,1-1.1.5.6.5,3.6,4.3,1.5v1.1l-1.9,2.1.5,3.6,2.9-1,4.2-3.6v-3l3.4-3.7,1.4.5.5,1.6h8.6l.5-3.5-1-1.1-.9-4.1-1-1,1.9-4.2-2-3.1.1-2.1-1.5-1.5-1.9-.1-3.8-4.1-3.3,2.6Zm-312.5-13.4,3.4-.5.9-6.2-3.9-1v-4.1l-2.4-3.6h-4.7l-4.4,6.7v5.1l2.4,1.5h1.9l2.9,3.1h2.8Zm325.8-115.6-7.6-1.1-3.3,5.7v4.1l1.4,1.6h1l1.9-3.2,1.9,1,1.9-3,2.9-.1,1.4-1.5v-2Zm1.9,22.6,1,1h.9l.5-.5v-2.1l-.5-.5h-1.9l-1.5,1.5.5.5Zm-43.9,107.3-.5.5.1,2.1.4.5,1,.1.5-.6v-2.1l-.4-.5Zm14.4,21.7h2.8l.5-.5v-2.1l-.5-.5h-.9l-1,1h-.9l-.6.5v1Zm13.3-54.7.6-.5V480l-.5-.5h-2l-.5.5v1l1.5,1.5Zm0-34-5.3.5,2.4,2.6H547l1.4-1.5Zm-172.4-68.7.1,3.1,1.4,1.5H379l2.5-1.5v-2.1l-1.5-1.5-3.8.1Zm-2.4-90.3.5-.6-.1-3.1-2.4-2.5h-1.9l-.5.6v3.1l2.4,2.6Zm-.5,35.6v-9.3l1.9-4.1,1.9-3.1-1-2.1,1-2.1.1-4.1-3.4-4.6-3.3.5,1-2.1v-3.1l-3.8-3.1v-2l-1.4-1.6h-6.6l-1,1h-11.5l-2.8,2.1H341l-2.4,2.5v1.1l1.4,1.5,1.4.5-1,1,.1,3.1,1.4,1.5h2.9l1.4,1.5.5,6.8,3.9-.1,2.4,1.6-1.9,3.1v2l.5.6h1.9l1-1,.5.5-2,4.2V320l-1.9,3.1v3.1l1,2.1,5.3,1.5,1-1h3.8l1-1h7.6ZM334,379.35l-.5,3.6,1.4,1.5h4.8l.5-5.7-4.3-.5Zm51.6,84.6,1.4,1.5v6.2l.9,1-1.9,4.2,2.9,4.1-1,1v7.3l-1,1v6.3l-3.3,3.6-2.9,1-1.4,1.6.9,6.1,4.3,3.6h4.8l1-1,2.8,2.1h2.8l1.9-3.1h1l1.9-2,4.8,6.2h1.9l-.5-6.7-2.9-5.2.1-4.1H406l2.4,3.6,3.9,2.1,1.8,3.1,3.9,1.1,1,2h1.9l.5-2.6-2.9-3.1v-2.1l-3.9-5.2-.9-5.1-1.4-1.6-2.4-.5.5-1.6h1.9l2.9-2,1,1,2.4-.5.9-4.1,2.9-2,.5-1.6h.9l2.9,3.1h2.9l2.9-4.2,1.4-.5-.5-3.7-1.9-1h-4.8l-.9,1-1.4-1.5-.5-2.6H422l-1.9,2.1h-2l-2.8,3.1h-3.8l-1.9-1-1,1h-3.8l-1,1.1h-1.9l-2.4,2.5-1.4,3.6-3.3-4.6.5-2.6h.9l2.4-2.6.5-1.5H401l5.3-2.6,1-2.1-1-1v-4.2l-2.4-2.6-3.9,2.1-1.9,3-2.9-2-1.5-2.6v-5.1l-1.4-1.5h-2l-.5-1.5-2.9-2.1,1-1.1v-2.1l1.9-2v-5.2l-1.4-1.5h-1.9l-1-2h-1.9l-2.8,4.1-4.8,1-2.9,2.1h-1.9l-1.5,1.5V446l3.3,2.5,2.4.5-2,2v2.1l2.9,2.1-4.4.5-3.3,2.6-.9,2-.1,4.2.5.5,1-1.1h5.7l1-1,5.7-1Zm-62-171.3-7.7,1-1.9-1-1.4,1.5.9,4.2-3.8,3.1v1l3.9,1.1v2l-1,1.1,2.5,2.6,1.9,1,1-1h2l2.4-1.5-.1-4.1-1.8-3.1-.1-2.1,1.9-1.1Zm219.6,161-.5,1.6.5.5H547l.5-1.5-.5-.5h-3.8Zm-148.1-72.2h-3.8l-6.7,3-2.4,3.6v6.3l1.4,1.5h.9l6.2,5.7,1.9,4.2v2l2.4,2.6h1.9l1-2.1,1.4,2.6,1,2-.9,7.3,1,2,3.8,3.1.5,1.5,3.9-2.1,2.8,2.1h1.9l.9,1.1h12.4l1,1.1h4.8l1.9,2.1,2.8-.1.5.6-1,1.1v2l1.9,1-.1,1.1-2.4,1.5-.5,1.6,4.8,3.1-1,1v2l1.4,1.5h1l3.8,3.1h1.9l1.4-2.5,1-8.3,1-2.1,1.9-1,2.4-4.6h7.7l.5,1.5-1,1v4.1l2.4,2.6h1l2,2.1,2.8-2h2.9l1.4,1.5,1,2V448l-1.9,2v2.1l1,1-1.5,2.6-2.5.5.5,2.5,7.2,2.6,1,3.1-2.4.5-3.3,3.6v2l.9,1.1.4,3.6,3.9-1,3.8-3.1h2.8l.5-3.6,3.3-2.6h1.9l1.4,1.5,1,2v3.1l-1.9,1-1,2.1v7.3l-1,1V486l1,1v4.3l1.5,2.5H499l1-1h3.8l1.5-1.6v-4l-.9-1.1-1-4.1-2-2v-2.1l-1.9-2,5.7-5.2-.9-1-1.5-2.6L499,465l-3.4-3.6v-3.1l4.8-5.1.5-1.6h1.9l2.9-4.2,2.9,3.1h2.8l1.4-1.5-1-2.1v-4.1l-2.4-3.6-3.3-1.6-1-7.2.5-.5,1.4,1.5v2.1l1.4,2.5,4-1,3.8,3.1,1-1,.5.5-1,4.1,2,4.2V448l.9,1v7.2l-1,1.1,1,1.1v2l1.9,1v2.1l3.4.5,1.4,1.5.9,5.2-1.9,3.1,1.5,3.6h1.9l1,1h6.7l1-1,.9,1.1h3.9l.9-1,1,1,2.8-.1,1-1,1.4-.5-.4-1.5h-1l-2.8-3.1-3.4-.6,1-1-.9-1.1v-8.2l-3.9-6.2v-3.1h5.7l-3.4-4.7-2.4-.5,1.9-2v-4.2l-2.9-3.1v-2.1l-1.9-2v-1.1l-1.9-1v-1.1l2.4-.5,1.5-1.6.5-2.6,1,1.1h1.9l1.4-1.5,1-6.2,1-1-1-2.1v-4.1l1-1v-2.1l-2.4-3.6h-3.8l-1.9,2.1h-1l-2.8-7.3h-1l-4.7,4.3h-1.9l-.5-1.5,1.9-1.1v-8.3l-2.3-.5-2.6-2.6,1.5-.5,1.4-2.6-5.2-6.7h-1.9l-.9,2.1h-2.9l-1.9,5.1-2.8-1-4.3-4.6v-2.1l-1.4-2.5h-10.6l-1.4-4.7-1.5-1.5-1.9-1h-2.8l-1-1-.9,1h-5.7l-1,1.1-3.8-.1-4.8,6.2h-1l.5,1.5-3.3,2.6h-2.9l-1.8-1-2.9,3.1-1-1-1,1h-1.9l-.9,1H443l-1,1h-3.9l-2.9-3.1-5.7-2.1-4.8-4.1h-2.9l-.9-1.1h-11.5l-1,1-8.6,1.1-2.8,3ZM588.65,416l-.5-2.5-4.9,1-1.9,2.1h-1l-1.9,3.1-.9-1h-3.9l-3.3,3.6v5.1l-1,1.1v2.1l4.3,3.6h1.9l2.4,1.6-1,1v3.1l3.3.5,1.5-1.6.5-3.6,1.9-1,2.9,2.1,1.5-.6.9-2v-3.1l-1-1.1,2.9-2,.1-4.2-1.9-1,1-5.1ZM-201,430l-.5.5v1.1l1.5,1.5,1.4-1.5-1.5-1.5Zm14.4-159-2.5-1.5-.4-1.6-1.9,1-2-1-2.4,1.5v3.1l-3.4,3.6-2.8,1-1,1h-2.8l-.9,1-10.5-1-1-1-5.7-1-1-1.1h-3.8l-1,1-2.8-2h-1.9l-10.5-8.2-3.3-.6-.1-5.1-1.5-1.6-2.3,1.5-.1,2.1-2.4,2.5h-4.8l-1-1-3.8-1.1-5.7-5.1h-1l-12.9-12.9v-1.1l-1.9-2.1-1-4.1,1-1,.9-11.4,1-1.1.9-9.3,1.9-4.1v-2.1l1-1,1-6.2,5.8-9.3.9-4.2,3.8-5.1,2.9-6.2,1.9-5.1,1.9-1V169l3.3-3.6,1.5-.6v-5.2l-1-1v-3.1l-1-1v-5.2l2.9-4.2v-2l6.7-8.3v-1l2.8-2v-1.1l2.9-3.1.9-4.2,1-1v-4.3l1-1v-6.2l-.9-1V99l-4.6-10.3-1-1.1V76.15l2-4.1,1-6.2-1-1v-5.2l1.9-4.1,1.9-4.2-.9-1v-3.1l-6.7-8.2V38l-2.4-1.5-1-2.1-2.9-1-5.7-6.2-3.8-2.1-6.8-1-.9-1h-2.9l-.9,1.1h-9.5l-1-1h-17.2l-.9,1h-8.6v505l12.4-4.7,1.1-1.6,2.9-6.9,1.1-4.3,1.6-7.1,1.5-4.3,3.8-6.3.9-3,.2-2.6-2.2-6.1-6.7-12-1.7-2.5v-.1l-4.9-11.3-1.9-6.2-3.9-5.2v-1.1l2.4-1.5,7.2,7.7v1.1l2.8,2.1.1,2,2.8,3.2v2l1.9,2.1v2.1l3.1,6.5-1.5,1.4,3.8,10.5,2.5-5.1,7.4-2,.6,1.9-5.5,1.3.5,2.1-.1,5.4-2.7,7.8-6.1,8.3-1,2.1-.4,1.9.1,1.4,1.2,2.5,1,1,.8.3.4.1,3.5-.8,3.9-2.8,4.5-1.3,2.2-1.7,12.9-3.8,1,2.2,1.3-.9.1-2.7-2.8-14.6,7-4.4-.5-4.1v-4.6l-.2-.9-1-1.2-2.8-1-6.5-1.8-.5-2-3.3.4,3.9-.5.7-.7,6.7-13.7,2-3.4,2.1-1.9,1.5-.2,1,.1,1.1.3,1.6-.7,1.4-1,4.4-3.2h2.9l5.7-6.2,1.9-1,1.9,1h2.9l.5-3.6,1.9-3v-2.1l-.9-1v-4.1L-229,415l1.9-4.2-.5-2.5-8.7,2.1-3.3-2.6-1-2.1.1-3.1-1-1.1v-3.1l-1-.9v-2.1l1-1v-6.2l-4.8-5.1-1-2.1v-3.1l-.9-1v-5.2l1.9-4.1v-2.1l1.9-2.1,2.4-3.6h1l1.4-1.6v-2l1.9-4.1,3.4-3.6,5.7-3.1,1.9-2.1h1.9l.9-1.1h1l3.8,4.1h5.7l1-1,1.9-.1,1.9-2,2.4-.5v-1l-2.4-2.6h-1.9l-.9,1-1.5-1.5-1-2.1v-3.1l-1-1v-3.1l-5.7-6.2-.1-1-1.4-.5-3.4-4.7v-7.3l2-4.1,2.9-7.2,4.3-5.7h2.8l1.9,3.1h2.9l.9,1,1-1h4.7l1.9-2.1h1l1.3-1.5v-4.2l2.9-3.1v-1l3.4-3.6,4.3-2.6.9-3.1,2.9-2.1-1.5-2.6Zm-90.1,200.1-.2.1.4-.2Zm79-32.3v1.1l.5.5h2l.4-.5v-1.1l-1.5-1.5Zm6.2-3.6-.4,1.6,1.5,1.5h1.8l1.5-1.5-1.5-1.6Zm-2.8-17.5h-1.9l-.4.6v2l.5.5h1.9l.5-.5v-2.1Zm-9,16,.9,1,.1,2-.9,2.1,1.4,1.6,2.4-1.6v-3.1l-2.4-2.6Zm-28.5,133.5-.8-4,.8-.8,2.3-2.6.2-1.4-3.9,2.1-1.2.7,1.1-5.1.1-.4.6-.7,2.4-.8,1.6.3-.7-2.5-.3-1.1-.8-1.4-5.2-3.4,2.5-8.9-.5-1.4-33.4-5.1-8.8,2.1-2.2,1.7,1.7,7,1.2,1.7,3.6,2.9,1.9,3.5,1,9.1,1.7,22,.3.3-.1.2.2,2.8-1.1,1.7-1.6,1-.4,2.2,1.1.8.1,2.6-1,2.2.2,2.2,2,1.4,1.2.9,1.5.3,3-3.2,2.8.1,1,1h1.9l1-1.1,6.7.1,1.9-1,1.4-2.6-2.3-.5-1.4-1.5,1-1v-2.1l4.3-7.7,2.8,2,3.9-2.1,2.8.1,2.9-2.1,5.3-.5v-.6l5.9-1.2-2.1-6.8Zm14.6-143.3-1.4,1.5,1.5,1.6h1.9l.4-.5.1-2.1-.5-.5Zm45.8,274.3h2l.4-1.6-2.4-.4-1-1.1h-2.8l-.5,2.6,1.5,1.5h1.9Zm74.1,100.3,1-1v-7.2l1-1.1-1-2.1-2.5-2.5-2.8,1-1.9-3.1h-3.8l-1-2.1h-2.9l-.9-1.1-1.9,1-3,4-4.7,6.3-1.4.5-1,2v7.2l-2.9,3.1v3.1l2.4,2.6h2.9l1-1h5.8l1.4-1.5.5-3.6,2.9,2,2.8.1,1-1.1h3.8l.9-1.1,2.9,5.2,1.9-.1,3.3-3.5v-3.1l-2.4-.5Zm-4.8-186.3,2.3,3.6,2,1H-93l.9,3.1,2.3-1.5,1-4.2-3.3-2.5h-1.8l-.5-3.6-1.4-1.6h-3.9l-2.4,3.7Zm-32.5,75.2.9-1.1V677l-1.4-2.6-2.4,1.6v2.1l-5.8,6.2v2.1l2.4,2.6,3.4,1.6v5.1l-1.9,3.1v3.1l1.4,1.5h2l3.3-6.7,1.9-1-.9-6.2Zm35.8-91.2,1.4-1.6,1-4.2-2.4-2.6h-.9l-1.5,1.6v2l1,1-.1,2.1Zm-170,28.9,2.4-.5.8-.5.3-.8-.2-1.2-.7-1.1-1.9-1.5-3.4-4.3-1.9-4.5-.1-3.3.3-4.3,1.1-5.6,1.1-4.2-1.1-7.5-.9-32-11.8-16.3-4.8-9.8-2.1-1-21.8,10.2v27.3l1.9-2.1h1l.9-2h2l.9-1,1.9,1h7.7l2.8-3.2,7.7.1,1-1.3,3.1,21.1h-5.7l-1.2.8-.9,1-5.7,1.1-2.9-3.1-6.7-.1-1,1.1-5.7,1-1,1.1h0V638l3.8-3.6h2.8l1.9-2.1,3.8,1.1,2.9-2.1h3.7l2.9,2.1h1.9l3.9-2.1h4.8l.9,2.1,2.5.5-.1,3.1,1.5,1.6,2.8-1,2.9,2.1,2.9-3.2,1.4-.5v-3.1l1-2.1-3.4-.6-1.4-1.5v-2.1Zm87.5,202.3v3.1l1.4,1.6,2.9-.1.9-1h3.9l.9-1.1h1.9l1.4-1.5v-4.2l-9.1-.5Zm-51.3-438.5-2.9-.1-.5,2.6,1.5,1.5h2.9l1.9-1,3.4-5.6v-2.1l-3.3-.5Zm83.2,300-.5.6v1.1l.5.5h1.9l.4-.5v-1.1l-.5-.5Zm4.8-476.7-2.4-1.6v-4.1l3.8-3.1v-6.2l-1.4-1.5-2.9,4.1h-1.9l-.9-1h-1.9l-2.5-2.6v-4.1l.9-1-.5-1.6-3.8,2-2,3.2-.9-1.1-3.8.1-3.9-2.1h-1l-1.9,2.1-1.9-1-1.4,1.6v7.2l-1.9,2-.1,2.1-2.4,2.6-2.8-1-1,1h-3.8l-1.4,1.6-1,2.1V217l-1.9,3.1v2.1l-1.9,5.1v4.1l-3.4,3.6-2.8,1-.5,2.6,1.9,3.1,1.4,5.7h1l3.1,4.2h4.7l2,2.1h2.9l2.4-2.6.9-3.1,3.4-2.6h1.9l1.9-2.1h1.9l1-1.1h1.9l1.9,3.1.9-.1,3.4-3.6,1.9-4.2v-2.1l-2.9-2v-1.1l3.3-6.8h5.7l5.8-3.1,2.4-2.6-.9-3.1,1.9-2.1Zm-50.2-4.6,1.5.5.9,2.1,2.4-.5v-3.1l-.9-1,.9-1.1v-2.1l-1.4-1.6-2.5,1.6Zm36.3-329,.9-2.1-2.9-3-.4-1.6h-2.9l-1.9-1-1.5,1.6-.9,2v6.3l2.4,2.5ZM-308-230.75h3.8l1.9,2.1,12.4,7.2,1.9,2.1,5.7,3.1,7.2,8.8v1l5.3,5.8.9-.1,1,2.1h1l5.7,6.2,9.5,6.2h2.9l1,1h6.7l1,1.1,4.7-.1,1-1h19.1l1-1h9.6l4.3-3.6-.1-5.2-.9-2.1,4.3-4.6h1.9l.9-1.1,2.5-.5v-3.1l-4.3-5.7-3.4-1.6-2.3-4.6-3.9-2.1-9.6-5.2-5.3-5.6-1.8-4h-91.3v3.4h4.8Zm83.1,90.1.5-2.6-1.9-3.1-.9-4.1-3.4-.5-1.4,2.6,2.9,4.1v2.1Zm-58.3-61.1-1.4.5,2.4,3.7,2.9,2.1,2.4-.6-1.4-3.5h-1.9Zm127.2,82.9h.9l.4-.5v-2l-.5-.5h-1.9l-.4.5v1ZM-309,16.65l3.8.1,1-1h10.5l.9-1.1,21,.1,1-1h8.6l1-1h5.7l3.8-2.1,5.7-1.1,3.4-4.6-1.9-3.1-1.4-2.6-3.8-1.1-3.8-4.1-1.5-.5v-1l-4.3-4.7h-.9l-3.3-3.6,2.3-.5.5-1.5-4.8-5.2-1-3.1-1.9-2.2-2.9-6.2-3.8-5.2-1-2.1.5-1.5h1.9l1.9,2.1,4.8,2,5.7,5.2.9-.1,2.9,3.1,4.8,3.1,4.8,5.1h.9l10.6,11.5,8.1-1.6v-2l-3.9-4.2v-1l-2.9-7.2v-4.1l-2.9-5.2-20-21.8-.1-1-9.5-10.4v-1.1l-7.2-7.7h-.9l-1.8-2.1-1.9.1-1-1h-5.7l-4.8-4.1h-.9l-12.9-15v-1.1l-8.1-8.7h-1V17.75h3.8Zm1389.6-188.9,1.4,1.6h1.9l1.4-1.5-1.4-1.5-1.9-.1Zm15.7-57.6,1-1h1.9l.9,1h2.9l1.4-3.7,2.4-1.5.4-.2h-20.7l5,5.4Zm-1407.1,13.6h1.9l1,1h3.8l1,1h5.7l.1-3.1-4.8-2.1-11.5-7.7v2.6l1.9.9,5.3,4.7-1.4.5-.9-1h-1.9l-2.9-2.1v6.3h1.9Zm59.2,208.1L-244-4h5.7l1.5-1.6v-2l-3.3-3.7h-1l-7.2-7.8v-1l-5.3-5.7-1.4-.5-.5-1.5-11.4-8.3-1.9-1-1.5,1.5,6.8,11.4v1.1l7.6,9.3v1.1Zm23.4,44,1-1.1v-7.2l-1.4-1.6h-2.9l-.9-1.1h-2.9l-1-1-2.4-.6-1.9-5.1-1.5-1.6H-244l-2.9-2.1h-4.8l-2.9,2h-2.9l-1.9,2.1h-1.9l-1.5,2.7,1.5,2.6,1-.1,1.9,2.1h1l1.9,2,4.8,2.2,4.3,4.6,3.9,6.2V42l3.3,3.6h2.8l1.9-2.1h1.9l4.3-2.5.1-5.1ZM-287-90.85l-3.8-3.1-1.9-1-1.5,1.6v2.1l1.9,3.1,7.2,5.7h2.9l1.4-1.5-2-4.2-2.4-2.6Zm54.5,43.4-1-1.1h-2.9l-.5,1.6,3.4,4.7,8.6,1,3.3-1.5v-2.1l-2.5-.5-.9-1.1Zm-79.3-142.9.9-1.1,8.6-1,1-1h2.8l1-1h15.3l.5-1.6-1.5-.4-5.7-8.3-9.5-4.1h-15.3v18.6h0Zm7.7,80.8,7.6,4.1,5.7,5.1,3.8,2.1,1.4,2.6,8.1,7.8.9-.1,10.5,10.4,5.8,3.1,8.6,8.3h1l2.9,3.1,4.8,3.1,6.7,9.3h2.8l1,1.1h7.7l3.9,2.1h3.8l3.8-3,3.8-.1,3.4-5.6v-2.1l1.9-2.1v-3.1l.9-1v-7.2l-1-1-.9-16.6-2.9-6.2v-6.3l-2.9-6.2-9-7.8h-1.9l-.9-1.1-3.9-1-.4-1.6-1.5-.5-5.2-5.7v-2.1l-8.6-10.4v-1l-8.6-9.3-1-2.1v-3l1.5-.6,1.4,4.7,1.5,1.5,1.4-1.6v-4.1l-1-1,.1-4.1-1.5-.5-.9,1.1-1.4-.6,1.9-4.1-5.3-4.7h-.9l-14-15.2v-1l-1.5-.5-3.8-4.1-1.9-1h-4.8l-.9-1-16.3-.1-.9,1.1h-2.9l-.9,1.1-4.8,1-1,1.1-4.8.7v68.3l6.7,4.5Zm65.9,224.5-.5,5.7-2,4.1.1,5.2,3.4,2.6,2.9-3.1,4.3-2.6.9-4.2-3.3-.5-1.5-1.6v-2l-1.9-2.1v-1.1Zm250.7,401.2v-2l-.5-.6h-1.9l-.5.6v2.1l.5.5H12ZM53.05,53l-.5,2.5,1,2.1-.9,1.1.9,2.1,1.5.5,1.9-3.1,3.3-1.6v-2.1Zm73.1,531.3v-2l-1.5-1.6h-1.9l-1.9-3.1-1,1-2.8-.1-1,2.1h-2l-1.4,1.6v5.1l-2.8,4.1v3.1l1.4,1.5h2.9l1,1.1,3.8-.1,3.8-3.1,2.4-1.5v-2.1l1.5-1.5,2.4-.5v-2.1Zm-66.7,156.6-.1-1-1.4-1.6-9.6,1-1.4-1.5-.1-3.1-1-3,1-3.1-1.4-1.6h-3.8l-2.4,1.5v4.2l1,1.9-.9,12.4.9,2.1,12,.4,1.9-1,1.4-1.5v-2.1l2.4-3.5Zm43.2-147.8-.4-2.7-3.3-2.5-2.4,2.6-.4,2.6-1-1.1-1.9,1-1-1-1.4.6v3.1l2.4,3.5h1.8l1-1H98l1,1h4.8l2.4-3.6-1.5-2.5Zm-195.3-28.3,5.3-.6.9,1.1,6.8-6.3h1.9l.4-2.5-2.4-1.6-2.9,2.1-1.9-1h-7.7l-.4,2.6,1,.9-1,1.1Zm151.5-450.7,1.4-.6-.1-2.1-2.3-2.6-1.5,1.6v2.1l1.5.5ZM55,588l2.4-1.6.1-7.2-1.4-1.6-1.5.6v6.2l-1,2Zm3.8-116.6h1.9l1.5-1.5v-2.1l-1.4-1.5-2.9-.1-.5,2.6,1,1Zm.7,273.6v2.1l.5.5h4.8l.5-2.5-4.3-1.7Zm106.8-62.7.1-4.1-5.3-.5-1-1.1h-4.8l-1-2-3.4.5.1,4.2-1.9,2.1v6.2l-1,2,3.3,3.6h1l1.4-1.5.5-1.6,1.9,1.1,1.9-1,.9-2.1,5.8,1,1,1h1.9l1.4-1.5v-3.1Zm-10.1-138.7-.4.5v2l.6.5h2.8l.5-.5V543l-.5-.5h-1l-.9,1.1Zm-23.9-17.5,3.3-2.7-1.4-2.6-3.8,1.1-1.4,1.5,2.4,2.6Zm30.1-9.9v-2l-1.5-.5-.9-1.1h-2l-.4.5v2.1l2.4,2.6Zm-14.3,169.2v-2.1l-1.4-1.6-7.7,2.1-3.4,4.6v5.2l3.4.5,7.2-5.7-.1-1.1Zm-12.3-165v1l1.4,1.6h1.9l.4-.6v-1l-1.4-1.5h-1.9Zm3.2,20.1h3.8l1,1,1.9-2.1,2,1,2.4-2.6v-2.1l-2.8-3.1,1.4-1.6h2.9l.5-2.5-3.3-2.6H144l-1.4,1.5,1,4.1-2.5.7-1.9,2-1-1h-2.9l-3.8,2-.5,4.6,2.4,2.6h1.9l1,1Zm11.5-22.7,1-3,3.3-.6.1-3-2.5-.5-.9-2h-4.9l-1.9-1.1-2.8-4.1H139l-1.4,2.6.1,3,.9,1.1-1,4.1,1.5,1.6H141l1.4-1.5.5-2.6h1.9l1.4,1.5-.1,3.1ZM64.55,115l-.5.6v3l.5.5h.9l1.5-1.6v-2.1l-.5-.5ZM-49,802.05h-2.9l-1.9,1,.5-2.7-2.4-2.5-1.9-1h-2.9l-1-1-4.8-1-5.7-4.2h-2l-.9-1.1-11.5,6.2-3.4,3.6v2.1l1.4,1.5.9-1,3.3.6-.5,1.1-3.3,8.1v3.1l1.4,2.6,1.9-1,.9,1,6.3.5-1.5,2.5-3.3,2.5-.1,3.1-1.9,4.2.5,1.6,3.9,1,.9-1h4.8l2.9-4.1,2.8.1,1,1,4.8-.1,5.7-5,1-.1,1.7-1.9,1.6-1.7,1.9-6.1,3.8-4.2-.1-5.1Zm-18.2-267.7.9-2.1h1.9l1.4-2.6-1.3-1.5-5.8-1-2.4,2.6v2.1l3.4,2.6h1.9ZM-83.55,725l2.8-2.1,3.8-1.1,3.8-4,1-.1,3.3-3.6v-2l-1-1.1-2.3-3.6-1.9-1h-3.8l-2.9,2.1h-2l-.9,1L-85,709l2.4-3.6,2.8-1,2.4-2.6.1-3.1-1.4-2.6h-9.6l-1,1h-2.9l-1.9,2.1h-5.8l-1-2.1h-1.9l-1.4,1.6v2l-3.9,4.2V708l1.4,2.6,3.8,2,2.9.1,1.4,1.5.5,10.8,1.9-1,4.8-.1,1-1,2.8,2.1Zm69.3,14.9-3.3-.6-1.9-2-1.9,1h-2.9l-1-1.1-3.2,1.6-.1,3.1,1,1-.5,1.5h-4.8l-4.8-3.2-2.8.1-.5,3.6-2.4.4-2.4-3.6-.4-2.6-3.8.1-.5,2.5,1.9,3.1-3.3.5-1.9-1-1.4,1.6v2l1,1.1v3.1l2.3,2.5h2.9l3.3,3.7.1,2.1,1,1v4.1l1.4,2.6h3.8l1-1,1.4,1.5v2.1l1.9,2-1,6.2,1.5,1.5h2.9l1.9,2,3.8-1.1.4-3.6,1-1v-5.2l-1-1,.5-.6,1.9,2.1h2.8l.5-2.5,1.4-2.6,2.8-1,1.5-1.6v-7.1l-2.9-3.1.5-.5,3.8-.1.5-3.5.9-1v-2.1l-2.8-2.1ZM-30,593.05l.5-1.6,2.9-3.1v-4.1l-1.5-.5-1.9,2.1h-1l-.9,2.1-1.4.4v2.1l1.4,2.6Zm102.2-486.3,1.4-1.5.1-2.1-3.3-4.7h-1l-2.9-3h-1l-3.8-4.1h-2.9l-.5,1.5,1,1.1v3.1l5.7,4.1,3.3,5.7ZM-93.55,575v1.1l.5.5.9-.1.5-.5-1.5-1.5Zm-13.8,103.7-3.8,1-.5,2.7,1.5,4.6h2.8l1.9-1,1.4-1.5.9-4.2,1.9-2-.9-2.1-3.4-.5Zm-3.4,11.8v3.1l1.5,1.6h.9l1.4-1.5.1-4.2-1.5-1.5Zm136.1-153.1h2.8l1.5-1.6-1.4-2.6-2.3-.5-.1-3.1-2.4-6.7h-1l-1.9,2.1-1.5-.5.1-3.1.9-1-.5-4.7-7.2,3.6v3.1l1,1-1.5,2.6-1.4.5v1.1l.5.5h1.9l1,1h1.9l2-1Zm3.8,192.8-.9,1h-1.9l-3.9-6.2h-2.9l-2.4,2.5v3.1l1.4,1.6h3.9l.5,2.4,1.5,1.6h2.9l1.4-1.5,2.3-.3,2.4-2.6-.5-1.5Zm11.5-144.3h2.9l2.4-1.6v-3.1l4.7-8.3,1.4-.5,3.4-3.6v-1.1l-1.4-.4-1.4-1.6v-5.2l-3.8-3.1v-2.1l-1.4-1.5-5.7,1-2.5,2.6v2.1l-1.9,2.1v6.2l-2.4,1.5-1-1h-1.9l-1.5,1.6-.1,2.1,3.8,3.1,1.5,8.8,3.8,1ZM43,541l-1.3-1.6-1.9,2.1-1.9-1H35l-1.4,1.6v2l3.8,4.2v4.1l2.4.5,2.4-2.6-.1-2.1-1-1,1.9-3.1Zm175.8,120.6-.5-4.6h-5.7l-.5,2.6.9,1v4.2l2.4.4,1.9,3.1h1.9l.9-1,1,1,3.4-.5-1-4.1Zm-215.3-438,1,1.1,2.8-.1,5.3,4.7.9,3.1,1.5,1.5,2.8,1,1.9,2.1,5.8,1,.9,1h3.7l1,1,6.7.1.4-4.6-2.3-5.6-2.9-1.1-2.3-2.6-1-2.1V219l-4.3-5.7h-1.9l-.9,1h-7.7l-1.4-1.6v-3.1l-3.3-.5-1.5,1.6v5.2l-1.4,1.5-3.9-1.1-1.9-3.1-4.8,3.1-1.4,1.5.1,1.1,1,1v1l.5.6h.9l3.9,2.1Zm4.3,532.8-2.4-2.6-1.9.1-4.3,3.5v2.1l1,1v4.1l2.4.5,1.4-1.5v-2l3.9-3.1Zm396-417.3,2.8-1,4.8,6.2h1.9l2.4-3.6v-2.1l2.9-2.1-.1-2.1-1.4-1.5-2.8,2.1-2.9-.1-2-1-1.9-3-2.9-.1-1.9,3.2-4.8,1-.5,2.5,1.4,2.6h3.8Zm451.3-437.8-.4-2.5-4.8-.1-.5,1.6,1.5,1.6h3.8ZM708,197.05v1.1l.4.5h1.9l.6-.5v-1l-.5-.5h-1.9Zm2.9-2.1v-2l-.5-.6h-1l-.4.5V195l.5.6h1Zm-10-18-1.5,1.5,1.4,1.6h.9l1.5-1.5v-1.1l-.4-.5Zm-28.7-43.5-.5,1.6,2.3,2.5h1.9l.5-.5V135l-2.4-1.5Zm176.7-230.7-.5.5,2.4,2.6.5-.5v-2.1l-.5-.5Zm-2.8,2.1h1l.5-.5v-4.2l-2.4-.4-1,1-.9-.1-.5,2.7,2.4,2.6Zm7.6-14.5h-1.9l-.5,2.6-3.9,3,.1,2.1.4.5,1-1.1,5.8-1,1.4-3.6Zm-9.5,6.2,1.5-1.6v-1l-1.4-1.6h-1.9l-.4.5v2.1l1.4,1.5h.8ZM584.25,71.45l1,1.1h1.9l3.8-3.1,1,.1,1.4,1.5-2.8,2.1.4,1.5h4.8l1.9,1,1.5-2.6V70l-1.4-1.6h-2.9l-2.8-3.1h-1l-1.4-1.5v-3.1l-2.4-.5-1.5-1.6v-2.1l1.4-1.5H592l3.8,4.1h1.9l4.8-4.1,4.7,1,1-2.1h1.9l1.4-1.6-1.4-1.5-1.9,1.1-1-1.1h-7.6l-1-1-1,1h-6.7l-1-1-.9,1-1-1-2.8.1-.9-4.2h-4.8l-.4,5.7,1.4.5,1.5,2.6h-4.8v3.1l2.4,2.5,3.8,2.1,1.4,3.6-1.4.5-1-2-3.8,1-1.4,1.5v2.1l-1.9,2.1,1.4,1.5h6.7Zm11.5,40.4-.5.5v1l.5.5h1.9l.5-.5v-1.1l-.4-.5Zm-14.4-11.5-.5.5v1l.5.6h1l.5-.5v-1l-.5-.6Zm19.1,3.1,1,2.1h1.9l2.8-4.1h1.9l3.9-2.1.5-1.5,3.8-4.1v-2.1l-4.3-.5-.5-4.8-7.2-4.7h-1.9l-1.4,2.7,1.9,1v6.2l-1.9,2v1.1l-4.7,4.1-.5,1.5-1.9-2h-5.7l-1-1-1.4,1.5v2.1l2.9,2.1-1,3.1,2.4,2.7,2-1.1h3.8l2.8-4.1Zm57.4,16.6.9-1.1h2.8l.5-4.7,3.8-4.1v-1l-2.3-.5-1-1.1-4.8,1-1.5,1.6v2l-1.9,1v2.1l1.9,1-.1,2.1Zm-39.6-46-.1-3.1-1.8-1-.5-2.6h-1.8l-1.5,1.5V73l.9,1.1-2.3,3.6h-1l-2.3-2.5-1.4-3.8-3.8-1-1.6,6.8,2.3,2.6,8.7,4.1,1.8,2.1h2.8l.5-4.7-.9-1v-4.2Zm40.1,81.6.9,2.1,3.3.4,3.3-3.5v-4.2l2.9-2v-2.1l.9-1.1-.9-3-1.5-.6-2.3-1.5v-2.1l1.9-2.1v-2l-1.4-1.5h-1.9l-1.9-2.2-3.8,1-2.9,4.2-2.4,1.5,1.5,2.6h.9l1.4,1.5v3.1l1,1v4.2h2.8l-1.9,3.1v3.2Zm-33-94.5-.5,1.5,1.5,2.6h2.8l.5-.5v-1.1l-1.4-2.6Zm258-193.6-1.5,1.6v1l.4.5h2.9l.5-.5v-1.1l-.4-.5h-1Zm-24.9,26-.5.5v2.1l1.4,1.6h.9l.5-.5v-2.1l-1.4-1.6Zm90.3,1.4v-2.1l-.4-.5h-1L945-105l1.4,1.5h1Zm-6.2,1.7-.5,3.6-2.4,1.5-3.3,4.6-.1,5.2,5.3.5,1-2h1.9l1.4-1.5.9-4.2,2.4-.5,2.4-2.6v-1.1l-3.3-.4-3.8-3.1Zm-27.7-41.5h.9l1-1h1.9l3.8,2.1,2.9-2h1.9l.5-2.6,2.8-2.3v-3.1l-4.3-.5-1,1h-2.8l-1,1-3.8.1-1.9,1-2.5,2.6v1l1,1.1v1Zm13.8,5.7.4.5h2l1.4-1.6-.4-.5h-2.9l-.5.6Zm-1063.3-96v5l-5.8,11.4-2.9,3.1-.9,3.1,1.9,3.1-2.9,2.1v3l1.9,2.1.1,1.1,3.8,4.1,1,5.1,1.4,1.6h4.8l1.9,2.1,3.9-.1,5.7-3.1h3.9l.9-1,7.7-2,1.9-2.1h1.9l.9-1,13.4-1,7.1-6.7v-6.2l1.5-.6,3.3-3.6-.1-1.1,3.4-2.6,8.6,5.1,5.7,1,3.8,3.1L-53-209l3.8,4.1h4.8l1.9-1,3.8,4.1,4.8-.1.9,1.1h3.8l1.9.9,3.3,4.7,2.4,3.7h1.9l2.9-3.1,3.8-.1,3.8-2.1,3.9-2.1,2.8.1.5.5-2.4,2.6-12.4,5.2-1,1.1-3.8,1-3.3,4.6v14.5l1,1v3.1l1.4,1.5h1.9l1-1,2.4,1.6-1.9,4.1v4.1l-1,1v17.6l4.7,10.4v2.1l2.8,4.2,3.9,9.2,4.8,6.3v1L-.15-98l4.9,10.4,8.6,11.3v1.1l3.9,4.1,1.4,3.7,2.8,1,1.5,1.6,4.9,10.3v1l3.8,4.1.9,3.1,2.9,3.1.9,3.1,1.9,2.1,1.9,6.1,6.6,8.3v2.1l1,1v4.1l4.8,6.3V-6l1,1v2.1l2.8,2,5.7,11.5,2,2.1.9,4.1,1.4.5,5.7,7.3,2.9,1,.4,1.6,2.4,1.5.5,1.6,1.5.5,1.4,2.6v7.2l3.3,2.6h1.9l1.9,2.1,2.4-1.5v-3.2l1.4-3.6,5.8,6.2h2.8l1-1.1,1.9,1.1,1,2.1h1.9l.9-1.1,1.9,2.1h3.9l1.9,2H117l6.2,4.6,2.9,5.2,5.8,6.2v3.1l3.8,1.1v3.1l2.8,3.2-1,1.1.9,3.1-.9,1,.1,8.3-3,5.1-5.1,5.6h-1.9l-2.4,2.6-.9,4.1-3.8,4.2.1,1-8.2,7.9h-9.6l-2-1-2.4,2.6-.9,3.1-1,1v2.1l3.8,5.2v3.1l-1,2.1,1.9,3v3.1l1.4,1.6,2.5-1.6.5-1.6h2.9l7.1,3.6.9,3.2-2.8,4.1v3l1.4.6,1,1.1,3.8-4.2h4.8l.9-1h2.9l1.8-3.1,3.8.1,5.8-5.2h.9l2.4-2.6-.9-4.1,6.2-5.7,8.6,1,2,1.1,1.9-2.1.4,2.6,4.3,2.6h1.9l1.9-3h2l1.4-2.6-1.4-1.5-5.2-.6-.1-5.2-2.8-6.2V96.75l.9-1V82.35l7.2-7.8,7.6,2.1,1.9,2.1h1.9l3.3,3.6.5,1.6h5.7l.4-1.6,4.3-4.7,2.8.1,3.8-3.1h9.6l4.9,3.1,6.6.1,1.9,3.1h6.7l1-1h5.7l3.8,4.1h2.9l.9,1,1.1-1,.9-2.2h1.9l.9,1h1.9l6.7,3.1h2l1,1.1h4.7l1,1h6.7l4.3,3.6,2,4.2,2.9,3.1.4,1.6h1l.9-1h2.9l2.8-3.1h3.8v2.1h-2.9l-1.4,1.5.9,1,.1,3.1,1.4,1.5,2.9,1,.9,1h1.9l1,1.1,2.8-.1,1,1,1-1h2.8l1.4-1.5,1.9-5.2,1-3.1,5.3-5.7,3.9-2.1,4.7-1,1-1H331l5.7,4.1h1.9l3.8-3.1.4.5v1.6h0v.5l-2.4,3-4.5,1.5-4.2-3.3-4.6.2-3.8,1.2-2.8,3.1h-1l-2.4,3.6-1,5.2-3.3,3.6-2.4,1.6-3.4.9-4.6-1.5-1-1-7.6-.1-5.7,5.2-2.9,1-4.4,4.7-.9,4.1,1,1.1,1,6.2,2,2v3.1l-1,1v4.1l1,1.1-1,1-.5,5.7-1.5-7.8-2.6-2.5h-1.9l-3.8,3.1-6.7,3.1L264,149h-4.8l-.5-5.7.9-1v-5.2l4.8-6.2-1.4-2.6h-2.9l-1,1h-5.7l-.9-1h-2.9l-.9,2.1h-3l-3.4,2.6-2.8,7.2-3.3,5.7h-1l-3.8,4.1h-1l-5.2,5.7v1l-4.7,7.2-1,4.1-4.3,4.7-15.2,7.2h-3.9l-2.4,2.6.1,1-8.7,9.3-1.9,9.2-4.3,3.6H178l-2.4,2.6-.5,4.6-5.7,3.1h-4.8l-1,1.1-5.7-.1L157,218l-1.9-1h-3.8l-1,1h-1.9l-3.4,3.6v2l-2.3,3.6-1.9,1H137l-2.4,2.6-.1,3.1,3.3,2.6h4.8l5.3,4.6.9,2.1-1,1,.1,4.1,2.3,3.6h1l2.4,2.6v2.1l1,1.1v7.2l-1.9,2.1-.1,3.1,4.8,5.2.5,1.6,3.8,2.1h8.6l1,1.1,4.8,1,3.8,3,1.9.1,1.9,1,1.9-1,1.9-3.1,6.7-3.1,1.9-2,5.3-.5v-2.1l4.8-5.2v-5l1.9-2v-1l3.3-3.6,1.4-.6v-3l-.9-1,.4-3.6,1,1,7.1.5V252l2.8,3.1v4.1l-.9,1.1-.9,2-.2,4.2,1,.9v2.1l2.3,2.5,1.9.1,4.8,4.1H236l2.3,2.5-1.3,2.7h-1l-1.4,1.5,1.4,2.6,4.7,1.1,1-1,1.9,2,2.9.1,1,1,1.1-1.2,1-2.1h2.8l3.8-3h1.9l1.4,1.6.5,2.5,3.8-2.1,4.3,1.5V289l2.4,4.6,5.7-.1.9,1.1h5.7l1-1.1h3.8l2.9-2h1.9l6.7-4.2h5.7l1-1,1.9-.1,7.6-6.2h1.9l5.7,3.1,1,1.1,5.8-1,1.9-3.2,1.9-1h5.8l.9-2.1,5.7,3.2,2.8-.1,1-1h5.7l1-1.1,6.7-1,3.8-4.1,6.7,1,4.3,5.7v3.1l-2.8,3,4.8,6.2v3.1l1,2-1,2,1,2.1,1.4,1.5h1.9l1.9-3.2,2.4-1.5.5-2.6h1.9l.5,2.5-1,1v4.2h-.9l-1.5-2.7-1.6,2.8,2.4,4.6,4.8,1.1,6.7,8.2h2.9l2.8-5.2.5,2.6-2,4.1,2.4,1.5,1.9-.1,1,1.1h8.5l2-1.1,1.9,2.1h1l9,8.8-1,1.1V338l1.4,2.6,1-1,3.8-.1,1.5,2.6v5.2l.9,2-2.8,2.1v2l.9,1.1,3.3,16h8.6l2.9-4.2.9.1,1-2.1h1.9l2.4-1.5.1-4.1,1.4-2.6,7.6,4.2,1.5-1.6v-2.5l1-1v-4.1l-1.4-1.6-2.4-.5v-3.1l1.5-.5,3.3-3.6v-2.1l2.4-1.5,6.7,7.3h1l13.4,13.4,2.4-3.6-4.3-5.7h-2.8l-2-3.1h-.9l-13.3-14.1,1.4-.5,3.8,4.1,1.4-2.6-.1-3.1-1-1,.5-1.6h7.7l3.4,2.6-.5,6.7-2.4-1.5v-3.1l-1.4-.5-.5,2.5-2.9,3.1v2.1l3.4,3.6h.9l2.8,3.1,3.9-2.1,1,2.1h1l6.2,6.7.5,1.5,1,.1,3.3,3.5,4.3,7.8,1.9-1.1,4.3.5v1l-2.9,2.1,1,2v1.1l1.9,1,.5,1.5,2.3.5.5,4.7,1.9,1H526l1,1,2.4-1.6v-1l11.5-13.4.9-2.1v-2.9l-1.9-4.1-2-1,1.5-.5,2.4-2.6.9-3.1,1.9-2-1-11.4-3.3-3.6h-1l-1.9,2.1-.5-2.6,1.5-1.6h5.7l1.9,1,.5,2.5,2,3.2v2l2.3,2.7,2.8-.1.5-2.5,1.5-1.5.4,1.6,1.9,1-1.9,2-.4,2.6h-1.9l-1.5,1.6v6.2l1.9,1-.1,1,1.9,1,1,2.1v3.1l1,2.1,2.4,2.5,2.4.5v2.1l1,1v3.1l1,1.1-.9,7.2,1.4,2.6h2.9l.5,2.6,1,1-4.8,4.1,1,11.4,1.4,2.6,2.9-.1.9-2.1,1.5-.5.5-3.6.9,1.1,6.7,1,.5,2.5,1.4,1.5h2.9l1.9,1,2.9,7.2h1.9l1.4-1.6v-5.1l1.4-.5,2.9,2.1,2.4-1.5.9-3.1-1.5-3.6-3.8,2-1.4-.5v-6.2l-.9-1-.1-3.1,2-2.1-1.5-2.5H592l-2.5,2.7-.9,3.1-3.3,3.6-1.5-.5,2.4-3.6,1.4-.5v-2.1l-6.2-.5-.9-1-1.4-.5-.1-3.1,2-1V380l-2-3.1,3.3-2.5h1.9l.5,1.5,3.3,2.6h6.7l3.8-4.1,4.8-2.1,1.4-1.6.1-5.1,1.9-1-2.9-4.1v-2.3L598,352v-2.1l-1.4-1.5h-1.9l-1,1.1h-3.6l-3.4,3.6.1,2.1-1.5.5-1.4-2.6-1.9-1,1.9-1v-3.2l-.9-1v-2.1l-1.9-1-.5-8.7h-1.9l-1,1.1-5.7-1.1-2.9,2.1h-2l-1-2.1-3.8-1-1.5-1.6.1-7.2-2.9-5.2.1-2.1-2.2-1.5-1.5-2.6v-6.2l1-1v-3.2l1.9-3.1-1.5-1.6h-2l-.9,1-1.4-1.5v-2.1l-4.2-3.6h-1l-1.9,3.1h-5.7l-.5-1.5,4.8-3.1,1-3.1,3.8-4.1v-4l1.5-.5.9,1.1,1.5-1.6.5-3.5,4.2,3.5.1,2.1.9,1-1,1v3.1l-3.8,3.1.5,3.6,1.9-1.1,3.8,1.1,1.3,4.7,3.4,3.6,2.3-1.5v-3.4l2-1-1-2,1-1.1V288l-4.8-2v-2.1l-2.9-6.2,1.9-4.2-.1-6.2-3.4-2.7-2.4-.5,1.5-1.6h1.9l.4-1.6,3.8-4.1v-2.1l1.9-2,1-4.2L568,247l1,1h1.9l.5-1.5,2.4-1.6h2.9l2.4,3.6,3.3,4.7h3.8l1.8-3.1.5,2.6,1.9,2,.5,3.7h1.9l1.5-1.5v-2.1l.5-.6,2.9,4.1h1.9l.9-1.1,2.9.1.5-2.6-.9-1v-2.1l2.4-3.6h1.9l.9-1h2.9l3.8-2.1,1.4.5-.5,1.6-3.3,1.6v3.1l1.9,1-1,8.3,1.5.5,2.8-2,.5,1.6,2.4,2.6,7.6,4.1,3.8-2.1.5,1.6,3.4,2.6h2.8l1-2.1,1.9,1,1.5-1.6-2.9-6.1-1.9-1,.5-3.7,2.9,2.1h1.9l.9,3.1,3.4.5v3.1l4.3,3.6h1.9l.9,1h4.8l1-3.1,1.4,2.5-1,1.1v3l3.4,3.6,5.8,1,1.9,2h1.9l1.9,3.1H679l.9,1h4.8l1.4-1.5v-2.1l-2.4-2.6-4.2-2.5-.1-3.1-1-1,2.4-2.6,1.9,2.1h1.9l1.9-2,1.5,1.5-.1,3.1,2.9,6.2,1.5,1.5h2.8l2.4-2.6v-3.1l-1.4-2.5-1.5-.5-1.9-4.2,4.8-1-1-11.4-.9-1v-3.1l-1.4-.6-1.9-2.1h-1.9l-1,2.1-.9-2.1-2.4-1.5-1-3.1-4.3-4.6H678l-2.9,5.2-1.4-.6,1-1v-3.1l-2.9-2.1,3.3-.6,3.3-2.5v-8.3l2.4-1.5,1,2.1h.9l1.5-1.6-1.9-3.1.9-4.2,1.5-1.6,3.8.1,2.9-4.2h1.9l.9,1.1H699l2.3,5.6,1.5,1.6h1l2.8,3.1,1-1.1h1.9l1.9,1,2.3-2.6-1-2v-3.2l-1.9-1-.5-2.6-4.8-2.1-1.4-1.6.1-5.2-1-1v-1.5l2.9-2.1L708,194l-1.4-1.6-2.9.1-.9,1-2.9-4.1-.9,1-.5-.5-.5-3.6h-1l-2.8,3.1-5.8,1.1-1.9,2h-3.8l-3.8-3.1-3.8,1.1-.9,2-2.4-.4v-4.2l-1-1v-2l-1.9-4.2,1.5-1.6,2.4-.5v-8.3l-2.3-1.5-2.9-4.1-1.9-1-4.3.5v6.2l1,1-.1,2.1-4.2.5-2.9,2-1-1-2.4.5v3.1l1,2.1,1.5,2.6,1.4.6V187l-.9,1,.9,1-.9,1v6.2l-1,1-.1,2.1,1,1-1,1.1-.1,2.1,2,3.1v1l-2,1.2,1,1-.5,1.6h-1.9l-.9-1.1-1.9,1-2.4-1.5,1.4-2.6,2.4-.5v-2l-1.9-2.1v-4.1l-1.9-3.1v-4.1l-1.5-1.6h-1.9l-3.3,3.6v5.2l-1.4,1.5-1-1-2.3.6,1.9,3.1-5.3,1.6-.5-1.6,2.9-2.1v-5.1l-1-2.1-2.9-3.1,1.4-1.6h5.7l2.3-2.6.1-5.1-1.4-1.6-2.4-.4,1-1.1-1.9-7.2,1.9-3.1v-5.2l1.5-.5,2.8,2.1h2.9l2.3-1.5v-4.1l-3.8-6.3V147l-1-1.1-1-4.1-1.4-1.6-1.4.5v1l-2.9,3.3v4.1l.9,1.1-.9,1v4.1l-1.9,2.1,1,1-1.5,1.5-1.9,1-3.8-1.1-3.9,3.1-.5-.5,1.9-4.2.9-5.1,2.4-.6.5-1.6-2.4-3.6h-1.9l-1,2.1h-2.8l-.5-1.6-.9-1,.9-2.2-1.8-5.1-2.5-.6-.4,2.6-1.4,1.6-3.8-.1-4.8,6.2h-1.9l-6.3,5.6-1,5.2-1.9,1,1,1.1v6.2l-2.4,2.6-2-3.2-1,1.1H586l-1-2-2.8-.1-.5,8.8-.5.5-1.4-1.5v-1l-2.3-1.6h-1.9l-7,6.7-.4,2.6-1-.1-1.5,1.6.5,3.6h1l1.9-2,1,1H572l.5,1.6-1.9,2V191l2.9,5.2v4.1l2.4,2.6,3.3.5v1l-6.2,5.7-2.9,1-6.3,4.6-.5,8.8-1.4-3.6-5.7-6.2v-1l2.9-2.1v-10.4l-1-1v-2.1l-2.3-2.6h-5.7l-2.9,2.1h-3.8l-1,1-1.9-3.1h-2.9l-1.9,2.1h-3.8l-1.9,2-.5-2.6,2.4-.6,1.5-1.5-.5-1.6h-3.8l-3.8-2.1-2,1h-2.9l-.5,2.6,1.9,3.1-3.4,3.7-2.4.4-1.9,9.3-3.4,1.6-.5,2.6-2.8,2.2,1.9,3.1-3.9,3.1-1,4.2-1.9,1,.1,3-1.5,1.5-2.9.1-1.9,2.1-2.9,1-.9,2.1-1.5.6-3.8,9.3.9,1L490,254l-2.9,5.2-.5,2.6-5.7-1-1.4-1.6-.5-2.6h-1.9l-1,1.1h-1.9l-1.4,2.6-4.3,3.6-1.4-.5,3.8-4.1,1-6.2,2.9-5.2,5.7-6.2,1-3.1,6.2-6.7h.9l3.3-2.6-1-2,.1-5.2,1.9-1,1-2.1v-7.3l-3.8-4.1-.5-1.6-1.9-1H482l-1-1.1-2.4-.5v-8.2l-2.4-2.7-1.9.1-2.9-3.1h-4.7l-1,1.1-1.9-1-3.8-3.1-3.9-1-2.4-2.6,1-1-1.3-1.6h-6.7l-4.7-4.1h-1.9l-.5-1.6,1.5-3.6,1.9,1,1-2.1,4.8,1,1-1.1h1.9l1,1.1h1.9l.5-4.7,3.3-.5,4.8-4.1,6.7,2.1,1,1h1.9l1.9,3.1h2.9l1.9-2.1h3.8l1.9,2.1,1.9,1,1.9-1,.9,1h1.9l1.5,1.6-2.1,5.3-1.9,2,1.5,1.6h1.9l1-1,1.9,3.1h1l1.9-3.1,1.9,1,2-1,.5-1.6-1.5-1.5-3.8-1.1-2.4-5.6-1.5-1.6h-1.9l-3.3-2.6,1.9-11.4,2.9-2.1.5-1.6h.9l2.4,2.6,1.5,3.6,1.9-1h3.8l2.8-3.1,6.7-2.1.5,1.5-1,2.1,2.4,2.6,3.4-2.6.9-4.1,2.9-3.1.9-3.1,3.8-4.2v-2l1-1.1-.1-6.2-1.9-3.2v-3.1l-1-1,.5-2.6,2.4,3.6.5,2.6,4.8,2.1,1.9,2h2.9l.9,1h1.9l3.8,2.1H548l.9,4.1h1.9l2.4-2.6v-3.1l2.4-2.6h1.8l1-1,1,1,2.9-.1,5.7-3.1,5.3.5-1.4,2.6-1.5.5,1.5,5.7h1.9l2.9-5.2,2.4,1.5-1,3.1-1.9,2.1V138l-4.7,3.1-.5,2.6h-5.7l-1.9,3.2-1-1.1h-3.8l-1.8-1-2,3.1-4.7-.1-1.9,3.2-1.4.5v2.1l-2,3.1,1.4,1.6h1.9l1-1.1,1.4.6-7.1,8.8L541,166l1-1-1.5-1.6h-2.8l-6.1,6.7v3.1l-1,1,.5,2.6H533l.5-2.6,2.3-1.6h6.7l2.8-2.1,1,.1,2.4-2.6,1-3.1,5.3-5.6,4.7-3.1,3.8-1,.1-2.1-3.9,2.1h-3.8v-2.1l2.8,1,3.8-3.1h6.7l.9-1H572l2.9-2h1.9l2-2.1,1.9,1,1.9-2,2.9-1,1.9-3.1.9,1,1-1,5.7-1,5.7-4.2,1.4-1.5V132l-1.9-1,1.5-1.6h1.9l1.8-2.1,1,3.1,5.7-5.2h.9l8.6-11.4h1.9l2.8-3.1h1.9l5.1-3.6.1-5.2-2.4-2.6-5.7,3.1-3.8,4.2h-2.8l-1,1h-2.6l-1,1.1-3.8-.1-1,1.1h-3.8l-1.9,1-.9,1h-1.9l-2,3.1-1.9,1-5.7-5.2-2,1-.5-.5-.4-3.6h-2.9l-.9-4.2-4.3.5v1.1l1.9,2.1-1.4.5-3.3-1.6,1-1-.6-1.7h-4.7v-1l3.4-.6-3.4-2.4-1,1h-4.8l-.4,1.6-2.5.4-1.8,2.1-2.4-.5,2.9-2v-3.2l-1.9-1v-3.1l2.4-.5,2.9,4.2h1.9l.5-3.6,1.2-2.4,1.4-.4v-2.1l5.8-5.1-1.5-2.6h-1.9l-5.7,5.2-.4-2.7,2.8-4.1-.5-2.6-2,1h-2.8l-2.9-2-.5,4.7-4.3.5-1-1-3.8.1-1,.9-3.2-.5,1.9-3.2v-2l5.8-4.2-1.5-2.6-4.4-1.6v-2.1l-1.4-2.6-1,1.1h-1.9l-1.9,2.1-1.4-.5,1.9-3.1-1-6.2,2.4-.5,1.6-1.6-.5-1.5h-3.8l-.9-1h-1.9l-1,3.1h-1.9l-1-1.1-1,1-1.5.5-.4,1.6h-1l-.4-2.6-1.5-1.5-4.8,1-2.4,2.5v2.1l-2.9,5.2v2.1l-.9,1V70l-2.4,2.6-3.8,1-2.9-2-1.4,2.6v2l-3.4,1.6-1.9-2.1h-2l-2.3,3.7v2.1l-1.5,1.5-1.4-.4-.5-2.7-2.9,2.1h-3.8l-1,1.1-.4-.5,1-2v-3.4l-1-1.1v-7.2l.5-.5,1.4,1.6v1.1l3.3.5,2.4-2.6,1-5.1,5.2-5.7,1.4.5-1.9,2.1.5,1.5h3.8l2.1-1.8-.4-.8.2.4.2.4,2.2-1.8v-4.2l3.8-8.2-.1-2.1,1.5-1.5h2.8l3.9-5.1h3.8l1.4-3.7,3.8-3.1,1-3.2,4.4-4.6,7.6-4.1,5.7-7.2,2-1h6.6l3.4-2.6,1.4-2.6H568l.9,1h1.9l2.9-2,2.8,2h1.9l3.8,3.1,3.8-1.1,2,2.1,7.1-.6V8l-2-3.2V1.55l3.4-5.7,3.8-2,5.8-4.2,2.4,1.5.5,2.5,3.8.1,1-1.1h1.9l.4-4.7,3.3-3.5h5.7l3.9,2.1.5,1.5,2,2,1.4,6.7h1.9l4.8-4.1,3.8-1.1,4.8-4.1,7.6-1.1,1.5-2.6v-2l2.5-2.5h10.4l1.9-2.1,2-1H677l1-1.1h2.9l1-1.1,2.8.1,1-1.1h2.8l1-1.1h12.4l3,2.1,1.8,1h5.7l2-1,1.8,1,1.5,2.5,4.3,5.7h2.7l1,1.1h6.7l3.3,2.7,2,6.2,4.8,7.2,3.9,7.3.9,4.2-1,1v6.2l3.8,3.1-1,2.1.5,2.6h17.2l.9,1,3.8.1,2.4,1.5,2.9,6.2v6.2l6.7,6.2v2.1l2.4,2.6.9-1.1,3.8.1,1,1h1.9l3.3,3.6v3.1l1,1-1,1v2.1l1.4,1.6,2.9,1,1,2.1h.9l1.4,1.5-1.7,3.1v3.3l1.9,4.1v3.1l-2.4,1.6h-1.9l-1.5,1.6v6.2l-2.4,2.6-3.8,1-.5.5,1,1.1v6.2l1.5,2.6,2.4,1.5v2.1l1,1v5.2l-2.9,3.1v2.1l1.5,1.6h2.8l3.3,3.6v2.1l-2,2v2.1l2,3.1-1.9,4.2-.1,3.1-.9,1.1.5,8.8h2.8l1,1.1h7.6l1,1h1.9l2.4,2.6-1,2.1v6.2l-1,1,.9,3.1,3.4,4.6.5.2,3.4,1.8,1.9-1h7.6l3.8-2.1,3.8,1,8.1-9.8v-1.1l2.5-2.6h1.9l2.4-2.6-.9-4.1-1-1.1,1-1v-3.1l5.2-3.7,2.5-2.6v-1.1l10-6.7h2.8l1.9,1,5.7,5.2h1.9l2.9,2.1h1.9l2.9-4.2,2.4-1.6.5-2.6h2.9l1.8,1.1,2.9-3.1,3.8-1,1-1.1,6.7,1,.5-2.6-1.4-1.5h-4.8l-2.4-2.6.5-1.6,2.9,3.2,2.8-.1,2.8-3.1h7.7l.9,1h2l2.4-1.6v-3.1l2.4-1.5.9,1,3.8.1,5.7-3.2,1.8,1h2.9l1.4-2.6-1.9-2,1.4-1.5h1.9l3.9-2.1,3.3-3.6v-1.1l2.4-1.6,3.3-3.6v-1.1l-6.7-11.4.1-1-6.3-6.7-3.8-1-1.9-2.1h-1l-2.4-2.7,1-2v-2.1l1-1.1v-8.3l-1.5-1.5h-3.8l-2.9,3.1-1.9-1h-6.7l-1-1h-2.8l-2.9-2-5.7-.1-.9-1h-1.9l-1.9-2.1h-3.8l-1-1-3.8-2.1h-3.8L884.25,40h-5.7l-2.3-1.5,1-1v-6.2l.9-1-3.4-3.7-4.7.1-1,1h-1.9l-.9-1h-4.8l-1.4,1.6v2.1l1.9,2.1-.5.5-4.8-2.1-1.9-2H851l-1.5,1.5v5.2l.9,1.1-1,1v2.1l-2.3,2.6h-1.9l-1,1.1-2.4.4v7.3l1,1v2.1l-1.4,1.6h-1l-2.9-3.1-1.4.5-.1,2-1.2,1.4-3.8.1-1.9-2.1h-.9l-8.1-7.8v-3l-4.4-4.7h-.9l-2.4-2.6v-2.1l3.4-2.6,5.8-1,1.4-1.5v-4.1l-1-1.1v-9.3l1-1.1V9.85l1-2.1,4.3-5.6L835-3l.9,1h1.9l2.8,3.1h2.9l1,1,8.6-2.1,2.9,2.1h1.9l3.8-3,2-1h2.8l1-1.1,3.8-1,10-9.8v-1.1l4.1-4.7,4.8-2,1.9-2.1,3.8-1,6.8-4.1,1-2.1h4.8l4.3-5.7v-2.1l-1-1V-47l-.9-1,3.8-8.3,2.4-2.6,3.8-2h1.9l1.5-2.6.9-1v-4.3l3.8-6.3v-3.1l-1-2.1-2.4-1.5-2,1h-2.8l-.5-2.6-2.4-1.4h-2.8l-2.4,1.5v1.1l-1.4.5-2.9-4.1h-1.9l-1.9,3.2-1.4.4-.9,4.1-3.4.6-1,1-11.4-1-3.8,2-1.9,1h-9.5l-.9-1.1h-2.9l-.9,1H859l-3.8-4.1h-9.1l-1,1h-2.9l-1.9,2.1-.9-.1-1,1-6.6,2.1-.5,3.6-2.4.6-1,2-2.9-2.1h-2.9l-1.9,2.1h-2.8l-3.3-2.6-1-2.1,2.9-2,1.9-5.2,12.4-12.5,2-4.1,1.9-5.2,1.9-2v-4.2l-4.7-1v-5.2l1.4-1.5,1.9,1h3.8l1-1.1h1.9l4.8,4.1H850l3.8-4.2,3.8-1,.9-1,1.9,1h1.9l2.9-2,1.4-1.6v-3.1l2.8-3.1-1.4-1.6-3.9-1-2.8-4.1-1-.1-.9-1-1,.9h-6.7l-2.3-2.6-1-4.1-1.5-1.6-1,1h-1.8l-2.4-1.6,2.9-2-.9-2,.4-1.6,5.7-1,1-1.1.9,2.1h1.9l3.8-4.1.9,1.1,4.8-6.3H865l2.4,2.6-1.8,1.1v2.1l6.2,7.7,7.7,2.1,1.9,2.1h5.7l3.8,3.1,4.8.1.9-1.1h3.8l1-1h1.9l1.5-1.6-4.3-7.8h-2.8l-.5,1.6-1.4.5-1.9-3.1-5.3-.5,1.5-1.6,7.2-.6v-1l2.8-2.1.1-4.1.9-2.1-3.2-.5-1-1-1.9.9-.9-1h-5l-.9-1h-1.9l-3.8-2.1-.5-1.6-2.9-2.1.1-1.1-2.4-2.4h-8.7l-4.3-2.7,3.3-.6.9,1.1h11.5l3.9,2.1,1.9,1h1.8l1-1h1.8l1,1.1h2.9l.5-2.6,7.6-8.2v-2.1l1.4-1.5h3.8l1-1.1h5.7l.9-1.1h1.9l2.8-3.1,3.9-2.1,4.8-2,1-2.1,1.9,1h2.8l.9-1.1h4.8l1.9-1,3.8-5.2,1,.1,2.8-3.2,1,.1,1.9-2.1,3.8-1,2.9-2h1.9l1-1.1h1.9l1.9,2.1h2.9l.9-1,1.4,1.6v2l1.4.5,1.9-2,2.9-1.1.5-1.6,8.1-9.8,6.6-2.1,1,1.1h8.6l3.8-5.2h2.9l1-1.1,4.8.1.9,3h1.9l1.4-1.5v-3l1.5-1.6,6.7.1,1,1h1.9l3.8-2,2.5-2.6v-.8l-1170.2.4Zm473.2,315Zm.2.6h0l.5.6Zm1.5,1.5-.5-.5Zm1.7,1-.7-.4-.5-.3,1.2.7.2.1.5.3Zm.2-6.7.5-.1.6-.1Zm1.3,15.4h0l.1-.1Zm.8-7.4.4.2.1.1.1.1Zm3.7-11.2-.4.5Zm4.4-4h0l-.5.1.5-.1.5-.1Zm10,3.8-1.1.3.5-.1.6-.2.5-.1.6-.1Zm3.4-1h0l.3-.1.8-.2Zm2.8,1.5Zm6.5.3v.7l-.1.8.1-.9Zm3.6,4.7.7-.4.8-.4.3-.1Zm2.7-4.6-.1-.4.1-.6Zm2-2.1-.8.2h-.1l.5-.1Zm0,0,.5.2.4.2Zm6.7-5,.6-.2.4-.1Zm5.2-.5-.5.3-.2-.1-.2-.1-.9-.6.5.3.4.3.5.2.7-.4Zm.5-.5.2-.2.1-.1Zm8-2.6-.3.2-.1.2-.4.5-.3.1-.3-.3.6.2.5-.7.5-.3Zm2.1-1.8-1,.8-.4.6.4-.6.5-.4.5-.4.6-.2Zm1.1-.1Zm6.6,2.1.6-.2h.4Zm3.7.5.5-.1h.5Zm1.8-3.1h0l.3-.4.4-.5Zm1.4-4.7Zm2.1-4.2-.3.3Zm5.6-4.4.1-.5.1-.4Zm1.3-3.1-.1.4.2-.5.1-.4.1-.4Zm2.7-4.6.3-.3.4-.4Zm3-.2.3.7.2.5Zm.9,2.2-.2-.5.2.5.5.4Zm3,.2-.4.1Zm6.9-.6h.4l.4.1Zm6.4,2.1Zm1.3,3.2.5.2.6.3.8.5Zm3.2.6-.1.3.3-.8Zm10.1-.9-1-.1.9.1Zm6.8-1.4-.1.6.1-.8Zm1-.5Zm1.5-.1h-.1l.6-.1Zm8.4.7-.9.1-1.5.2.3-.1h1.2l1.2-.1h.6Zm2.5-.1-.5.3.5-.3.4-.2Zm5,1.3-.7-.4.2.1.5.3.5.3h0Zm7.1.1.2.1.4.3Zm1.6,2-.2-.4.2.5Zm5.4,4-.1-.1.2.4Zm1.1,1.3.1.1.3.4Zm1.1,4,.1-.1.2-.4Zm490.9-272.3-2,1v2.1l1.4,1.5,1.9.1,1-2.2,2.9-1,.4-1.6-5.2-2.5Zm11.9,440.2h-1.9l-4.2,5.7,6.2,2.6,3.3-3.6v-1.1Zm-58.7-355.3-1.4-1.5h-2.8l-2.4,1.5v3.1l2.4.5,3.8-2Zm-92.7-10.4L858-137l4.3,2.6,2.4-2.6v-3l-1-2.1-3.3-1.6ZM579.55,73.45h-1.9l-.5.5,1.5,1.6,1.4-1.6Zm270.3-216.2-.5,2.6,1.9,3.1.5,3.6,2.9-1.1L857-137v-3.1l-1.9-1-1.4-2.6Zm46.8,12.4-1.9-3.1H892l-2.5,1.5v1.1l1.4,1.6h2.8l4.8,4.1h2.8l4.3-3.6-1.4-1.6Zm14.8-14-2.4-2.5-4.8-.1-.5,4.7,6.2.5Zm21.5,40.9,1.4-.4v-3.1l-2.4-1.5-.5.5.1,3.1Zm-8.6-25.9,1.9-2,3.8-.1,1-1,1.9,1,.5-3.7-3.3-.5-3.9,2.1h-2.9l-1.8-1-2,2h-1.9l-.4,1.5,1.4,1.6,5.7.1Zm-17.2-3.1h-.9l-.5.6v1l1.4,1.6h1l1.4-1.5-.5-.6h-1ZM592,95.25l-.5.5v1.1l.4.5h1.9l.6-.6v-1l-.5-.6Zm-30.1,103.8-.1-2.1-.4-.5h-1l-1.5,1.6v1l.5.5h1.9Zm-58.8-34.5,1.5-1.6-.1-3.1-.4-.5h-1l-2.4,1.6v3l.5.6Zm126.1-17.7.5-.5v-1l-.5-.6h-.9l-.5.5v1.1l.4.5Zm-67.8,62,1.4-1.5v-1.1l-.5-.5h-1l-1.3,1.6-.1,1.1.5.5Zm68.3-65.6v-2l-.9-1.1-.5-2.6-1.5.5v4.1l1.4,1.6Zm-128,49.6.5.6,2.4-2.6-.5-3.6-2.4,3.6Zm75-26.3h1.9l1.5-1.6v-1l-.4-.6h-1.9l-.5.5V165l-1,1Zm3.8-5.2h1.9l.5-.5-.1-2.1-.4-.5-.9-.1-.6.5v1.1l-.9,1Zm-82.1,6.2-1-1-1.4.5v1.1l1.4,1.5h2.9l.5-.5-.5-1.6Zm581.3-210.5v2.1l.5.5h1.9l.4-.5v-2l-1.4-1.5ZM508.85,177h2.8l1.9-3.2,2.3-1.5v-2l1.9-2.1v-1.1l-2.3-1.5h-3.8l-.5,1.6-2.9,2v3.1l-3.8,3.1v2l3.4.5Zm576-223.4-1.4,1.5-.1,5.2,2.4.5,1.4-1.6.1-4.1-1.4-1.6Zm28.7-158.5-12.9,16.1-1,2v7.3l-4.8,5.2v3.1l1,1.1v3.1l-1,1,1.9,3.1v2.1l-1,1,.1,3.1-2.9,3.1v9.3l8.6,10.4v1l5.7,6.2v6.2l-1.9,4.2-1,3.1-6.2,6.8-1-.1-1.9,2.1h-2.8l-1.5,1.6v2.1l1,1.1v4.1l-1,2.1-3.8,3v4.1l-2.4,2.6h-.9l-1.5,1.5.9,5.3,2.5,2.5,4.8,1.1,1.8,2,2.9,1.1L1101-63h1l1.4,2.7v4.1l-1,2.1-2.8,3v10.4l2,3.1-.1,1,1.9,2.1v6.2l-1.4,2.6-3.8,1-1.5,1.6-.1,2.1-.9,1.1v3l7.1,7.8,2.4,1.5v3l2,3.2-1,2.1-2.4,2.6-3.8,1-.5,2.6,5.2.6,1-1.1h3.8l.9-1h1.9l1.3-1.1v-209.2Zm-34.4,221.6h-1.9l-.5.5v3.1l.5.5h1.9l.5-.5v-3.1Zm-1-191.5h4.8l.4-2.6L1082-179l-4.7,1.1-1.4,1.5v2.1l1.4.4ZM574.75,88l-.5,1.6,1.4,2.5,1-1h1.9l1.5-1.5-2.4-1.6Zm499.1-82.2-1-2-3.4-3.6-1.9,3.1-1.5.4v5.2l-.9,1V12l4.4,3.5h2.9l3.3-2.5v-2.1l-1.9-2Zm-383.5,232.1h1.9l.5-1.5-1-1v-2.1l-.5-.5h-1.9l-.5.5,1,1.1-.1,3.1Zm-60.7-99.7v1l1.4,1.5.5-.5v-2l-.5-.5h-.9ZM570,72.45h-.9l-.5.6v2l.5.5H571l.5-.5-1-1,.1-1.1Zm-7.2-1.5v3.1l.5.5h2.9l.5-1.5-2.4-2.6h-1Zm-9-10.9h-1l-1.5,1.5v2l.5.6h.9l1-1.1h1l.4-.5-1-1.1.1-1.1Zm448.5-38.7-.4-4.7h-1l-2.4,3.6v5.2l1.4,1.5,2.4-1.5v-2l1-1.1Zm-397.4,40.3v2.1l.5.5,1,.1.4-.6v-2.1l-.5-.5h-.9Zm-49.2,6.7.4-.6v-2l-.4-.5h-2l-.4.4v1.1l1.5,1.6Zm41.5-3.6.1,2.1,1.4,1.4h1.9l1.9-1,1.5-4.7-5.3-.5Zm-10.4,31v-1.1l-.5-.5-1.4,1.6-.1,1,.5.5ZM507,73.55l-.5.5,1.4,1.5.5-.5V74l-.5-.5H507Zm52.9-21.3v-1l-3.3-3.7h-.9l-1-1.1-.5,2.6,3.4,3.7Zm-69.7,28,.5.5h1l.5-.5-1.4-1.6-.5.5Zm55-23.2-.5.5,1.4,1.5H548l1.4-1.6.1-1-1.4-.5-1,1.1Zm-19.6-5.7v1l.5.5h1l.4-.5v-1.2l-.5-.5h-.9Zm24.9,0v-2l-.5-.5h-2.9l-.4.5v2.1l.5.6H550ZM561.85,70V69l-.5-.6h-1.9l-.5.5-.1,1,1.5,1.6Zm-.5,4.6.5-.5v-1l-.5-.5h-.9l-.5.5v1.1l.5.5ZM647,418.05l-1.5-1.6-1.4,1.6v1l1.4,1.6h1.9l.5-.5-1-1Zm25.7-87.7v-1.1l-.5-.5h-2.9l-.4.5-.1,2.1.5.6h1.9Zm-29.6-59v-1l-.4-.5h-1l-1.5,1.6.5.5h1.9Zm30.6,48.7V319l-.5-.5h-1l-.4.6-.1,1,.5.5h1Zm-6.2,13.9-.5.5,1.4,1.5h.9l.5-.5v-1.1l-.5-.5Zm10-20.2v1.1l.5.5h1.9l.4-.5v-1l-1.4-1.5Zm-14.4-5.1-1.8-2,1-2.1-1-2.1.4-3.6h1.9l1.9,3.1h2.9l2.4-1.6-2.4-3.6-1.5-.5.5-.6h3.8l1.9,2.1H675l1-1,2.4-.5v-2.1l.9-1-.9-2.1,1.5-.5.5-1.5-1.5-.5-2.9-4.1-1.9-1h-2.8l-2.9-3.1h-7.7l-1.8-1-1.5-2.6v-3.1l-1.4-1.5h-1.9l-1.9,2-1.9-1h-2.8l-.9,2.1-1.9-2.1h-4.8l-1.9,1.1-1-1h-1.9l-.9,2.1-1-1-.4,2.6,1,1.1-2.4.5-3.3,2.6v4.1l1.5,1.5h1l2.8,3.1h1.9l5.2,4.6-3.3.5-.5,3.6,4.3,5.7h2.8l2.9-4.2h1.9l.5-2.6,1.4-1.5h1.9l1.4,3.6,1.9,2-1.4,1.6h-1.9l-.4,1.6,3.8,9.3v4.1l4.3.5,3.3-6.6Zm-11.4-11.4-.5-.5-1.4,1.5.5.5,1,.1.5-.5Zm-1,13.4.5.5h.9l.5-.6v-1l-1.5-1.4-.4.5Zm24.3,35.6h-.9l-.5.6v2l.4.5h.9l.6-.5v-2.1Zm-19.1-17.5L653,333l-1.8-2h-1.9l-2.4,4.6v2.1l-1.8,2v2.1l1,1v2.1l1.4,1.5h.9l1.5-1.6.5-2.6,1.9,1,3.3-2.5v-3.1l-.9-1,3.8-3.2.9-2-.5-1.5Zm24.8-3.1-4.7-4.1h-2.8l-.5,2.6,3.3,4.7,7.1-.5.1-1.1-1.5-1.5Zm1-37.1-.5.5v1.1l1.5,1.5h1l.4-.5v-2.1l-.5-.5Zm-8.1,17-.5-.5h-.9l-.5.6v1l-1,1,.5.5h.9l1.5-1.5Zm-1.9,98v2.1l.5.5h1l.4-.5v-1l-1.5-1.5Zm-10.5-78.4,4.3.5,1.9,2,1.4-.5,1-4.2-1-2,2-3.1v-2l-1.5-2.6h-2.8l-1.9,1-3.4,3.6,1,4.1-1,1.1Zm11.5,24.8v-7.2l-2.3-4.6-3.9-2.1h-2.9l-1.4,1.6v5.1l6.1,11.9,2.5-.5-.1-4.1Zm-3.4,52.1h-.9l-.5.5v1.1l.4.5h1l.5-.5v-1.1Zm-25.7,5.2-.5.5-.1,1,1.5,1.5,1.4-1.5-1.4-1.5Zm10,6.7-1.4-3.6-1.5.5-.4,3.6-1.9-1-1.5,1.5,2.4,5.7,1.9-1,1.9,1,.5-.5-1-4.2Zm-34.9-135.8-.5.5v1.1l1.4,1.5h1.9l.5-.6v-1.1l-1.4-1.5Zm-12.8,115.2,1.4,1.5,2.9,1,1.4-2.6v-2l-1.4-1.5h-1.9l-.9,1.1-1.5.5Zm.4-32.6,1.4-.5v-3.1l-1.5-1.6-1.5.5.1,3.1Zm16.7-79,2.4.5.5-4.7.9-1v-4.1l-6.2-5.6-3.8-.1-1.4,4.7,2.3,3.6h1.9l1.9-2,.5.5Zm-20.5-19.1.5-.6v-1l-.4-.5h-.9l-.6.5v1.1l.5.6Zm5.7-12.4h-1l-.5.5v2.1l.4.5,1,.1.5-.6v-2.1Zm1,8.3h1.9l1.5-1.6v-1l.9-1.1-.5-1.5h-2.9l-.5.5-.1,1.1-.9,1v2.1Zm6.2,9.8-1.4-1.5-.5.5v2l.5.6Zm35.8,126.5h-1l-.4.5v2.1l.5.5h1.9l.5-.6-1-1v-1ZM697,281.25l-.5.5v3.1l.5.5h1.9l.5-.4v-2.1l-1.4-1.5Zm-49.1,118.3-2.9,2,.1,4.1,2.4,2.6,1.4-.5v-2.1l2.8-3.1-1.5-3.6-1.8-1Zm-47.8-135.3v1.1l.5.5h.9l.5-.5v-1l-.5-.6h-.9Zm13.8,95.5-.4.6v2l.5.5h.9l1-1h.9l.5-.5.1-1.1-.5-.5Zm1-14.5h-2l-.5.5.1,3.1.4.5h1l.5-.5v-2.1l1-1.1Zm12.9-25.2L624,317l-.1-2.1-2.3-3.6H612l-2.3,2.6V317l2,2.1.9,4.1,1,1.1v2l2.3,4.6,2-1h2.8l2.8,2.1,2.9-3.1h1.9l.5-4.7-1-1.1Zm5.3-3.7-2.9-1-.5.6.1,4.1.5.5h2.8l.6-.5-.1-3.1ZM978.85,1.15,977,4.25l-2.4.5v4.1l-1,2.1,2.9,3.1v3.1l1.5,2.5,5.8-1,1-1h1.9l1,1.1,1.5.5-.2,4.1,2.9,2.1v6.2l1.4.4,2,3.1,2.4-.5,1-7.3-2-4.2v-3.1l-1-1V17l1-1.1-2.3-1.6h-1.9l-2.9-2.1-2.9.1-4.3-3.7,1-2V3.65L981,1.05Zm-7.7,22.7-.5.5v1l.4.5H973l.5-.6-1.4-1.5Zm3.4-53.3-2.4-.5-1,1.1h-1.8l-.9-1h-2.9l-.5,3.5,3.3,1.6,1-1,3.8-.1,1.5-1.5Zm-.5,60.5.4-.5v-1l-2.4-2.6h-.9l-.5.5v2.1l1.5,1.6Zm4.3-7.7v7.3l1.4.5,1.5-1.5v-2.1l1-1v-2.1l-1.5-1.5Zm-263.2,198-.5.6v2l.5.6,1.4-1.5V222l-.5-.6Zm269.3-335.1-.5.5.1,3.1,1.4.5.9,1.1h1l.5-.5v-2.1l.9-1.1-2.4-1.6Zm-2.3,62.6,3.4.6,2.3-3.7-1.5-6.7-2.3.4v3.1l-1.9,2Zm8.1,233.2h-2l-1.4,1.6-.9,3.2-1.9,1-1,3.1-1.6,1.7-1.3,1.4-1,5.2,2.4.4,1.9-3.1,4.8,2.1,6.1-6.6-.8-4.3,4.8-4.1,1-4.1-6.2-1.6ZM977-84.75h-1l-.5.5v3.1l.4.6h2.9l.5-.5-1-1.1v-1.1Zm-10,33.6-1,1,3.4,2.6,1.4-1.6v-2l-1.4-1.6h-1.9ZM958.75-91l-.5,1.5,2.3,2.6h2.8l1,1,1.4-.6v-2l-1.5-2.6Zm27.7,260.7-2.4.5-.9,6.2,1.4.6,1,2.1,1.4-.6v-2l1.9-2.1v-2.1l-1.8-1Zm-5.2,3.7-1.4-2.6H977l-.5.6v2l.4.6h1l1,1.1,1-1.1ZM977-126.15l-.5.5v3.1l.4.5h1.9l.5-.5v-3.1l-.5-.5Zm1.9,86.9-.5.5v3.1l.5.5h.9l.5-.5v-1l1-1.1v-1l-.5-.5Zm-7.7-117-.5,1.5,3.3,2.6,2.3-.5v-2.1l-1.5-1.4Zm-2.9-4.2-.4.5v3.1l.5.5h.9l1.4-1.5.1-1.1-1.5-1.6Zm14.9,80.3-.1,1.1,1.6,1.4h.9l.4-.5v-2.1l-.5-.5-1.9-.1ZM945,155.75l-2.5-1.6h-.9l-1.5,1.5v2.1l.4.5,3.9.1Zm46.7-255.6-1.8-2-.1-3.1-1.4-1.5-1.5.4v7.3l1,1v3.1l1.4,1.6,2.4-.6ZM946.35,178l-1,1.1-1.4.4v1.1l.4.5h2.9l.5-1.6,1-1-.5-.5Zm4.8-26.9h-2.9l-.5.5v2.1l.4.5h2.9l.5-.5v-2.1Zm-212.5,3.7v2l-1,1.1.5.5h1.9l.5-.6v-2l-1.5-1.6Zm7.1-96.7h-1.9l-1.4-1.5.5-8.8-4.8,1-1.5,1.6-1,5.1,1,1.1v5.1l1.4,1.5H741l3.8,3.1h1.9l1,1h4.8l2.4-2.6v-3l-6.2-.6Zm-16.3,103.3-.5.6v1.1l1.4,1.6h.9l.5-.5v-1.1l-1.4-1.6h-.9Zm226.9,27.5-1.9,2.1v1l1.4,1.5H957l1.4-1.4V188l-1.5-1.6Zm-93.1-34.6h-1.9l-1.4,1.6V158l.5.5h1.9l2.3-3.6-.4-1.6ZM964.45,178l-1.5,1.6v2.1l-1,1,.5.5h2.8l.5-.5v-4.1l-.4-.6Zm27.2-264.3-2.3-2.6h-1l-1.4,1.6v4.1l2.4,1.5,2.3-3.6Zm-6.2,87.4h2.9l1.5-1.6v-2l-.5-.6h-2.8l-1.5,1.6V.55Zm3.8-14.4.5-.6v-2l-.5-.6h-.9l-.5.5v2.1l.4.6Zm-6.6,178.9.9,1,3.8.1,1.8,1,1.5-2.6-1.9-3.2.5-.5,1.8,1,1.4-3.6,2.9-2.1v-4.1L993,151l-4.8,1.1-1.9,2.1h-1.9l-1.4-1.6-.5-1.5-2.5.4-.4,5.7-.5-3.6-4.8-4.1-2.3-4.6h-1l-2.9,4.1-1.9,1-1.9-1h-3.8l-.9,1.1h-1.9l-4.3,3.6v1.1l1.4,1.6h1.9l.4.5-.4.6-2.5,1.6v2l2.3.6,1.4,1.5,1,5.2,1.9,3.1,2.4,2.6h2.9l.9,1,4.8-6.2,2.9-2h6.7Zm-.5-207.4v2.1l.5.5h1l1.5-1.5v-1.1l-.4-.5h-1.9Zm3.4-2.6.4-.5V-46l-.4-.5h-1.9l-.5.6v1l.5.5Z"/></g><g id="Hong_Kong" data-name="Hong Kong"><path class="cls-3" d="M375.55,379.85l.1,3.1,1.4,1.5H379l2.5-1.5v-2.1l-1.5-1.5-3.8.1Zm-57.7-5.6H315l-1.5,1.5.1,2.1.4.5,2.9-.1,1.4-2.6v-1Zm-14.4,33-1.4,2.6.1,3.1,3.3,3.7h1.9l1.9-3.1,3.4-.5,1-2V408l-2.6-2.8Zm-2.4,13.9V416l-3.4-2.6-6.6.1-1-1h-3.8l-.9,1h-4.8l-2.4,2.6v2l2.4,1.6h3.8l4.3,3.6.5,2.6h1.9l1-1,.5.5,1.9,7.2,3.3,3.6,2.9-.1,1.5-1.5.9-7.3-2.9-3.1Zm17.7-111-.5.5-.1,2.1,1.5,1.5h1.9l.5-.5v-2.1l-1.5-1.5Zm54.4-20.7.5-.6-.1-3.1-2.4-2.5h-1.9l-.5.6V287l2.4,2.6Zm-.5,35.6v-9.3l1.9-4.1,1.9-3.1-1-2.1,1-2.1.1-4.1-3.4-4.6-3.3.5,1-2.1v-3l-3.8-3.1v-2l-1.4-1.6h-6.6l-1,1h-11.5l-2.8,2.1H341l-2.4,2.5v1.1l1.4,1.5,1.4.5-1,1,.1,3.1,1.4,1.5h2.9l1.4,1.5.5,6.8,3.9-.1,2.4,1.6-1.9,3.1v2l.5.6h1.9l1-1,.5.5-2,4.2V320l-1.9,3.1v3.1l1,2.1,5.3,1.5,1-1h3.8l1-1h7.6ZM334,379.35l-.5,3.6,1.4,1.5h4.8l.5-5.7-4.3-.5Zm-10.4-86.7-7.7,1-1.9-1-1.4,1.5.9,4.2-3.8,3.1v1l3.9,1.1v2l-1,1.1,2.5,2.6,1.9,1,1-1h2l2.4-1.5-.1-4.1-1.8-3.1-.1-2.1,1.9-1.1ZM293,475.35h-5.8l-3.3-3.6-1-2,.5-1.6,7.2-2.5-1.4-2.6-1.4-.5,2-2.2-.1-3.1-2.3-.6-1,1.1h-5.8l-2.3,4.6,1,1v2.1l-3.8,4.1v2.1l2.4.5,1.9-1,1.4,1.5,1,3.1-1,1v2.1l-1.5,1.6-1.9-1-2.9,1-1.9,4.2-1-1.1h-1.9l-.5,5.7,2.4.6,1,2h1.9l.9-1h1.9l2.9-3.1h1l1-2.1,2.8-2h2.9l1.9,3.1h.9l.5-2.5,3.8-3.1-.1-2.1,1-1Zm-22.5-24.2,1.9-2.1-1.5-2.5-1,1h-2.8l-1.9-2-2.9-.1-1.8-3h-1.9l-2,2h-2l-1.8-3.1h-2.9l-1,1.1-4.9-4.1-2.8,1.1-1.4-2.6,4.8-3.1v-1.1l4.4-4.8.9-1.1h4.8l1.9-2h1.9l1.9-2.1,2.4-.5-.1-2-4.8-5.2-.9-3.1-2.4-2.6h-2l-.9-1.1-1.9.1-.9,2.1-2-3-3.9.1-.9,1-1.5-.5.5-1.5,2.4-1.5,1-3.1,1.5-1.5h1.9L249,399l4.7-.8,3.8,3.1h1.9l1.5,1.5v1l2.5,1.6,10.4-.1,1.4-2.6.1-4-2.9-1.1,1.9-2.1v-4.1l1.9-1v-2l-1-1.1v-6.2l-3.9-1.1v-2.1l1-1.1v-4.1l-.9-1,1.4-1.6.9,2,2.9-2.1h1.9l.5-4.7-1.5-2.5h-1.9l-3.8,4.1-6.2-1.5.5-2.6h4.8l1.4-1.6-1.4-2.5-5.3-1.6,2-3.1v-2.1l1.5-1.5h9.5l4.8-3.1,2.8,4.1H290l1.5-1.5v-3.1l-1-1v-6.2l-2.9-5.2.5-3.6h3.8l1.9-1,2.4,4.6-1,1,2.9,5.2,2.4.5.9,1.1,1.9-2,5.7-1,1-2.1,1.9,1,1.5-.5-.1-2.1-1.9-2,1-1.1-.1-3.1,1.9-2.1-.5-2.5-1.5-.5.1-3.1,2.8-3-1.9-3.2-.9-4.1-2.4-2.6h-1l-2-3.2-3.8-1-1-1.1h-2.8l-1.5,7.8-2.3.5-1.5,1.6-1.5,2.5-5.8,2.1-2.9,5.2-2.9-.1-2.3,2.6-.5,2.6-3,1-.9,2.1-1.5-.5,2.9-6.2-1.5-2.6-3.8-1-4.8,5.1h-1.9l-3.3,2.6v2.1l-2.3,2.6h-2.9l-2.8,3.1h-2.9l-.3,2.2-1.1,2.2-1-1.1-2.4.6V345l-1.4,2.6h-1l-1.4,1.5v3.1l-1.4,1.5h-4.7l-1,1.1-3.8.1-7.2,6.7v7.2l-1.4,1.6-.4-1.6-2.4-1.5h-4.8l-.9,1h-8.6l-.9,1.1-5.7-.1-3.8,4.1-5.7,3.1-2.8,1.1-3.9,3.1h-8.5l-.8,2.5-1.9,1-.9,2.1v3.1l-.5.5-1.9-1-1.9,1-1.4-1.6v-2.1l-2.8-3.1-.9-4.1-1.4-1.6-1,.1-2.9-2.1h-10.5l-1.9,1-3.8-2h-1.9l-2.9,3.2-1-1h-1.9l-1.9-3.1-1.4,2.6-2,3.1v3l-2,5.2L121,390h-.9l-4.1,5.5v3.1l1.9,3.1-.5,1.5-2.9.1-.4-2.6-2.4-1.5-1.9,2.1-4.8,2-6.7,1-5.4,8.9-1.4,1.5h-1.9l-.9-1h-4.8l-2.9,2.1h-1.9l-2.4,3.6v2.1l1.4,1.6,8.6-1,1.4,1.5-.9,2v3.1l-3.2,3.5-2.9-.1-4.3,3.7V442l1,1v5.2l-1.4,1.5h-2.3l-4.8-4.1-2.8.1-1.4,2.5v2.1l-2.9,4.1,1,2.1-.9,8.3,4.8,5.1-1,3.1-.9,1v4.1l.9,2.1,2.4,2.5h1.9l2.3,1.5-1.9,5.2-1.9,2.1.5,3.6,3.8-2.1,4.7,1,2.4-1.5-1.8-3.1,5.2-3.6h1.9l2.9-2,1.9,3,2.9.1,2.4-2.6v-1.1l2.9-2.1v-1l4.3-3.6,5.2-.5-1-4.1,1.5-.5,3.3-3.6v-1.1l3.3-3.6h1.9l1,1h3.8l.9-3.1,1.1,1.1,5.2.5-1,2.1,1,5.1,1.4,1.6h1.9l1.9,3.1,2.8,1,5.7,5.2h2.9l4-5.2,2.8,2,3.8,3.1,3.8-2.1,2.9.1,4.3-3.6v-5.2l-2.4-3.6-10.5,1-1.5-1.6,2.4-1.5,3.4-3.5.5-1.6,7.6.1,3.8-2.1,3.9-2.1h1.9l8.6-5.2h1.9l1.9-2.1h5.7l1.9,2h2.8l.9-1,6.7-4.1h1.9l5.7-4.2,10.1.5v4.1l-2.9,3.2v3.1l-1,1,1.4,2.6h.9l2.4,2.5v1.1l1.9,1v2l-2.9,3.1-.9,3.1,1.4,1.6h2.9l.4,1.5,2.4,2.5h1.9l1.9-3.1h4.8l1.9-3.2h3.8l.5,2.6,2.4,1.5,1.1-2.2,1-1.1h3.8l1.4-1.5v-2.1l2.5-1.4h2.9l.5-2.5,3.3-3.6,4.8-1,1.4-2.6Zm-110.4,61.5h-2l-.4.5v2.1l2.4,2.6,2.4-1.6v-2l-1.5-.5ZM181.45,345v-2.1l2.8-2.1.1-4.1-1.5-.6-7.6,9.3-1.5-1.6v-2.1l-2.4-1.5-6.7,6.2-3.3,1.6v7.2l1,1v2l1,2.1,1.9,2v1.1l1.9,2v4.1l1.9,2.1-.9,2.1.3,3.7h2.9l3.4-2.6-1.9-4.1,1.9-2.1v-4.2l1.5-2.5,1.4-.5v-8.2l.9-1v-5.1l1.5-.5Zm55.4,144.4-2.4-3.6h-4.7l-4.4,6.7v5.1l2.4,1.5h1.9l2.9,3.1h2.8l1-1,3.4-.5.9-6.2-3.9-1Zm64.2-114.7-.1-2.1-1.4-1.5h-3.8l-1.9,2h-2.8l-2.4,1.6,2,3.1,1,6.2,1.4,2.5H295l1,1,3.8-.1,3.3-2.5v-4.1l-1.5-2.6h-3.8l-1,1-1.4-.5,2.4-2.6Zm-90.9-45.3.9-3-1.4-1.6-2.9-1-1.4,1.5v4.1l1.5,1.5h1Zm23.4-41.8,1.5-1.5-1.4-1.5h-1l-.5.5v2.1l.5.5Zm-6.7,27.8-3.3,2.6-.9,5.2,2.4.5,2.4-2.6Zm-84.5,52.2-.4-5.7h-2.9l-.5,2.6,1.9,2,.5,1.5Zm242.8,12.3v-1.1l-.5-.5h-1.9l-.4.6-.1,3.1.5.5Zm18.6-40.7,2.8-1,4.8,6.2h1.9l2.4-3.6v-2.1l2.9-2.1-.1-2.1-1.4-1.5-2.8,2.1-2.9-.1-2-1-1.9-3-2.9-.1-1.9,3.2-4.8,1-.5,2.5,1.4,2.6h3.8ZM548,448.55l-5.3.5,2.4,2.6H547l1.4-1.5Zm13.9,76.9-1-1,1.9-4.2-2-3.1.1-2.1-1.5-1.5-1.9-.1-3.7-4.1-3.3,2.6-1.4,2.6-2.9-.1-5.2,3.7-4.8,8.3v4.2l1.4,1.5,1-1.1.5.6.5,3.6,4.3,1.5v1.1L542,540l.5,3.6,2.9-1,4.2-3.6v-3l3.4-3.7,1.4.5.5,1.6h8.6l.5-3.5-1-1.1Zm-22.5-13,4.3-3.6v-8.2l-1.5-1.6-12.4,1.1-2.4,1.5v2.1l.9,1.1v6.2l1.5,3.7,2.4-1.6.5-2.6,3.9,2.1Zm-18.1,3.1h-1l-.5.5.1,2.1.4.5,1,.1.5-.6v-2.1Zm21.9-61.9-.5,1.6.5.5H547l.5-1.5-.5-.5h-3.8Zm-6.6,80.6-1,1h-.9l-.6.5v1l.5.6h2.8l.5-.5v-2.1l-.5-.5Zm-105.1-61h-4.8l-.9,1-1.4-1.5-.5-2.6H422l-1.9,2.1h-2l-2.8,3.2h-3.8l-1.9-1-1,1h-3.8l-1,1.1h-1.9l-2.4,2.5-1.4,3.6-3.3-4.6.5-2.6h.9l2.4-2.6.5-1.5H401l5.3-2.6,1-2.1-1-1v-4.2l-2.4-2.6L400,461l-1.9,3-2.9-2-1.5-2.6v-5.2l-1.4-1.5h-2l-.5-1.5-2.9-2.1,1-1.1v-2.1l1.9-2v-5.2l-1.4-1.5h-1.9l-1-2h-1.9l-2.8,4.1-4.8,1-2.9,2.1h-1.9l-1.5,1.5V446l3.3,2.5,2.4.5-2,2v2.1l2.9,2.1-4.4.5-3.3,2.6-.9,2-.1,4.2.5.5,1-1.1h5.7l1-1,5.7-1,3.9,2,1.4,1.5v6.2l.9,1-1.9,4.2,2.9,4.1-1,1v7.3l-1,1v6.3l-3.4,3.6-2.9,1-1.4,1.6.9,6.1,4.3,3.6H389l1-1,2.8,2.1h2.8l1.9-3.1h1l1.9-2,4.8,6.2h1.9l-.5-6.7-2.9-5.2.1-4.1h1.9l2.4,3.6,3.9,2.1,1.8,3.1,3.9,1.1,1,2h1.9l.5-2.6-2.9-3.1v-2.1l-3.9-5.2-.9-5.1-1.4-1.6-2.4-.5.5-1.6H412l2.9-2,1,1,2.4-.5.9-4.1,2.9-2,.5-1.6h.9l2.9,3.1h2.9l2.9-4.2,1.4-.5-.5-3.7Zm114.6,6.3-.5.5v1l1.5,1.5h.9l.6-.5V480l-.5-.5Zm-134.1-47v-1.1l-.5-.5h-1.9l-1,1.1-1.4.5v1.1l.5.5h2.9Zm19.4-2.6h-2.8l-1,1h-2.8l-3.9-2.1h-1.8l-4.3,3.6,1.4,1.5h.9l1.4,1.5,1.5,2.6,1.9,1h2.8l.5,2.5,1.5,1.6,1.9,1h4.8l.5-3.6-1-1.1v-8.2Zm-26.2,27.3v-3.1l-.5-.5h-.9l-2.4,2.5v1.1l.5.5h2.8Zm98.9,19.1-1.5,1.6,1.5,1.5H506l.4-.5v-2.1l-.5-.5ZM434.85,446l-.5-.5h-2.8l-.5,1.5,1.9,2.1v1.1l1.5,1.5h.9l.5-3.6-1-1V446Zm32.4,10.3v1.1l.5.5h1l1.4-1.5-1.4-1.5Zm-6.2-13.9-.9-1.1h-1.9l-1.4,1.5,3.3,4.6h2.9l3.3-2.6-1.5-2.5h-3.8Zm1,22.7-1-1.1h-.9l-.5.5v4.1l1.4,1.6h.9l1-1.1h1.9l.5-2.6L464,465h-1.9Zm67.8,13.4h6.7l1-1,.9,1.1h3.9l.9-1,1,1,2.8-.1,1-1,1.4-.5-.4-1.5h-1l-2.8-3.1-3.4-.6,1-1-.9-1.1v-8.2l-3.9-6.2v-3.1h5.7l-3.4-4.7L538,447l1.9-2v-4.2l-2.9-3.1v-2.1l-1.9-2v-1.1l-1.9-1v-1.1l2.4-.5,1.5-1.6.5-2.6.9,1.1h1.9l1.4-1.5,1-6.2,1-1-1-2.1v-4.1l1-1v-2.1l-2.4-3.6h-3.8l-1.9,2.1h-1l-2.8-7.3h-1l-4.8,4.1h-1.9l-.5-1.5,1.9-1.1v-8.3l-2.3-.5-2.4-2.6,1.5-.5,1.4-2.6-5.5-6.9h-1.9l-1,2.1h-2.9l-1.9,5.2-2.8-1-4.3-4.6v-2.1l-1.4-2.5h-10.5l-1.4-4.7-1.5-1.5-1.9-1h-2.7l-1-1-.9,1h-5.7l-1,1.1-3.8-.1-4.8,6.2h-1l.5,1.5-3.3,2.6h-3l-1.8-1-2.9,3.1-1-1-1,1h-1.9l-.9,1h-7.7l-1,1h-3.8l-2.9-3.1-5.7-2.1-4.8-4.1h-2.9l-.9-1.1h-11.5l-1,1-8.6,1.1L397,380l-2,1.1h-3.8l-6.7,3-2.4,3.6V394l1.4,1.5h.9l6.2,5.7,1.9,4.2v2l2.4,2.6h1.9l1-2.1,1.4,2.6,1,2-.9,7.3,1,2,3.8,3.1.5,1.5,3.9-2.1,2.8,2.1h1.9l.9,1.1h12.4l1,1.1h4.8l1.9,2.1,2.8-.1.5.6-1,1.1v2l1.9,1-.1,1.1-2.4,1.5-.5,1.6,4.8,3.1-1,1v2l1.4,1.5h1l3.8,3.1h1.9l1.4-2.5,1-8.3,1-2.1,1.9-1,2.4-4.6h7.7l.5,1.5-1,1v4.1l2.4,2.6h1l2,2.1,2.8-2h2.9l1.4,1.5,1,2v3.1l-1.9,2v2.1l1,1-1.5,2.6-2.5.5.5,2.5,7.2,2.6,1,3.1-2.4.5-3.3,3.6v2l.9,1.1.4,3.6,3.9-1,3.8-3.1h2.8l.5-3.6,3.3-2.6h1.9l1.4,1.5,1,2v3.1l-1.9,1-1,2.1v7.3l-1,1v3.1l1,1v4.2l1.5,2.5h6.6l1-1h3.8l1.5-1.6v-3.5l-.9-1.1-1-4.1-2.1-2v-2.1l-1.9-2,5.7-5.2-.9-1-1.5-2.6-3.8-2.1-3.4-3.6v-3.1l4.8-5.1.5-1.6h1.9l2.9-4.2,2.9,3.1h2.8l1.4-1.5-1-2.1v-4.1l-2.4-3.6-3.3-1.6-1-7.2.5-.5,1.4,1.5v2.1l1.4,2.5,4-1,3.8,3.1,1-1,.5.5-1,4.1,2,4.2V448l.9,1v7.2l-1,1.1,1,1.1v2l1.9,1v2.1l3.4.5,1.4,1.5.9,5.2-1.9,3.1,1.5,3.6h1.9Zm64-381.1.6-.6v-1l-.5-.6h-1.9l-.5.5v1.1l.4.5Zm-7.7-3.1-1.4,1.6-.1,1,.5.5,1.4-1.5v-1.1Zm9.6,17.6-.5.5v1l.5.5h1.9l.5-.5v-1.1l-.4-.5Zm4.7-8.3,1,2.1h1.9l2.8-4.1h1.9l3.9-2.1.5-1.5,3.8-4.1v-2.1l-4.3-.5-.5-4.8-7.2-4.7h-1.9l-1.4,2.7,1.9,1v6.2l-1.9,2v1.1l-4.7,4.1-.5,1.5-1.9-2h-5.7l-1-1-1.4,1.5V101l2.9,2.1-1,3.1,2.4,2.7,2-1.1h3.8l2.8-4.1Zm3.4-40.9-5.2-.6-1.4,2.6.1,2.1,1.4,1.5h1.9l1.9-1Zm-22.5,37.7-.5.5v1l.5.6h1l.5-.5v-1l-.5-.6Zm-1.8-26.9h-1.9l-.5.5,1.5,1.6,1.4-1.6Zm27.2-9.8v-2.1l-.5-.5h-.9l-.5.5v2.1l.5.5,1,.1Zm-23.4,8.8.9-1,1,1.1h1.9l3.8-3.2,1,.1,1.4,1.5-2.8,2.1.4,1.5h4.8l1.9,1,1.5-2.6v-3.1l-1.4-1.6h-2.9l-2.8-3.1h-1l-1.4-1.5v-3.1l-2.4-.5-1.5-1.6v-2.1l1.4-1.5H592l3.8,4.1h1.9l4.8-4.1,4.7,1,1-2.1h1.9l1.4-1.6-1.4-1.5-1.9,1.1-1-1.1h-7.6l-1-1-1,1h-6.7l-1-1-.9,1-1-1-2.8.1-.9-4.2h-4.8l-.4,5.7,1.4.5,1.5,2.6h-4.8v3.2l2.4,2.5,3.8,2.1,1.4,3.6-1.4.5-1-2-3.8,1-1.4,1.5v2.1l-1.9,2.1,1.4,1.6Zm92.6,65.1.5-.5V135l-2.4-1.5-1.9-.1-.4,1.6,2.3,2.5Zm25.8,42.4,1.5-1.5v-1.1l-.4-.5H701l-1.5,1.5,1.4,1.6Zm-127-92-.5,1.6,1.4,2.5,1-1h1.9l1.5-1.5-2.4-1.6Zm133.3,110.2.4.5h1.9l.6-.5v-1l-.5-.5h-1.9l-.5.5Zm2.4-2.6.4-.6v-2l-.5-.6h-1l-.4.5V195l.5.6Zm-99.4-117.9h-1l-2.3-2.5-1.4-3.8-3.8-1-1.5,6.8,2.3,2.6,8.7,4.1,1.8,2.1h2.8l.5-4.7-.9-1v-4.2l1.9-2-.1-3.1-1.8-1-.5-2.6H614l-1.5,1.5V73l.9,1.1Zm18.1-12.4.5-.5v-1.1l-1.4-2.6h-2.9l-.5,1.5,1.5,2.6Zm27.3,51.1-.1,2.1,1.5,1.6.9-1.1h2.8l.5-4.7,3.8-4.1v-1l-2.3-.5-1-1.1-4.8,1-1.5,1.6v2l-1.9,1v2.1Zm-1.5,23.3,1.4,1.5v3.1l1,1v4.2h2.8l-1.9,3.1v3.1l.9,2.1,3.3.4,3.3-3.5v-4.2l2.9-2v-2.1l.9-1.1-.9-3-1.5-.6-2.3-1.5v-2.1l1.9-2.1v-2l-1.4-1.5h-1.9l-1.9-2.3-3.8,1-2.9,4.2-2.4,1.5,1.5,2.6,1,.2Zm-101.7-74v1.1l1.4,1.6h1l.4-.6v-2l-.4-.5h-2Zm17.7,9.9.5-.5-1-1,.1-1.1-.5-.6h-1l-.5.6v2l.5.6Zm-456.3,226,1.4,1.5H118l1.4-2.6v-2l-.5-.5h-1.8l-2.4,2.6v1Zm-54,164.7-2.9-.1-.5,2.6,1,1,.4,1.5h1.9l1.5-1.5v-2.1Zm56.9-157.5,1.9,2.1V313l2.5.5v-6.2h-4Zm-6.7-38.2-.9,8.3,3.3.5,1.4-2.6-.9-4.1,1.9-4.2-1-3.1-2.3-1.6h-5.7l-1.5,3.6,3.4.5Zm33,255.5-1.4,1.5,1,4.1-2.4.5-1.9,2-1-1h-2.9l-3.8,2-.5,4.6,2.4,2.6h1.9l1,1,2.9-3.1H143l.9,1,1.9-2.1,2,1,2.4-2.6v-2.1l-2.8-3.1,1.4-1.5h2.9l.5-2.6-3.3-2.6Zm-4.3-3.7v-1l-1.4-1.5h-1.9l-.4.6v1l1.4,1.5h1.9Zm12-13.8h-4.9l-1.9-1.1-2.8-4.1h-2.9l-1.4,2.6.1,3,.9,1.1-1,4.1,1.5,1.6h1.9l1.4-1.5.5-2.6h1.9l1.4,1.5-.2,3,4.3,1.5,1-3,3.3-.6.1-3-2.5-.5Zm-19.2,17.5,3.3-2.7-1.4-2.6-3.8,1.1-1.4,1.5,2.4,2.6Zm393.7-473.2h1l.4-.5v-1.1l-.5-.5h-.9l-.5.5v1Zm35.3,19.6h-.9l-.5.5v1.1l.5.5h.9l.5-.5v-1Zm-2.4-3.6-.1,1,1.5,1.6,1.4-1.6v-1l-.5-.6h-1.9Zm7.2,5.7.5-1.5-2.4-2.6h-1l-.5.5v3.1l.5.6Zm-6.3-22.3v-1l-3.3-3.7h-.9l-1-1.1-.5,2.6,3.4,3.7Zm-401.8,490.2-.9,1.1h-1l-.5.5v2l.6.5h2.8l.5-.5V543l-.5-.5ZM550,51.85l.5-.6v-2l-.5-.6h-2.9l-.4.5v2.1l.5.5Zm1.9,12.4h.9l1-1.1h1l.4-.5-1-1.1.1-1.1-.5-.5h-1l-1.5,1.5v2Zm-6.7-7.3-.5.5,1.4,1.5H548l1.4-1.6.1-1-1.4-.5-1,1.1Zm68.7,302.8-.4.6v2l.5.5h.9l1-1h.9l.5-.5.1-1.1-.5-.5Zm58.8-9.8v-7.2l-2.3-4.6-3.9-2.1h-2.9l-1.4,1.6v5.1l6.1,11.9,2.5-.5-.1-4.1Zm-3.4,52.1h-.9l-.5.5v1.1l.4.5h1l.5-.5v-1.1Zm4.4-96.5-.5-.5h-.9l-.5.6v1l-1,1,.5.5h.9l1.5-1.5Zm-1.9,98.1v2.1l.5.5h1l.5-.5v-1l-1.5-1.5Zm-10.5-78.5,4.3.5,1.9,2,1.4-.5,1-4.2-1-2,2-3.1v-2l-1.5-2.6h-2.8l-1.9,1-3.4,3.6,1,4.1-1,1.1Zm20.5-36.6-.5.5v1.1l1.5,1.5h1l.4-.5v-2.1l-.5-.5Zm15.3-7.3-.5.5v3.1l.4.5h1.9l.5-.4v-2.1l-1.4-1.5Zm-22,65h-.9l-.5.6v2l.4.5h.9l.6-.5v-2.1Zm5.7-20.6-4.7-4.1h-2.8l-.5,2.6,3.3,4.7,7.1-.5.1-1.1-1.5-1.5Zm-7.1-5.6V319l-.5-.5h-1l-.4.6-.1,1,.5.5h1Zm-10.6-11.4-1.8-2,1-2.1-1-2.1.4-3.6h1.9l1.9,3.1h2.9l2.4-1.6-2.4-3.6-1.5-.5.5-.6h3.8l1.9,2.1H675l1-1,2.4-.5v-2.1l.9-1-.9-2.1,1.5-.5.5-1.5-1.5-.5-2.9-4.1-1.9-1h-2.8l-2.9-3.1h-7.7l-1.8-1-1.5-2.6v-3.1l-1.4-1.5h-1.9l-1.9,2-1.9-1h-2.8l-.9,2.1-1.9-2.1h-4.8l-1.9,1.1-1-1h-1.9l-.9,2.1-1-1-.4,2.6,1,1.1-2.4.5-3.3,2.6v4.1l1.5,1.5h1l2.8,3.1h1.9l5.2,4.6-3.3.5-.5,3.6,4.3,5.7h2.8l2.9-4.2h1.9l.5-2.6,1.4-1.5h1.9l1.4,3.6,1.9,2-1.4,1.6h-1.9l-.4,1.6,3.8,9.3v4.1l4.3.5,3.3-6.6Zm-20-37.3v-1l-.4-.5h-1l-1.5,1.6.5.5h1.9Zm7.6,39.4.5.5h.9l.5-.6v-1l-1.5-1.5-.4.5Zm1-13.5-.5-.5-1.4,1.5.5.5,1,.1.5-.5Zm21,33.1v-1.1l-.5-.5h-2.9l-.4.5-.1,2.1.5.6h1.9Zm4.8-16.6v1.1l.5.5h1.9l.5-.5v-1l-1.4-1.5Zm-10,20.2-.5.5,1.4,1.5h.9l.5-.5v-1.1l-.5-.5Zm45.3-117.3-1.9-1-.5-2.6-4.8-2.1-1.4-1.5.1-5.2-1-1v-2.1l2.9-2.1,1.9-5.1-1.5-1.6-2.9.1-.9,1-2.9-4.1-.9,1-.5-.5-.5-3.6h-1l-2.8,3.1-5.7,1.1-1.9,2h-3.8l-3.8-3.1-3.9,1.1-.9,2-2.4-.4v-4.2l-1-1v-2l-1.9-4.2,1.5-1.6,2.4-.5v-8.4l-2.3-1.5-2.9-4.1-1.9-1-4.3.5v6.2l1,1-.1,2.2-4.2.5-2.9,2-1-1-2.4.5v3.1l1,2.1,1.5,2.6,1.4.6V187l-.9,1,.9,1-.9,1v6.2l-1,1-.1,2.1,1,1-1,1.1-.1,2.1,2,3.1v1l-1.9,1.1,1,1-.5,1.6h-1.9l-.9-1.1-1.9,1-2.4-1.6,1.4-2.6,2.2-.4v-2l-1.9-2.1v-4.3l-1.9-3.1V191l-1.5-1.6h-1.9l-3.3,3.6v5.2l-1.4,1.5-1-1-2.3.6,1.9,3.1-5.3,1.6-.5-1.6,2.9-2.1v-5.1l-1-2.1-2.9-3.1,1.4-1.6h5.7l2.3-2.6.1-5.1-1.4-1.6-2.4-.4,1-1.1-1.9-7.2,1.9-3.1v-5.2l1.5-.5,2.8,2.1h2.9l2.3-1.5v-4.1l-3.8-6.3v-5.1l-1-1.1-1-4.1-1.4-1.6-1.4.5v1l-2.9,3.2v4.1l.9,1.1-.9,1v4.1l-1.9,2.1,1,1-1.4,1.6-1.9,1-3.8-1-3.8,3.1-.5-.5,1.9-4.2,1-5.1,2.4-.6.5-1.6-2.4-3.6h-1.9l-.9,2.1h-2.8l-.5-1.6-1-1,1-2.2-1.8-5.1-2.5-.6-.4,2.6-1.4,1.6-3.8-.1-4.8,6.2h-1.9l-6.3,5.6-1,5.2-1.9,1,1,1.1v6.2l-2.4,2.6-2-3.2-1,1.1h-3.8l-1-2-2.8-.1-.5,8.8-.4.5-1.4-1.6v-1l-2.3-1.6H576l-7.2,6.7-.4,2.6-1-.1-1.5,1.6.5,3.6h1l1.9-2,1,1h1.9l.5,1.6-1.9,2v2.1l2.9,5.2V200l2.4,2.6,3.3.5v1l-6.2,5.7-2.9,1-6.3,4.6-.5,8.8-1.4-3.6-5.7-6.2v-1l2.9-2.1V201l-1-1v-1.8l-2.3-2.6h-5.7l-2.9,2.1h-3.8l-1,1-1.9-3.1h-2.9l-1.9,2.1h-3.8l-1.9,2-.5-2.6,2.4-.6,1.5-1.5-.5-1.6h-3.8l-3.7-2.1-2,1h-2.9l-.5,2.6,1.9,3.1-3.4,3.7-2.4.4-1.9,9.3L511,213l-.5,2.6-2.9,2.1,1.9,3.1-3.9,3.1-1,4.2-1.9,1,.1,3-1.5,1.5-2.9.1-1.9,2.1-2.9,1-.9,2.1-1.5.6-3.8,9.3.9,1,1.9,4.2-2.9,5.2-.5,2.6-5.7-1-1.4-1.6-.5-2.6h-1.9l-1,1.1h-1.9l-1.4,2.6-4.3,3.6-1.4-.5,3.8-4.1,1-6.2,2.9-5.2,5.7-6.2,1-3.1,6.2-6.7h.9l3.3-2.6-1-2,.1-5.2,1.9-1,1-2.1v-7.3l-3.8-4.1-.5-1.6-1.9-1h-5.7l-1-1.1-2.4-.5v-8.2l-2.3-2.7-1.9.1-2.9-3.1H467l-1,1.1-1.9-1-3.8-3.1-3.9-1-2.4-2.6,1-1-1.4-1.5h-6.7l-4.7-4.1h-1.9l-.5-1.6,1.5-3.6,1.9,1,1-2.1,4.8,1,1-1.1h1.9l1,1.1h1.9l.5-4.7,3.3-.5,4.8-4.1,6.7,2.1,1,1H473l1.9,3.1h2.9l1.9-2.1h3.8l1.9,2.1,1.9,1,1.9-1,.9,1H492l1.5,1.6-1.9,5.2-1.9,2,1.5,1.7h1.9l1-1,1.9,3.1h1l1.9-3.1,1.9,1,2-1,.5-1.7-1.5-1.5-3.8-1.1-2.4-5.6-1.4-1.6h-1.9l-3.3-2.6,1.9-11.4,2.9-2.1.5-1.6h.9l2.4,2.6,1.5,3.6,1.9-1h3.8l2.8-3.1,6.7-2.1.5,1.5-1,2.1,2.4,2.6,3.4-2.6.9-4.1,2.8-3.2,1-3,3.8-4.2v-2l1-1.1L529,129l-1.9-3.1v-3.1l-1-1,.5-2.6,2.4,3.6.5,2.6,4.7,2.1,1.9,2H539l.9,1h1.9l3.9,2.1h2.8l.9,4.1h1.9l2.4-2.6V131l2.4-2.5h1.8l1-1,1,1,2.9-.1,5.7-3.1,5.3.5-1.5,2.6-1.5.5,1.5,5.7h1.9l2.9-5.2,2.4,1.5-1,3.1-1.9,2.1v2.1l-4.7,3.1-.5,2.6h-5.7l-1.9,3.2-1-1.1H559l-1.8-1-2,3.1-4.7-.1-1.9,3.2-1.4.5v2.1l-2,3.1,1.4,1.6h1.9l1-1.1,1.4.6-7.1,8.8-2.4-.6,1-1-1.5-1.6H538l-6.1,6.7v3.1l-1,1,.5,2.6h1.9l.5-2.6,2.4-1.6h6.7l2.8-2.1,1,.1,2.4-2.6,1-3.1,5.3-5.6,4.7-3.1,3.8-1,.1-2.1-3.9,2.1h-3.8v-2.1l2.8,1,3.8-3.1h6.7l.9-1h1.9l2.9-2h1.9l1.9-2.1,1.9,1,1.9-2,2.9-1,1.9-3.1.9,1,1-1,5.7-1,5.7-4.2,1.4-1.5v-2.1l-1.9-1,1.5-1.6h1.9l1.8-2.1,1,3.1,5.7-5.2h.9l8.6-11.4h1.9l2.8-3.1h1.9l5.2-3.6.1-5.2-2.4-2.8-5.7,3.1-3.8,4.2h-2.8l-1.1,1h-2.8l-1,1.1-3.8-.1-1,1.1h-3.8l-1.9,1-.9,1h-1.9l-2,3.1-1.9,1-5.7-5.2-2,1-.5-.5-.4-3.6h-2.9l-.9-4.2-4.3.5v1.1l1.9,2.1-1.4.5-3.3-1.6,1-1-.5-1.7h-4.7v-1l3.4-.6-3.4-2.5-1,1h-4.8l-.4,1.7-2.5.4-1.8,2.1-2.4-.5,2.9-2v-3.2l-1.9-1v-3.1l2.4-.5,2.9,4.1h1.9l.4-3.6,1.4-2.7,1.4-.4v-2.1l5.8-5.1-1.5-2.6h-1.9l-6.1,5.6-.4-2.7,2.8-4.1-.5-2.6-2,1h-2.9l-2.9-2-.5,4.7-4.3.5-1-1-3.8.1-1,.9-3.3-.5,1.9-3.2v-2l5.8-4.2-1.5-2.6-4.4-1.5v-2.1l-1.4-2.6-1,1.1h-1.9l-1.9,2.1-1.4-.6,1.9-3.1-1-6.2,2.4-.5,1.5-1.6-.5-1.5H543l-.9-1h-1.9l-1,3.1h-1.9l-.9-1.1-1,1-1.3.5-.4,1.6h-1l-.4-2.6-1.5-1.5L526,54l-2.4,2.5v2.1l-2.9,5.2v2.1l-.9,1V70l-2.4,2.6-3.8,1-2.9-2-1.4,2.6v2l-3.4,1.6-1.9-2.1h-2l-2.3,3.7v2.1l-1.5,1.5-1.4-.4-.5-2.7-2.9,2.1h-3.8l-1,1.1-.4-.5,1-2v-3.4l-1-1.1v-7.2l.5-.5,1.4,1.6v1.1l3.3.5,2.4-2.6,1-5.1,5.2-5.7,1.4.5-1.9,2.1.5,1.5h3.8l2.1-1.8-.4-.8-.1-.5v-.5l.3-.2.2-.3.3-.4.1-.1.2-.4.3-.8-.2-.6-.6-.5-.6-1-.6-.7-.6-.4-.1-.4-.1-.2.1-.5h0l-.4-.1h-.5l-.5-.3-.7-.3-.6-.2-.5-.1-.3-.4-.1-.6v-.6l-.2-.4-.3-.4-.6-.1-.4-.4-.1-.1-.2-.4-.2-.5-.2-.4-.4-.4-1-.8h-.4l-.3.1-.3.1-.2.6-.6.1-.6-.1-.5.3h-.7l-1.1.1-.7-.1-1.2-.8-.9-.6-.8.1-.5-.2-.5-.5-.4-.2-.6-.5-.6.1-.3.3-.4.2-.5.3H486l-.4-.3-.9.1-.9.1-1.7.3-.6.1-1,.1-.4-.4-.2-.5v-.1l-.2-.5-.5-.3-.6.1-.3.3h0l-.3.3h-.6l-.4-.2-.1-.1-.5.1h-.1l-.6.1h-1.3l-.3.4v.1l-.1.6-.2.5-1.2.4-.9.2-.7-.1-.4-.2-.5-.3-.5-.1-.6.3-.8.1h-1.1l-1-.1-1-.1-.7-.1-.6.2-.4.6-.2.4v.1l-.7.1-.5-.1h.1l-.9-.3-1.1-.2-1.5-.1-.5-.2h-.5l-.4.1-.2.5-.1.3-.4.7-.8-.4-2-1.1-.7-.3-.2-.4-.1-1.2-.1-.4-.1-.4-.1-.2h0l-.1-.4v-1l-.3-.5-.6-.6-.4-.4-.4-.3-1,.2-.4.2-.2.1-.8.2H447l-.5-.1h-.8l-.5.2h-.5l-.4-.2-.2-.2-.7-.5-.3-.4-.3-.3-.4-.2-.8-.2h-.5l-.4.2-.3.2-.4.3-.4.3-.1.5-.2.4-.3.5-.4.1-.6.2-.7.1-.8-.1-.5-.4-.2-.5-.2-.5-.5-1.2-.4-.5-.6-.4-.5.1-.4.2-.3.1-.7.7-.3.4-.8,1.2-.6,1-.3.6-.3.5-.3.9-.1.4-.2.5-.2.4-.4.4-.2.5-.2.8-.4.4-.8-.2-.7.1h-.6l-.3-.1-.4-.1-.5-.1-.7-.2-.5.2-.4.8v1l-.1.4v.5l.2.6-.1.6-.3.8-.3.3h-.5l-.5.1-.4.5-.2.8-.1,1v1.5l.2.6,1,.3.5-.2-.3-.6v-.5l.5-.1.4.1.4.5v.7l-.2.5-.5.3h-.6l-.5.3-.4.5-.3.5-.5.5-.4.4-.7.9h0l-.1.4v.7l.4.9-.5.5-.5.3-.9.1-.5.4-.5-.2-.6.1-.8.4-.5-.2-.1-.5.1-.6v-.3l-1,.2-.5-.1h-.4l-.5.2h-.5l-.2-.6-.5-.2-.6-.1-.8-.3-.5-.1-.5-.5-.5-.2-1.1-.1-.5-.1-.7.2-1,.8-.4.6-.5.3-.2.1-.3.2-.1.2-.4.5-.3.1-.3-.3-.4-.4h-.5l-.6-.2-.3-.4-.4-.1-.6.5-.5.3-.4-.1-.4-.4-.6-.2-.5.3-.1.5-.2.6-.2.5-1.5,1.4-.5.3-.2-.1-.2-.1-.9-.6h0l.5-.2.1-.5-.5-.3-.9.4-.3.7-.1.7-.7.5-.4.1-1.1.3-.4.2-.4.2-.5.4-.5.5-.3.5v.7l.3.4.6,1,.2.6-.5-.1-.5-.5-.3-.1h-.5l-.5.4.1.6.3.3.2.6h-1l-.6-.2H385l-1.5-.6h0l-.8.2h-.1l-.5.2-.6.6v3.9l-.7.5-.4.2-1.7,1.1-.8.2-1.5-.5-.6-.4-.6-.5-.4-.5.1-.7.1-1.6v-1.9l-.1-1.5-.3-.5-.6-.4h-.7l-.5.5-.2,1-.2.4-.4.5v.1l-.7.2h-.8l-.5-.2-.4-.2-.7.1-.4.6v1l-.1.7-.2.6-.5.3-.6.1-.1-.5.2-.5v-.4l.1-.5.1-.4v-.1l.3-1-.3-.8-.5-.1-1,.3-1,.3-.5.2h-.1l-.8.1-1.1.3-1.1.3-.5.1-.6.1-.6-.1-.5-.2-.2-.2-.1-.1h0l-.5-.5-.4-.6-.1-.2-.3-.5-.4-.6-.4-.4-.5-.3-.5-.3-.6-.2-.8-.3-.7-.1-.8.2-.5.1h-.1l-.5.1-.6.2-.5.3-.6.5-.4.4-.4.4-.5.6-.3.4-.3.5-.3.5h0l-.4.5-.3.5-.3.6-.3.4-.5.3-.5.2-.8.2h-.5l-1,.2-1.1.2h0l-.6.1-1.4.5-.7.3-.4.4-.4.6-.1.7v1l.1.5.6.7.5.5.7.6.3.2,1.2.7.2.1.4.3.7.3,1,.6.4.2.1.1.1.1.6.4.6.7.2.3.1.6-.1.7-.3,1-.8,1-.8,1.1-1.4,1.5v.6l-2.4,3-4.5,1.5-4.2-3.3-4.6.2-3.8,1.2-2.9,3.1h-1l-2.4,3.6-1,5.2-3.3,3.6-2.3,1.6-3.4.9-4.7-1.4-1-1-7.6-.1-5.7,5.2-2.9,1-4.4,4.7-.9,4.1,1,1.1,1,6.2,2,2v3.1l-1,1V143l1,1.1-1,1-.5,5.7-1.5-7.8-2.4-2.5h-1.9l-3.8,3.1-6.7,3.1-1.9,2.1h-4.8l-.5-5.7.9-1v-4.9l4.8-6.2-1.4-2.6h-2.9l-1,1h-5.7l-.9-1h-2.9l-.9,2.1h-3l-3.5,2.6-2.9,7.3-3.3,5.7h-1l-3.9,4.1h-1l-5.2,5.7v1l-4.7,7.2-1,4.1-4.3,4.7-15.2,7.2H196l-2.4,2.6.1,1L185,193l-1.9,9.3-4.3,3.6h-.9l-2.4,2.6-.5,4.6-5.7,3.1h-4.8l-1,1.1-5.7-.1-1,1.1-1.9-1h-3.8l-1,1h-1.8l-3.4,3.6v2l-2.3,3.6-1.9,1h-3.8l-2.4,2.6-.1,3.1,3.3,2.6h4.8l5.3,4.6.9,2.1-1,1,.1,4.1,2.3,3.6h1l2.4,2.6v2.1l1,1.1v7.2l-1.9,2.1-.1,3.1,4.8,5.2.5,1.6,3.8,2.1h8.6l1,1.1,4.8,1,3.8,3,1.9.1,1.9,1,1.9-1,1.9-3.1,6.7-3.1,1.9-2,5.3-.5v-2.1l4.8-5.2v-5.3l1.9-2v-1l3.3-3.6,1.4-.6v-3l-.9-1,.4-3.6.9,1,7.1.5V252l2.8,3.1v4.1l-.9,1.1-.9,2-.1,4.2,1,.9v2.1l2.3,2.5,1.9.1,4.8,4.1h4.8l2.3,2.5-1.4,2.7h-1l-1.4,1.5,1.4,2.6,4.7,1.1,1-1,1.9,2,2.9.1.9,1,1.1-1.2.9-2.1H252l3.8-3h1.9l1.4,1.6.5,2.5,3.8-2.1,4.3,1.5V289l2.4,4.6,5.7-.1.9,1.1h5.7l1-1.1h3.8l2.9-2H292l6.7-4.3h5.7l1-1,1.9-.1,7.6-6.2h1.9l5.7,3.1,1,1.1,5.8-1,1.9-3.2,1.9-1h5.8l.9-2.1,5.7,3.2,2.8-.1,1-1H355l1-1.1,6.7-1,3.8-4.1,6.7,1,4.3,5.7v3.1l-2.8,3,4.8,6.2v3.1l1,2-1,2,1,2.1,1.4,1.5h1.9l1.8-2.9L388,298l.5-2.6h1.9l.5,2.5-1,1v4.2H389l-1.5-2.7-1.5,2.7,2.4,4.6,4.8,1.1,6.7,8.2h2.9l2.8-5.2.5,2.6-2,4.1,2.4,1.5,1.9-.1,1,1.1h8.5l2-1.1,1.9,2.1h1l9,8.8-.9,1.1v6.2l1.4,2.6,1-1,3.8-.1,1.5,2.6v5.2l.9,2-2.8,2.1v2l.9,1.1,3.3,16h8.8l2.9-4.2.9.1,1-2.1h1.9l2.4-1.5.1-4.1,1.4-2.6,7.6,4.2,1.5-1.6v-2.6l1-1v-4.1l-1.5-1.6-2.4-.5v-3.1l1.5-.5,3.3-3.6v-2.1l2.4-1.5,6.7,7.3h1l13.4,13.4,2.4-3.6-4.4-5.8H490l-2-3.1h-.9l-13-14,1.4-.5,3.8,4.1,1.4-2.6-.1-3.1-1-1,.5-1.6h7.7l3.4,2.6-.5,6.7-2.4-1.5v-3.1l-1.4-.5-.5,2.5-2.9,3.1v2.1l3.4,3.6h.9l2.8,3.1,3.9-2.1,1,2.1h1l6.2,6.7.5,1.5,1,.1,3.3,3.5,4.3,7.8,1.9-1.1,4.3.5v1l-2.9,2.1,1,2v1.1l1.9,1,.5,1.5,2.3.5.5,4.7,1.9,1H526l1,1,2.4-1.6v-1l11.5-13.3.9-2.1v-3l-1.9-4.1-2-1,1.5-.5,2.4-2.6.9-3.1,1.9-2-1-11.4-3.3-3.6h-1l-1.9,2.1-.5-2.6,1.5-1.6h5.7l1.9,1,.5,2.6,2,3.2v2l2.3,2.7,2.8-.1.5-2.5,1.5-1.5.4,1.6,1.9,1-1.9,2-.4,2.6h-1.9l-1.5,1.6v6.2l2,1-.1,1,1.9,1,1,2.1v3.1l1,2.1,2.4,2.5,2.4.5v2.1l1,1v3.1l1,1.1-.9,7.2,1.4,2.6h2.9l.5,2.6,1,1-4.6,4,1,11.4,1.4,2.6,2.9-.1.9-2.1,1.5-.5.5-3.6.9,1.1,6.7,1,.5,2.5,1.4,1.5h2.9l1.9,1,2.9,7.2h1.9l1.4-1.6v-5.1l1.4-.5,2.9,2.1,2.4-1.5.9-3.1-1.5-3.6-3.8,2-1.4-.5v-6.3l-.9-1-.1-3.1,2-2.1-1.5-2.5h-1.9l-2.4,2.6-.9,3.1-3.3,3.6-1.5-.5,2.4-3.6,1.4-.5V388l-6.2-.5-.9-1-1.4-.5-.1-3.1,2-1v-2.1l-2-3.1,3.3-2.5h1.9l.5,1.5,3.3,2.6h6.7l3.8-4.1,4.8-2.1,1.4-1.6.1-5.1,1.9-1-2.9-4.1v-2.1l-5.8-6.2v-2.1l-1.6-1.4h-1.9l-1,1.1h-3.8l-3.4,3.6.1,2.1-1.5.5-1.4-2.6-1.9-1,1.9-1v-3.1l-.9-1V345l-1.9-1-.5-8.7h-1.9l-1,1.1-5.7-1.1-2.9,2.1h-2l-1-2.1-3.8-1-1.3-1.7.1-7.2-2.9-5.2.1-2.1-2.4-1.5-1.5-2.6v-6.2l1-1v-3.1l1.9-3.1-1.5-1.6h-2l-.9,1-1.4-1.5v-2.3l-4.2-3.6h-1l-1.9,3.1h-5.7l-.5-1.5,4.8-3.1,1-3.1,3.8-4.1v-4.1l1.5-.5.9,1.1,1.5-1.6.5-3.5,4.2,3.5.1,2.1.9,1-1,1V286l-3.8,3.1.5,3.6,1.9-1.1,3.8,1.1,1.3,4.7,3.4,3.6,2.3-1.5v-3.3l2-1-1-2,1-1.1V288l-4.8-2v-2.1l-2.9-6.2,1.9-4.2-.1-6.2-3.2-2.6-2.4-.5,1.5-1.6h1.9l.4-1.6,3.8-4.1v-2.1l1.9-2,1-4.2,1.4-1.5,1,1h1.9l.5-1.5L574,245h2.9l2.4,3.6,3.3,4.7h3.8l1.8-3.1.5,2.6,1.9,2,.5,3.7H593l1.5-1.5v-2.1l.5-.6,2.9,4.1h1.9l.9-1.1,2.9.1.4-2.6-.9-1v-2.1l2.4-3.6h1.9l.9-1h2.9L615,245l1.4.5-.5,1.6-3.2,1.6v3.1l1.9,1-1,8.3,1.5.5,2.8-2,.5,1.5,2.4,2.6,7.6,4.1,3.8-2.1.5,1.5,3.4,2.6h2.8l1-2.1,1.9,1,1.5-1.6-2.9-6.1-1.9-1,.5-3.6,2.9,2.1h1.9l.9,3.1,3.4.5v3.1l4.3,3.6h1.9l.9,1H660l1-3.1,1.4,2.5-1,1.1v3l3.3,3.6,5.8,1,1.9,2h1.9l1.9,3.1h2.9l.9,1h4.8l1.4-1.5v-2.1l-2.4-2.6-4.3-2.5-.1-3.1-1-1,2.4-2.6,1.9,2.1h1.9l1.9-2,1.5,1.5-.1,3.1,2.9,6.2,1.5,1.5h2.8l2.4-2.6v-3.1l-1.4-2.5-1.5-.6-1.9-4.2,4.8-1-1-11.4-1-1v-3.1l-1.4-.6-1.9-2.1h-1.9l-1.1,2.1-.9-2.1-2.4-1.5-1-3.1-4.3-4.6h-2.8l-2.9,5.2-1.4-.6,1-1v-3.1l-2.7-2.1,3.3-.6,3.3-2.5v-8.3l2.4-1.5,1,2.1h.9l1.5-1.6-1.9-3.1.9-4.2,1.5-1.6,3.8.1,2.9-4.2h1.9l.9,1.1H699l2.3,5.6,1.5,1.6h1l2.8,3.1,1-1.1h1.9l1.9,1,2.3-2.6-.9-2v-2.6Zm-56.8,112-2.9,4.2-1.8-2h-1.9l-2.4,4.6v2.1l-1.8,2v2.1l1,1v2.1l1.4,1.5h.9l1.5-1.6.5-2.6,1.9,1,3.3-2.5v-3.1l-.9-1,3.8-3.2,1-2-.5-1.5Zm-154.3-135.8.5.6,2.4-2.6-.5-3.6-2.4,3.6Zm7.2-16h2.8l1.9-3.2,2.3-1.5v-2l1.9-2.1V167l-2.3-1.5h-3.8l-.5,1.6-2.9,2v3.1l-3.8,3.2v2l3.4.5Zm-10.6-9.3-1-1-1.4.5v1.1l1.4,1.5h2.9l.5-.5-.5-1.6Zm4.8-3.1,1.5-1.6-.1-3.1-.4-.5h-1l-2.4,1.6v3l.5.6Zm235.6-9.7v2l-1,1.1.5.5h1.9l.5-.6v-2l-1.5-1.6Zm-176.8,44.3-.1-2.1-.4-.5h-1l-1.5,1.6v1l.5.5h1.9Zm186.8-138-3-3.1h-1.9l-1.4-1.5.5-8.8-4.8,1-1.4,1.6-1,5.1,1,1.1v5.1l1.4,1.6H741l3.8,3.1h1.9l1,1h4.8l2.4-2.6v-3Zm-19.2,100.3-.5.6v1.1l1.4,1.6h.9l.5-.5v-1.1l-1.4-1.6h-.9Zm-14.3,60-.5.6v2l.5.6,1.4-1.5V222l-.5-.6ZM507,73.55l-.5.5,1.4,1.5.5-.5V74l-.5-.5H507Zm-16.8,6.7.5.5h1l.5-.5-1.4-1.5-.5.5Zm139.5,57.9v1l1.4,1.5.5-.5v-2l-.5-.5h-.9Zm60.7,99.7h1.9l.5-1.5-1-1v-2.1l-.5-.5h-1.9l-.5.5,1,1.1-.1,3.1Zm-61.1-91,.5-.5v-1l-.5-.6h-.9l-.5.5v1.1l.5.5Zm-52.6,19.7h1.9l1.5-1.6v-1l-.4-.6h-1.9l-.5.5V165l-1,1ZM561.45,209l1.4-1.5v-1.1l-.5-.5h-1l-1.4,1.5-.1,1.1.5.5Zm19-47.6h1.9l.5-.5-.1-2.1-.4-.5-.9-.1-.6.5v1.1l-.9,1Zm49.2-18.1v-2l-.9-1.1-.5-2.6-1.5.5v4.1l1.4,1.6Zm-53,128.7.5-.5v-2.1l-.4-.5h-1.9l-.5.5v2.1l.5.6Zm-21,120.8,1.9,1,1.9-3,2.9-.1,1.4-1.5v-2.1l-1.4-1.5-7.6-1.1-3.3,5.7v4.1l1.4,1.6h1ZM570,261.65l-1-1.1-.4.6v3.1l.5.5h.9l.9,1.1h1l1.4-1.6-2.3-2.6Zm9.5,2.1-1-1.1h-.9l-.5.5-.1,1,1.4,1.5h1l1.4-1.5-.5-.5Zm-4.3-12v-1l-.5-.6h-.9l-.5.5-.1,1.1-.9,1,.5.6h.9Zm12,22.2-.5.5v1.1l.5.5h.9l.5-.5v-1.1l-.5-.5Zm-3.3,17,2.8,1-1,4.2,4.3.5.5-1.6-.9-1V291l-1-1v-5.2l1.9-2.1-1-1v-2l-3.8-3.1v-4.2l2.4-.4.5-1.6-3.4-2.6h-.9l-1.8,3.1-1.5.5-1,4.1-2.9,2v2.1l4.8,5.2Zm12.4,3.1-.1,5.1,1.9,4.2,3.4,3.6,4.8,2.1,1.8-3.1h1l1.9,3.1h2.9l.9,1h4.8l1.4-2.6-1.9-3.1,2.9-1v-2.1l1.8-2.1-.9-2,.9-2.1-.4-4.7-3.9-1-2.8-2.1-3.3-.5,1.9-2v-6.2l-3.8-6.2,1-1v-4.1l-2.3-2.6-2.4,2.7.1,2-2.4,2.6-1.5-.6,2.9-3.1,1-5.1-3.8-.1-1,3.1-1.9,1-.9,3.1-1.5.5-.5,1.6-3.8,4.1v3.1l2.4.5.9-1.1.5.5v4.2l2,3.1-3,1,1,1v3.1Zm-16.2-24.8.5.6h.9l.5-.5v-1l-.5-.6h-.9l-.5.5Zm-2.4,17.2.5-.5-.1-3.1-.4-.5h-1l-.5.5v1l-.9,1.1,1.4,1.5Zm3.8,211.6-.4.5v1.1l1.4,1.5.5-.5v-2.1l-.5-.5Zm-1.9,0-1.9,1-1,2.2-3.4,1.5v4.1l1,1.1v2.1l1.4,1.5,2.8.1,2.4-1.6-.1-8.2Zm-10.1-92.4-.4-.5h-1l-.6.5v1.1l.5.5h.9l.5-.5Zm-5.2.6-1.5,1.5.5.5h.9l1,1h.9l.5-.5v-2.1l-.5-.5Zm22.9-71.2,1.9,1H591l.9-1,1,1.1,1.4-.5,1-6.2-2.4-.5-6.7-6.2-2.4.5v7.2l3,3Zm3.4,82-1.9-1-.5-2.5-4.9,1-1.9,2.1h-1l-1.9,3.1-.9-1h-3.9l-3.3,3.6v5.1l-.9,1.1v2.1l4.3,3.6h1.9l2.4,1.6-1,1V440l3.3.5,1.5-1.6.5-3.6,1.9-1,2.9,2.1,1.5-.6,1-2v-3.1l-1-1.1,2.9-2,.1-4.2-1.9-1Zm7.6,83.5v5.3l1.5.5,1.4-1.5-.4-4.7Zm-2.4,6.8-.5.5V510l.5.5h1l1.4-1.5v-1.1l-.5-.4Zm14.3-117.7h-1.9l-.9,1.1-1.5.5v2.1l1.4,1.5,2.9,1,1.4-2.6v-2Zm-7.6-127,.5-.6v-1l-.4-.5h-.9l-.6.5v1.1l.5.6Zm12,86.3v-2.1l1-1.1-.4-.5h-2l-.5.5.1,3.1.4.5h1Zm13.3-28.9L624,317l-.1-2.1-2.3-3.6H612l-2.4,2.5v3.1l2,2.1.9,4.1,1,1.1v2l2.3,4.6,2-1h2.8l2.8,2.1,2.9-3.1h1.9l.5-4.7-1-1.1Zm-9.1-41.9-.5.5v1.1l1.4,1.5h1.9l.5-.6v-1.1l-1.4-1.5Zm14.4,38.2-2.9-1-.5.6.1,4.1.4.5H633l.6-.5-.1-3.1Zm-26.8,44.5,1.4-.5v-3.1l-1.5-1.6-1.5.5.1,3.1Zm37.3,46.4-.5.5-.1,1,1.5,1.5,1.4-1.5-1.4-1.5Zm7.6-12.4h-1l-.4.5v2.1l.5.5h1.9l.5-.5-1-1v-1Zm-53.5-132.2-.9,1.1-1-1.1h-1.9l-.4,4.6,3.3,3.6,3.3-3.7-.9-1v-2Zm50.2,136.9-2.9,2,.1,4.1,2.4,2.6,1.4-.5v-2.1l2.8-3.1-1.5-3.6-1.8-1Zm-.9,18.5-1.5-1.6-1.4,1.6v1l1.4,1.6h1.9l.5-.5-1-1ZM593,273l-.5.5v2.1l.5.5,1.5-1.5v-1.1l-.5-.5Zm60.6,141-1.4-3.6-1.5.5-.4,3.6-1.9-1-1.5,1.5,2.4,5.7,1.9-1,1.9,1,.5-.5-1-4.2ZM623,281.75l2.4.5.5-4.7,1-1v-4.1l-6.2-5.6-3.8-.1-1.4,4.7,2.3,3.6h1.9l1.9-2,.5.5Zm-31-12.9-.5.5v1.1l1.4,1.5h1.9l.5-.6-2.5-2.5Zm8.1-4.6v1.1l.5.5h.9l.5-.5v-1l-.5-.6h-.9Zm15.3,4.1-1.4-1.6-.5.5v2l.5.6Zm-7.2-18h-1l-.5.5V253l.4.5,1,.1.5-.6v-2.1Zm1,8.2h1.9l1.5-1.6v-1l.9-1.1-.5-1.5h-2.9l-.5.5-.1,1.1-.9,1v2.1Z"/></g><g id="text"><text class="cls-4" transform="translate(352.24 210.97)">H</text><text class="cls-4" transform="translate(365.37 210.97)">o</text><text class="cls-4" transform="translate(376.45 210.97)">n</text><text class="cls-4" transform="translate(387.65 210.97)">g</text><text class="cls-4" transform="translate(403.34 210.97)">K</text><text class="cls-4" transform="translate(414.28 210.97)">o</text><text class="cls-4" transform="translate(425.37 210.97)">n</text><text class="cls-4" transform="translate(436.57 210.97)">g</text></g><line class="cls-5" x1="642.55" y1="489.05" x2="677.75" y2="488.65"/><polygon class="cls-6" points="674.75 491.15 677.25 488.65 674.75 486.15 676.85 486.15 679.45 488.65 676.95 491.15 674.75 491.15"/><line class="cls-7" x1="642.55" y1="468.75" x2="677.75" y2="468.35"/><polygon class="cls-8" points="674.75 470.95 677.25 468.35 674.75 465.85 676.85 465.85 679.45 468.35 676.95 470.95 674.75 470.95"/><g id="_8_12" data-name=" 8 12"><line class="cls-5" x1="316.55" y1="78.85" x2="335.85" y2="121.85"/><polygon class="cls-6" points="331.15 119.65 335.65 121.35 337.35 116.85 338.55 119.45 336.85 123.95 332.35 122.25 331.15 119.65"/><line class="cls-5" x1="414.35" y1="32.55" x2="429.95" y2="77.05"/><polygon class="cls-6" points="425.45 74.45 429.75 76.55 431.85 72.15 432.85 74.85 430.75 79.25 426.45 77.15 425.45 74.45"/><line class="cls-5" x1="485.65" y1="29.15" x2="479.05" y2="75.85"/><polygon class="cls-6" points="476.25 71.35 479.15 75.25 482.95 72.35 482.55 75.15 478.75 78.05 475.85 74.25 476.25 71.35"/><path class="cls-7" d="M360.65,119.75c-7.7,8.4-19.4,20.9-34.2,35.7-41.1,41.1-52.7,46.6-52,59.2,1.5,23.8,45.1,41.7,72.3,47.1a129,129,0,0,0,27.1,2.3"/><polygon class="cls-8" points="369.95 267.55 373.25 264.05 369.85 260.75 372.75 260.65 376.15 264.05 372.85 267.45 369.95 267.55"/><path class="cls-7" d="M466.25,84.55c-8.6,5.1-24.2,16-34.1,35.8-9.7,19.5-15.9,51.6-.6,71,9,11.4,18.6,9.7,23.7,20.3,6.5,13.5-1.9,31.4-11.2,45.5"/><polygon class="cls-8" points="443.35 252.05 444.35 256.75 449.05 255.65 447.55 258.15 442.85 259.15 441.85 254.45 443.35 252.05"/></g><g id="Land_Mark" data-name="Land Mark"><text class="cls-9" transform="translate(439.99 469.65)">R</text><text class="cls-9" transform="translate(445.39 469.65)">e</text><text class="cls-9" transform="translate(450.39 469.65)">p</text><text class="cls-9" transform="translate(456.06 469.65)">u</text><text class="cls-9" transform="translate(461.55 469.65)">l</text><text class="cls-9" transform="translate(463.91 469.65)">s</text><text class="cls-9" transform="translate(467.85 469.65)">e</text><text class="cls-9" transform="translate(474.96 469.65)">B</text><text class="cls-9" transform="translate(480.36 469.65)">a</text><text class="cls-9" transform="translate(485.09 469.65)">y</text><text class="cls-9" transform="translate(501.64 359.72)">D</text><text class="cls-9" transform="translate(508.32 359.72)">e</text><text class="cls-9" transform="translate(513.32 359.72)">v</text><text class="cls-9" transform="translate(518.11 359.72)">i</text><text class="cls-9" transform="translate(520.44 359.72)">l</text><text class="cls-10" transform="translate(522.86 359.72)"></text><text class="cls-9" transform="translate(524.2 359.72)">s</text><text class="cls-11" transform="translate(530.26 359.72)">P</text><text class="cls-9" transform="translate(535.32 359.72)">e</text><text class="cls-9" transform="translate(540.31 359.72)">a</text><text class="cls-9" transform="translate(545.11 359.72)">k</text><text class="cls-9" transform="translate(498.33 281.3)">G</text><text class="cls-9" transform="translate(504.77 281.3)">i</text><text class="cls-9" transform="translate(507.1 281.3)">n</text><text class="cls-9" transform="translate(514.75 281.3)">D</text><text class="cls-9" transform="translate(521.39 281.3)">r</text><text class="cls-9" transform="translate(524.68 281.3)">i</text><text class="cls-9" transform="translate(527.02 281.3)">n</text><text class="cls-9" transform="translate(532.55 281.3)">k</text><text class="cls-9" transform="translate(537.23 281.3)">e</text><text class="cls-9" transform="translate(542.22 281.3)">r</text><text class="cls-9" transform="translate(545.48 281.3)">s</text><text class="cls-12" transform="translate(551.54 281.3)">L</text><text class="cls-9" transform="translate(556.24 281.3)">i</text><text class="cls-9" transform="translate(558.58 281.3)">n</text><text class="cls-9" transform="translate(564.11 281.3)">e</text><text class="cls-9" transform="translate(461.41 348.1)">K</text><text class="cls-9" transform="translate(466.97 348.1)">a</text><text class="cls-9" transform="translate(471.77 348.1)">i</text><text class="cls-11" transform="translate(475.81 348.1)">T</text><text class="cls-9" transform="translate(480.13 348.1)">a</text><text class="cls-9" transform="translate(484.93 348.1)">k</text><text class="cls-13" transform="translate(461.41 360.06)">A</text><text class="cls-9" transform="translate(467.48 360.06)">i</text><text class="cls-9" transform="translate(469.81 360.06)">r</text><text class="cls-9" transform="translate(473.11 360.06)">p</text><text class="cls-9" transform="translate(478.78 360.06)">o</text><text class="cls-9" transform="translate(484.25 360.06)">r</text><text class="cls-9" transform="translate(487.75 360.06)">t</text><text class="cls-9" transform="translate(379.48 349.43)">S</text><text class="cls-9" transform="translate(384.36 349.43)">t</text><text class="cls-9" transform="translate(387.6 349.43)">o</text><text class="cls-9" transform="translate(393.07 349.43)">n</text><text class="cls-9" transform="translate(398.61 349.43)">e</text><text class="cls-9" transform="translate(405.71 349.43)">C</text><text class="cls-9" transform="translate(411.38 349.43)">u</text><text class="cls-9" transform="translate(416.87 349.43)">t</text><text class="cls-9" transform="translate(420.17 349.43)">t</text><text class="cls-9" transform="translate(423.41 349.43)">e</text><text class="cls-9" transform="translate(428.4 349.43)">r</text><text class="cls-9" transform="translate(431.66 349.43)">s</text><text class="cls-9" transform="translate(379.48 361.39)">I</text><text class="cls-9" transform="translate(381.86 361.39)">s</text><text class="cls-9" transform="translate(385.81 361.39)">l</text><text class="cls-9" transform="translate(388.16 361.39)">a</text><text class="cls-9" transform="translate(392.97 361.39)">n</text><text class="cls-9" transform="translate(398.5 361.39)">d</text><text class="cls-9" transform="translate(218.33 183.07)">C</text><text class="cls-9" transform="translate(224.04 183.07)">a</text><text class="cls-9" transform="translate(228.84 183.07)">s</text><text class="cls-9" transform="translate(232.79 183.07)">t</text><text class="cls-9" transform="translate(236.09 183.07)">l</text><text class="cls-9" transform="translate(238.44 183.07)">e</text><text class="cls-11" transform="translate(245.55 183.07)">P</text><text class="cls-9" transform="translate(250.6 183.07)">e</text><text class="cls-9" transform="translate(255.6 183.07)">a</text><text class="cls-9" transform="translate(260.4 183.07)">k</text><text class="cls-9" transform="translate(267.19 183.07)">R</text><text class="cls-9" transform="translate(272.59 183.07)">o</text><text class="cls-9" transform="translate(278.07 183.07)">a</text><text class="cls-9" transform="translate(282.87 183.07)">d</text><text class="cls-9" transform="translate(417.35 266.73)">S</text><text class="cls-9" transform="translate(422.26 266.73)">h</text><text class="cls-9" transform="translate(427.8 266.73)">i</text><text class="cls-9" transform="translate(430.13 266.73)">n</text><text class="cls-9" transform="translate(435.66 266.73)">g</text><text class="cls-9" transform="translate(443.35 266.73)">M</text><text class="cls-9" transform="translate(451.39 266.73)">u</text><text class="cls-9" transform="translate(456.88 266.73)">n</text><text class="cls-9" transform="translate(464.53 266.73)">R</text><text class="cls-9" transform="translate(469.93 266.73)">e</text><text class="cls-9" transform="translate(474.93 266.73)">d</text><text class="cls-9" transform="translate(480.55 266.73)">o</text><text class="cls-9" transform="translate(486.02 266.73)">u</text><text class="cls-9" transform="translate(491.51 266.73)">b</text><text class="cls-9" transform="translate(497.19 266.73)">t</text><text class="cls-9" transform="translate(465.31 237.88)">S</text><text class="cls-9" transform="translate(470.23 237.88)">h</text><text class="cls-9" transform="translate(475.76 237.88)">a</text><text class="cls-11" transform="translate(482.27 237.88)">T</text><text class="cls-9" transform="translate(487.1 237.88)">i</text><text class="cls-9" transform="translate(489.44 237.88)">n</text><text class="cls-9" transform="translate(497.08 237.88)">R</text><text class="cls-9" transform="translate(502.54 237.88)">i</text><text class="cls-9" transform="translate(504.88 237.88)">v</text><text class="cls-9" transform="translate(509.57 237.88)">e</text><text class="cls-9" transform="translate(514.57 237.88)">r</text><text class="cls-11" transform="translate(453.69 199.68)">T</text><text class="cls-9" transform="translate(458 199.68)">a</text><text class="cls-9" transform="translate(462.81 199.68)">i</text><text class="cls-11" transform="translate(467.25 199.68)">P</text><text class="cls-9" transform="translate(472.31 199.68)">o</text><text class="cls-9" transform="translate(479.89 199.68)">R</text><text class="cls-9" transform="translate(485.29 199.68)">o</text><text class="cls-9" transform="translate(490.77 199.68)">a</text><text class="cls-9" transform="translate(495.57 199.68)">d</text><text class="cls-9" transform="translate(404 308.12)">G</text><text class="cls-9" transform="translate(410.49 308.12)">o</text><text class="cls-9" transform="translate(415.97 308.12)">l</text><text class="cls-9" transform="translate(418.32 308.12)">d</text><text class="cls-9" transform="translate(426.05 308.12)">H</text><text class="cls-9" transform="translate(432.65 308.12)">i</text><text class="cls-9" transform="translate(434.99 308.12)">l</text><text class="cls-9" transform="translate(437.34 308.12)">l</text><text class="cls-11" transform="translate(349.76 312.25)">T</text><text class="cls-9" transform="translate(354.19 312.25)">s</text><text class="cls-9" transform="translate(358.13 312.25)">i</text><text class="cls-9" transform="translate(360.47 312.25)">n</text><text class="cls-9" transform="translate(366 312.25)">g</text><text class="cls-11" transform="translate(373.23 312.25)">Y</text><text class="cls-9" transform="translate(378.49 312.25)">i</text><text class="cls-11" transform="translate(525.49 390.21)">T</text><text class="cls-9" transform="translate(529.81 390.21)">a</text><text class="cls-9" transform="translate(534.61 390.21)">i</text><text class="cls-9" transform="translate(536.95 390.21)">k</text><text class="cls-9" transform="translate(541.62 390.21)">o</text><text class="cls-9" transform="translate(547.09 390.21)">o</text><text class="cls-9" transform="translate(554.68 390.21)">D</text><text class="cls-9" transform="translate(561.36 390.21)">o</text><text class="cls-9" transform="translate(566.83 390.21)">c</text><text class="cls-9" transform="translate(571.3 390.21)">k</text><text class="cls-9" transform="translate(576.1 390.21)">y</text><text class="cls-9" transform="translate(580.76 390.21)">a</text><text class="cls-9" transform="translate(585.56 390.21)">r</text><text class="cls-9" transform="translate(588.72 390.21)">d</text><text class="cls-9" transform="translate(649.52 418.93)">C</text><text class="cls-9" transform="translate(655.3 418.93)">h</text><text class="cls-9" transform="translate(660.83 418.93)">o</text><text class="cls-9" transform="translate(666.3 418.93)">i</text><text class="cls-9" transform="translate(670.75 418.93)">S</text><text class="cls-9" transform="translate(675.69 418.93)">a</text><text class="cls-9" transform="translate(680.5 418.93)">i</text><text class="cls-9" transform="translate(684.58 418.93)">W</text><text class="cls-9" transform="translate(692.69 418.93)">o</text><text class="cls-9" transform="translate(698.16 418.93)">o</text><text class="cls-11" transform="translate(649.52 430.89)">P</text><text class="cls-9" transform="translate(654.57 430.89)">o</text><text class="cls-9" transform="translate(659.97 430.89)">w</text><text class="cls-9" transform="translate(667.21 430.89)">e</text><text class="cls-9" transform="translate(672.2 430.89)">r</text><text class="cls-9" transform="translate(677.58 430.89)">S</text><text class="cls-9" transform="translate(682.46 430.89)">t</text><text class="cls-9" transform="translate(685.76 430.89)">a</text><text class="cls-9" transform="translate(690.53 430.89)">t</text><text class="cls-9" transform="translate(693.83 430.89)">i</text><text class="cls-9" transform="translate(696.16 430.89)">o</text><text class="cls-9" transform="translate(701.63 430.89)">n</text><text class="cls-9" transform="translate(649.52 442.86)">N</text><text class="cls-9" transform="translate(656.08 442.86)">o</text><text class="cls-9" transform="translate(661.55 442.86)">r</text><text class="cls-9" transform="translate(665.05 442.86)">t</text><text class="cls-9" transform="translate(668.35 442.86)">h</text><text class="cls-11" transform="translate(675.99 442.86)">P</text><text class="cls-9" transform="translate(681.04 442.86)">o</text><text class="cls-9" transform="translate(686.52 442.86)">i</text><text class="cls-9" transform="translate(688.85 442.86)">n</text><text class="cls-9" transform="translate(694.34 442.86)">t</text><text class="cls-13" transform="translate(397.55 457.81)">A</text><text class="cls-9" transform="translate(403.62 457.81)">b</text><text class="cls-9" transform="translate(409.29 457.81)">e</text><text class="cls-9" transform="translate(414.29 457.81)">r</text><text class="cls-9" transform="translate(417.45 457.81)">d</text><text class="cls-9" transform="translate(423.07 457.81)">e</text><text class="cls-9" transform="translate(428.06 457.81)">e</text><text class="cls-9" transform="translate(433.06 457.81)">n</text><text class="cls-9" transform="translate(397.55 434.05)">Little Hong Kong</text><text class="cls-9" transform="translate(445.26 417.6)">W</text><text class="cls-9" transform="translate(453.37 417.6)">o</text><text class="cls-9" transform="translate(458.84 417.6)">n</text><text class="cls-9" transform="translate(464.37 417.6)">g</text><text class="cls-9" transform="translate(472.06 417.6)">N</text><text class="cls-9" transform="translate(478.62 417.6)">a</text><text class="cls-9" transform="translate(483.42 417.6)">i</text><text class="cls-9" transform="translate(487.87 417.6)">C</text><text class="cls-9" transform="translate(493.65 417.6)">h</text><text class="cls-9" transform="translate(499.18 417.6)">u</text><text class="cls-9" transform="translate(504.68 417.6)">n</text><text class="cls-9" transform="translate(510.21 417.6)">g</text><text class="cls-9" transform="translate(517.89 417.6)">G</text><text class="cls-9" transform="translate(524.41 417.6)">a</text><text class="cls-9" transform="translate(529.22 417.6)">p</text><text class="cls-9" transform="translate(424.2 394.86)">W</text><text class="cls-9" transform="translate(432.3 394.86)">a</text><text class="cls-9" transform="translate(437.11 394.86)">n</text><text class="cls-9" transform="translate(444.75 394.86)">C</text><text class="cls-9" transform="translate(450.54 394.86)">h</text><text class="cls-9" transform="translate(456.07 394.86)">a</text><text class="cls-9" transform="translate(460.87 394.86)">i</text><text class="cls-9" transform="translate(371.28 407.24)">M</text><text class="cls-9" transform="translate(379.35 407.24)">o</text><text class="cls-9" transform="translate(384.83 407.24)">u</text><text class="cls-9" transform="translate(390.32 407.24)">n</text><text class="cls-9" transform="translate(395.81 407.24)">t</text><text class="cls-9" transform="translate(401.22 407.24)">C</text><text class="cls-9" transform="translate(406.94 407.24)">a</text><text class="cls-9" transform="translate(411.74 407.24)">m</text><text class="cls-9" transform="translate(420.05 407.24)">e</text><text class="cls-9" transform="translate(425.05 407.24)">r</text><text class="cls-9" transform="translate(428.21 407.24)">o</text><text class="cls-9" transform="translate(433.68 407.24)">n</text><text class="cls-9" transform="translate(439.08 407.24)">v</text><text class="cls-9" transform="translate(503.07 463.97)">S</text><text class="cls-9" transform="translate(507.96 463.97)">t</text><text class="cls-9" transform="translate(511.26 463.97)">a</text><text class="cls-9" transform="translate(516.06 463.97)">n</text><text class="cls-9" transform="translate(521.59 463.97)">l</text><text class="cls-9" transform="translate(523.95 463.97)">e</text><text class="cls-9" transform="translate(528.94 463.97)">y</text><text class="cls-9" transform="translate(503.07 444.36)">R</text><text class="cls-9" transform="translate(508.48 444.36)">e</text><text class="cls-9" transform="translate(513.47 444.36)">d</text><text class="cls-9" transform="translate(519.09 444.36)">h</text><text class="cls-9" transform="translate(524.63 444.36)">i</text><text class="cls-9" transform="translate(526.96 444.36)">l</text><text class="cls-9" transform="translate(529.31 444.36)">l</text><text class="cls-11" transform="translate(533.78 444.36)">P</text><text class="cls-9" transform="translate(538.83 444.36)">e</text><text class="cls-9" transform="translate(543.82 444.36)">n</text><text class="cls-9" transform="translate(549.36 444.36)">i</text><text class="cls-9" transform="translate(551.69 444.36)">n</text><text class="cls-9" transform="translate(557.22 444.36)">s</text><text class="cls-9" transform="translate(561.17 444.36)">u</text><text class="cls-9" transform="translate(566.66 444.36)">l</text><text class="cls-9" transform="translate(569.01 444.36)">a</text><text class="cls-11" transform="translate(476.38 384.5)">T</text><text class="cls-9" transform="translate(480.7 384.5)">a</text><text class="cls-9" transform="translate(485.5 384.5)">i</text><text class="cls-9" transform="translate(489.95 384.5)">H</text><text class="cls-9" transform="translate(496.45 384.5)">u</text><text class="cls-9" transform="translate(501.94 384.5)">n</text><text class="cls-9" transform="translate(507.47 384.5)">g</text><text class="cls-9" transform="translate(468.68 399.01)">J</text><text class="cls-9" transform="translate(472.37 399.01)">a</text><text class="cls-9" transform="translate(477.18 399.01)">r</text><text class="cls-9" transform="translate(480.34 399.01)">d</text><text class="cls-9" transform="translate(485.96 399.01)">i</text><text class="cls-9" transform="translate(488.29 399.01)">n</text><text class="cls-9" transform="translate(493.82 399.01)">e</text><text class="cls-10" transform="translate(498.57 399.01)"></text><text class="cls-9" transform="translate(499.92 399.01)">s</text><text class="cls-12" transform="translate(505.98 399.01)">L</text><text class="cls-9" transform="translate(510.54 399.01)">o</text><text class="cls-9" transform="translate(516.01 399.01)">o</text><text class="cls-9" transform="translate(521.49 399.01)">k</text><text class="cls-9" transform="translate(526.16 399.01)">o</text><text class="cls-9" transform="translate(531.64 399.01)">u</text><text class="cls-9" transform="translate(537.13 399.01)">t</text></g><path d="M671.55,495.05l-.9.6.6.9h0l.3.5,1.2-.9-.4-.6-.3.2-.5-.7Zm-1.6,1.2-9,6.5v.1l-.1,1.2a.81.81,0,0,1-.4.6l-2.2,1.6a.83.83,0,0,1-1.16-.15l0-.05h0l-.3-.4-1.6,1.2a.19.19,0,0,0,0,.27l0,0,.1.2a.19.19,0,0,1,0,.27l0,0-2.7,3.2h0l-4.9,3.8a.3.3,0,0,0,0,.4l2.2,2.9c.1.1.1.1.2.1h0c.1,0,.1,0,.2-.1l4.5-6a.3.3,0,0,0,.1-.2,2.74,2.74,0,0,1-.1-.9l1.6-2.1,14.6-11.2-1-1.3Zm-9.9,6.4-2.9,2.1.5.7,2.3-1.6Zm1.1,3.5-2.1,1.6.4.8c.1.1.1.1.2.1h0a.35.35,0,0,0,.2-.1l1.2-1.6v-.2l.1-.6Zm-3.2,2.5-.3.2a.65.65,0,0,1-.2.9h0a.85.85,0,0,1-.7,0l-.1.2-.1.2a1.12,1.12,0,0,0,1.5-.4h0a.9.9,0,0,0-.1-1.1Z"/><text class="cls-14" transform="translate(687.59 474.17)">Axis</text><text class="cls-15" transform="translate(686.13 492.65)">A</text><text class="cls-14" transform="translate(693.44 492.65)">llies</text><text class="cls-14" transform="translate(685.25 512.23)">B</text><text class="cls-14" transform="translate(691.75 512.23)">a</text><text class="cls-14" transform="translate(697.49 512.23)">ttles</text><text class="cls-15" transform="translate(685.25 540.1)">A</text><text class="cls-14" transform="translate(692.56 540.1)">ir</text><text class="cls-14" transform="translate(701.83 540.1)">S</text><text class="cls-14" transform="translate(707.71 540.1)">t</text><text class="cls-14" transform="translate(711.69 540.1)">r</text><text class="cls-14" transform="translate(715.66 540.1)">ike</text><path d="M663.65,528.05c.1.1.1.2-.2.9a1.5,1.5,0,0,1-.2.4l.2.2a.37.37,0,0,1,.1.3,11.34,11.34,0,0,1-1.8,2.5c-.4.4-.6.6-.6.7a6,6,0,0,0,.3.8c.3.7.4.8,3.6,4.4a32.38,32.38,0,0,1,3.4,4c.1.6-.4,1.1-1.7,1.8l-.7.3-9.7-7-5.8,4.4.1.2c.1.1.7.9,1.3,1.7a5.89,5.89,0,0,1,1.2,1.6c0,.4-1.5,1.6-1.7,1.3a9.43,9.43,0,0,0-2-1.5,9.08,9.08,0,0,1-3.2-3.2,9.43,9.43,0,0,0-1.5-2c-.2-.2,1-1.7,1.3-1.7.6.4,1.1.8,1.6,1.2a10.21,10.21,0,0,0,1.7,1.3l.2.1L654,535l-7-9.7.3-.7c.7-1.3,1.2-1.8,1.8-1.7.2,0,1.1.8,4,3.4,3.6,3.2,3.7,3.3,4.4,3.6a6,6,0,0,1,.8.3,1.84,1.84,0,0,0,.7-.5,14.29,14.29,0,0,1,2.5-1.8.63.63,0,0,1,.4.1l.2.2a.52.52,0,0,1,.4-.2c.9-.1,1-.1,1.2.1Z"/><path class="cls-6" d="M471.55,324.05c.1.1.1.1-.2.6,0,.1-.2.3-.2.3l.1.1v.3a6.68,6.68,0,0,1-1.4,1.9c-.3.3-.4.5-.4.6a2.07,2.07,0,0,0,.2.6c.2.5.3.6,2.8,3.3a25.66,25.66,0,0,1,2.6,3c.1.4-.3.8-1.3,1.4l-.5.3-7.4-5.3-4.4,3.4.1.2a9,9,0,0,0,1,1.3,10.43,10.43,0,0,1,.9,1.2c0,.3-1.1,1.2-1.3,1a14.41,14.41,0,0,0-1.5-1.1,13.55,13.55,0,0,1-1.4-1.1,7.46,7.46,0,0,1-1.1-1.4,14.41,14.41,0,0,0-1.1-1.5c-.2-.2.7-1.3,1-1.3l1.2.9a9,9,0,0,0,1.3,1l.2.1,3.4-4.4-5.3-7.4.3-.5c.5-1,.9-1.4,1.4-1.3a18.61,18.61,0,0,1,3,2.6c2.7,2.5,2.8,2.5,3.3,2.8a1.42,1.42,0,0,0,.6.2c.1,0,.3-.1.6-.4a13.68,13.68,0,0,1,1.9-1.4.37.37,0,0,1,.3.1l.1.1c.1-.1.2-.1.3-.2a1.76,1.76,0,0,1,.7-.2Z"/></svg>